G04*
G04 #@! TF.GenerationSoftware,Altium Limited,Altium Designer,25.8.1 (18)*
G04*
G04 Layer_Physical_Order=6*
G04 Layer_Color=16711680*
%FSLAX44Y44*%
%MOMM*%
G71*
G04*
G04 #@! TF.SameCoordinates,1528484A-2012-41B0-BD13-40F79D6D187F*
G04*
G04*
G04 #@! TF.FilePolarity,Positive*
G04*
G01*
G75*
%ADD15C,0.2540*%
%ADD17C,2.0320*%
%ADD19R,0.6500X0.9000*%
%ADD22R,0.9000X0.6500*%
%ADD23R,0.2627X0.3541*%
%ADD46R,0.6725X0.7154*%
%ADD62R,0.7154X0.6725*%
%ADD84R,0.5153X0.4725*%
G04:AMPARAMS|DCode=109|XSize=1.3mm|YSize=2.5mm|CornerRadius=0.65mm|HoleSize=0mm|Usage=FLASHONLY|Rotation=225.000|XOffset=0mm|YOffset=0mm|HoleType=Round|Shape=RoundedRectangle|*
%AMROUNDEDRECTD109*
21,1,1.3000,1.2000,0,0,225.0*
21,1,0.0000,2.5000,0,0,225.0*
1,1,1.3000,-0.4243,0.4243*
1,1,1.3000,-0.4243,0.4243*
1,1,1.3000,0.4243,-0.4243*
1,1,1.3000,0.4243,-0.4243*
%
%ADD109ROUNDEDRECTD109*%
%ADD119C,1.3000*%
%ADD120R,1.3000X1.3000*%
%ADD121C,1.5500*%
%ADD123P,0.9900X4X270.0*%
%ADD124C,0.7000*%
%ADD125R,1.4000X1.4000*%
%ADD126C,1.4000*%
%ADD127C,2.4892*%
G04:AMPARAMS|DCode=128|XSize=1.3mm|YSize=3.2mm|CornerRadius=0.65mm|HoleSize=0mm|Usage=FLASHONLY|Rotation=225.000|XOffset=0mm|YOffset=0mm|HoleType=Round|Shape=RoundedRectangle|*
%AMROUNDEDRECTD128*
21,1,1.3000,1.9000,0,0,225.0*
21,1,0.0000,3.2000,0,0,225.0*
1,1,1.3000,-0.6718,0.6718*
1,1,1.3000,-0.6718,0.6718*
1,1,1.3000,0.6718,-0.6718*
1,1,1.3000,0.6718,-0.6718*
%
%ADD128ROUNDEDRECTD128*%
G04:AMPARAMS|DCode=129|XSize=0.7mm|YSize=1.6mm|CornerRadius=0.35mm|HoleSize=0mm|Usage=FLASHONLY|Rotation=225.000|XOffset=0mm|YOffset=0mm|HoleType=Round|Shape=RoundedRectangle|*
%AMROUNDEDRECTD129*
21,1,0.7000,0.9000,0,0,225.0*
21,1,0.0000,1.6000,0,0,225.0*
1,1,0.7000,-0.3182,0.3182*
1,1,0.7000,-0.3182,0.3182*
1,1,0.7000,0.3182,-0.3182*
1,1,0.7000,0.3182,-0.3182*
%
%ADD129ROUNDEDRECTD129*%
%ADD130P,1.8385X4X180.0*%
%ADD131P,1.9799X4X360.0*%
%ADD132R,1.5500X1.5500*%
%ADD133C,1.1000*%
%ADD136C,0.7620*%
%ADD142C,0.1760*%
%ADD161C,0.7620*%
%ADD186C,5.0800*%
%ADD187C,0.5080*%
%ADD188C,0.5334*%
%ADD189C,0.5588*%
%ADD190C,1.2700*%
%ADD191C,11.0000*%
%ADD192C,1.7780*%
%ADD213C,2.5400*%
%ADD214R,1.1810X0.7874*%
%ADD215R,0.4541X0.3627*%
%ADD216R,0.5200X0.5600*%
%ADD217R,0.3048X0.3810*%
%ADD218R,0.2500X0.2500*%
%ADD219R,0.3627X0.4541*%
%ADD220R,0.4100X0.6600*%
G36*
X1640819Y1713490D02*
X1640338Y1712220D01*
X1638240D01*
Y1707943D01*
X1634540Y1704242D01*
X1633270Y1704768D01*
Y1713905D01*
X1640349D01*
X1640819Y1713490D01*
D02*
G37*
G36*
X1653717Y1712949D02*
X1654279Y1712109D01*
X1654441Y1711946D01*
Y1704105D01*
Y1698375D01*
X1651777D01*
X1650786Y1698178D01*
X1649946Y1697616D01*
X1649384Y1696776D01*
X1649247Y1696085D01*
X1643983D01*
Y1695912D01*
X1635478D01*
X1634707Y1696937D01*
X1641850Y1704080D01*
X1645980D01*
Y1707392D01*
X1646663Y1707849D01*
X1650146Y1711332D01*
X1650708Y1712172D01*
X1650898Y1713128D01*
X1651000Y1713230D01*
X1653661D01*
X1653717Y1712949D01*
D02*
G37*
G36*
X1673517Y1698348D02*
X1674357Y1697787D01*
X1675348Y1697590D01*
X1690370D01*
Y1690759D01*
X1689197Y1690273D01*
X1689100Y1690370D01*
X1659890D01*
Y1701515D01*
X1670350D01*
X1673517Y1698348D01*
D02*
G37*
G36*
X1630680Y1691640D02*
X1631408Y1691432D01*
X1631480Y1691360D01*
X1632191Y1690885D01*
X1633030Y1690718D01*
X1633908D01*
X1639570Y1689100D01*
X1656080Y1685290D01*
X1658620Y1682750D01*
X1667062Y1681695D01*
Y1680658D01*
X1674537D01*
X1686560Y1678940D01*
X1687427Y1678073D01*
X1686941Y1676900D01*
X1636394D01*
X1636008Y1678170D01*
X1636321Y1678379D01*
X1636883Y1679219D01*
X1637080Y1680210D01*
X1636883Y1681201D01*
X1636321Y1682041D01*
X1635481Y1682603D01*
X1634490Y1682800D01*
X1626622D01*
Y1686564D01*
X1628511Y1688453D01*
X1629073Y1689294D01*
X1629270Y1690285D01*
Y1691323D01*
X1630540Y1691800D01*
X1630680Y1691640D01*
D02*
G37*
G36*
X1621790Y1709420D02*
Y1701800D01*
X1621632Y1701452D01*
X1613680D01*
Y1702560D01*
X1607040D01*
Y1693420D01*
X1613680D01*
Y1697068D01*
X1623306D01*
X1623546Y1696868D01*
X1624143Y1695907D01*
X1624134Y1695481D01*
X1624090Y1695260D01*
Y1691357D01*
X1622201Y1689468D01*
X1621639Y1688628D01*
X1621442Y1687637D01*
Y1682255D01*
X1621229Y1682041D01*
X1620667Y1681201D01*
X1620470Y1680210D01*
X1620667Y1679219D01*
X1621229Y1678379D01*
X1627129Y1672479D01*
X1627969Y1671917D01*
X1628960Y1671720D01*
X1693780D01*
X1696720Y1668780D01*
Y1671720D01*
X1699069D01*
X1700060Y1671917D01*
X1700900Y1672479D01*
X1701462Y1673319D01*
X1701659Y1674310D01*
X1701462Y1675301D01*
X1700900Y1676141D01*
X1700060Y1676703D01*
X1699069Y1676900D01*
X1696720D01*
Y1680103D01*
X1706244D01*
Y1690517D01*
X1696720D01*
Y1693408D01*
X1697101Y1693720D01*
X1699069D01*
X1700060Y1693917D01*
X1700900Y1694479D01*
X1701462Y1695319D01*
X1701659Y1696310D01*
X1701462Y1697301D01*
X1700900Y1698141D01*
X1700060Y1698703D01*
X1699069Y1698900D01*
X1698174D01*
X1697265Y1699808D01*
X1697281Y1700587D01*
X1698456Y1701642D01*
X1710690Y1700530D01*
X1736090Y1725930D01*
X1758950D01*
Y1685290D01*
X1737360Y1663700D01*
X1700530D01*
X1696720Y1667510D01*
Y1611630D01*
X1713230Y1595120D01*
X1710690Y1592580D01*
X1579880D01*
X1548130Y1624330D01*
Y1736090D01*
X1576070Y1764030D01*
X1614170D01*
X1621790Y1709420D01*
D02*
G37*
%LPC*%
G36*
X1603580Y1702560D02*
X1596940D01*
Y1693420D01*
X1598068D01*
Y1688867D01*
X1595568D01*
Y1679173D01*
Y1669602D01*
X1598818D01*
X1602994Y1665425D01*
X1601389Y1662644D01*
X1600454Y1659156D01*
Y1655544D01*
X1601389Y1652056D01*
X1603194Y1648928D01*
X1605748Y1646375D01*
X1608876Y1644569D01*
X1612364Y1643634D01*
X1615976D01*
X1619464Y1644569D01*
X1622592Y1646375D01*
X1625146Y1648928D01*
X1626951Y1652056D01*
X1627886Y1655544D01*
Y1659156D01*
X1626951Y1662644D01*
X1625146Y1665772D01*
X1622592Y1668326D01*
X1619464Y1670131D01*
X1615976Y1671066D01*
X1612364D01*
X1608876Y1670131D01*
X1606095Y1668526D01*
X1604832Y1669788D01*
Y1679173D01*
Y1688867D01*
X1602452D01*
Y1693420D01*
X1603580D01*
Y1702560D01*
D02*
G37*
%LPD*%
D15*
X1834410Y1714500D02*
G03*
X1829397Y1726603I-17117J0D01*
G01*
X1826679Y1677934D02*
G03*
X1819910Y1675130I0J-9573D01*
G01*
X1897322Y1779212D02*
G03*
X1916426Y1824612I-46151J46139D01*
G01*
X1922034Y1860067D02*
G03*
X1887936Y1996938I-178455J28226D01*
G01*
X1879387Y1993486D02*
G03*
X1879088Y1993871I-135808J-105193D01*
G01*
X1865518Y1767296D02*
G03*
X1879387Y1993486I-121939J120997D01*
G01*
X1432899Y1996440D02*
G03*
X1289230Y1936931I-0J-203179D01*
G01*
X1425550Y2005203D02*
G03*
X1304897Y1962343I7349J-211941D01*
G01*
X1793240Y1637400D02*
G03*
X1800376Y1640356I0J10091D01*
G01*
X1830535Y1670083D02*
G03*
X1829470Y1669450I727J-2434D01*
G01*
X1846081Y1674730D02*
G03*
X1847894Y1677163I-727J2434D01*
G01*
X1868170Y1648460D02*
G03*
X1865215Y1655596I-10093J0D01*
G01*
X1847894Y1680704D02*
G03*
X1845811Y1683203I-2540J0D01*
G01*
X959597Y1774190D02*
G03*
X959348Y1774087I0J-353D01*
G01*
X1060927Y1708627D02*
G03*
X1054567Y1697993I17960J-17960D01*
G01*
X1141102Y1733198D02*
G03*
X1141097Y1733196I1857J-4728D01*
G01*
X1099704Y1715086D02*
G03*
X1099694Y1715081I1973J-4681D01*
G01*
X1825259Y1744254D02*
G03*
X1822761Y1742171I0J-2540D01*
G01*
X1833287Y1744254D02*
G03*
X1834923Y1744851I0J2540D01*
G01*
D02*
G03*
X1835363Y1745235I-13479J15875D01*
G01*
X1134810Y1663851D02*
G03*
X1122424Y1656059I38J-13802D01*
G01*
X1147724Y1657549D02*
G03*
X1134855Y1663851I-12877J-10007D01*
G01*
D02*
G03*
X1134810Y1663851I-7J-13802D01*
G01*
X1147724Y1657549D02*
G03*
X1148658Y1656556I5998J4700D01*
G01*
X1120151Y1654630D02*
G03*
X1122424Y1656059I-11J2540D01*
G01*
X1325880Y1636669D02*
G03*
X1318441Y1654630I-25400J0D01*
G01*
X1081761Y1685372D02*
G03*
X1099722Y1692812I0J25400D01*
G01*
X1865518Y1767296D02*
G03*
X1860550Y1752239I20332J-15057D01*
G01*
X1897316Y1779206D02*
G03*
X1897322Y1779212I-46145J46145D01*
G01*
X1060414Y1654809D02*
G03*
X1060847Y1654630I434J434D01*
G01*
X1869440Y1620520D02*
G03*
X1854110Y1626870I-15330J-15330D01*
G01*
X1826062Y1706215D02*
G03*
X1831160Y1703650I5098J3785D01*
G01*
X1859806Y1721376D02*
G03*
X1860550Y1723172I-1796J1796D01*
G01*
X1844293Y1710648D02*
G03*
X1844032Y1710517I2714J-5741D01*
G01*
X1828727Y1709271D02*
G03*
X1831160Y1707460I2433J729D01*
G01*
X1852969Y1714749D02*
G03*
X1853674Y1715244I-1085J2297D01*
G01*
X1837660Y1707460D02*
G03*
X1838860Y1707761I0J2540D01*
G01*
X1825593Y1719729D02*
G03*
X1825317Y1720341I-2433J-729D01*
G01*
X1821444Y1727297D02*
G03*
X1821827Y1725956I2540J0D01*
G01*
X1657350Y1727200D02*
G03*
X1645861Y1722441I0J-16248D01*
G01*
X1643368Y1721784D02*
G03*
X1645861Y1722441I688J2445D01*
G01*
X1530701Y2355858D02*
Y2389816D01*
Y2355858D02*
X1564640Y2321919D01*
X1623060Y1680210D02*
X1644650D01*
X1628960Y1674310D02*
X1699069D01*
X1623060Y1680210D02*
X1628960Y1674310D01*
X1626680Y1690285D02*
Y1695260D01*
X1624032Y1687637D02*
X1626680Y1690285D01*
X1624032Y1681182D02*
Y1687637D01*
X1623060Y1680210D02*
X1624032Y1681182D01*
X1784350Y1771650D02*
X1796564D01*
X1797050D01*
X1793903Y1768989D02*
X1796564Y1771650D01*
X1793903Y1762782D02*
Y1768989D01*
X1793431Y1762310D02*
X1793903Y1762782D01*
X1829034Y1751874D02*
X1832610Y1755907D01*
X1828033Y1751330D02*
X1829034Y1751874D01*
X1827530Y1728470D02*
X1829397Y1726603D01*
X1845280Y1718310D02*
X1845310D01*
X1841470Y1714500D02*
X1845280Y1718310D01*
X1834410Y1714500D02*
X1841470D01*
X1827530Y1728470D02*
Y1739900D01*
X1666829Y1735999D02*
Y1738041D01*
X1667373Y1735456D02*
X1667830D01*
X1666829Y1735999D02*
X1667373Y1735456D01*
X1844040Y1678477D02*
Y1678934D01*
X1843497Y1677934D02*
X1844040Y1678477D01*
X1826679Y1677934D02*
X1830070D01*
X1843497D01*
X1671320Y1704207D02*
Y1704340D01*
Y1704207D02*
X1675348Y1700179D01*
X1671085Y1704105D02*
X1671320Y1704340D01*
X1697101Y1696310D02*
X1699069D01*
X1675348Y1700179D02*
X1693232D01*
X1697101Y1696310D01*
X1661160Y1743710D02*
X1666829Y1738041D01*
X1657031Y1704105D02*
Y1712381D01*
Y1704105D02*
X1671085D01*
X1656110Y1713940D02*
X1657350Y1712700D01*
X1657031Y1712381D02*
X1657350Y1712700D01*
X1631225Y1716495D02*
X1641565D01*
X1642110Y1715950D01*
X1630680Y1717040D02*
X1631225Y1716495D01*
X1657031Y1696039D02*
Y1704105D01*
X1630680Y1703260D02*
Y1717040D01*
X1651777Y1695785D02*
X1656777D01*
X1657031Y1696039D01*
X1651777Y1690035D02*
Y1695785D01*
X1675130Y1737487D02*
Y1756410D01*
X1674916Y1737274D02*
X1675130Y1737487D01*
X1674916Y1735999D02*
Y1737274D01*
X1674373Y1735456D02*
X1674916Y1735999D01*
X1673916Y1735456D02*
X1674373D01*
X1673916Y1718546D02*
Y1735456D01*
X1651798Y1718490D02*
X1673860D01*
X1648315Y1715007D02*
X1651798Y1718490D01*
X1648315Y1713163D02*
Y1715007D01*
X1673860Y1718490D02*
X1673916Y1718546D01*
X1673860Y1718490D02*
X1698889D01*
X1699069Y1718310D01*
X1644832Y1709680D02*
X1648315Y1713163D01*
X1643440Y1709680D02*
X1644832D01*
X1642110Y1708350D02*
X1643440Y1709680D01*
X1642110Y1708150D02*
Y1708350D01*
Y1707950D02*
Y1708150D01*
X1640780Y1706620D02*
X1642110Y1707950D01*
X1640580Y1706620D02*
X1640780D01*
X1633220Y1699260D02*
X1640580Y1706620D01*
X1630680Y1699260D02*
X1633220D01*
X1778988Y1696310D02*
X1793431D01*
X1743710Y1661032D02*
X1778988Y1696310D01*
X1743710Y1473200D02*
Y1661032D01*
X1710690Y1440180D02*
X1743710Y1473200D01*
X1337799Y1427480D02*
X1864976D01*
X1325880Y1439399D02*
X1337799Y1427480D01*
X1864976D02*
X1869440Y1431944D01*
Y1620520D01*
X1325880Y1439399D02*
Y1456254D01*
Y1456254D01*
X1301396Y2300885D02*
X1301750Y2301240D01*
X1301396Y2272384D02*
Y2300885D01*
X1564640Y2293659D02*
Y2321919D01*
X1432560Y887730D02*
Y915670D01*
X1423670Y878840D02*
X1432560Y887730D01*
X914126Y1065804D02*
X921472Y1073150D01*
X942340D01*
X889298Y2399328D02*
X890270Y2400300D01*
X889298Y2396788D02*
Y2399328D01*
X802640Y2310130D02*
X889298Y2396788D01*
X1916426Y1824612D02*
X1922034Y1860067D01*
X1885937Y1999595D02*
X1887936Y1996938D01*
X1238826Y1912325D02*
X1304897Y1962343D01*
X1432899Y1996440D02*
X1876519Y1996440D01*
X1879088Y1993871D01*
X1425550Y2005203D02*
X1429217Y2005330D01*
X1880201D01*
X1038374Y1711873D02*
X1238826Y1912325D01*
X1880201Y2005330D02*
X1885937Y1999595D01*
X1800376Y1640356D02*
X1829470Y1669450D01*
X1840206Y1688311D02*
Y1697990D01*
Y1688311D02*
X1844040Y1684477D01*
Y1684020D02*
Y1684477D01*
X1844084Y1683519D02*
X1845811Y1683203D01*
X1844040Y1684020D02*
X1844084Y1683519D01*
X1830535Y1670083D02*
X1846081Y1674730D01*
X1865215Y1655596D01*
X1847894Y1677163D02*
Y1680704D01*
X1875790Y1715807D02*
X1878330Y1737360D01*
X1867077Y1699887D02*
X1875790Y1715807D01*
X1847894Y1680704D02*
X1867077Y1699887D01*
X1808480Y1697990D02*
X1832420D01*
X1808079D02*
X1808480D01*
X1793431Y1652091D02*
Y1674310D01*
X1819910Y1714500D02*
Y1715750D01*
X1793431Y1685310D02*
X1795399D01*
X1808079Y1697990D01*
X1793431Y1707310D02*
X1796098Y1704643D01*
X1801827D01*
X1808480Y1697990D01*
X1793431Y1718310D02*
X1817350D01*
X1819910Y1715750D01*
X1793431Y1751310D02*
X1821927D01*
X1821947Y1751330D01*
X1793431Y1740310D02*
X1793841Y1739900D01*
X1821444D01*
X1793431Y1696310D02*
X1795111Y1697990D01*
X1808079D01*
X1793431Y1729310D02*
X1820147D01*
X1820987Y1728470D01*
X1821444D01*
X1793240Y1651900D02*
X1793431Y1652091D01*
X1628050Y1723390D02*
X1635261Y1724066D01*
X1624330Y1719670D02*
X1628050Y1723390D01*
X1624330Y1714410D02*
Y1719670D01*
Y1714410D02*
X1626680Y1703260D01*
X1635261Y1724066D02*
X1643368Y1721783D01*
X1844168Y1761490D02*
X1846999Y1763818D01*
X1835870Y1745742D02*
X1838960Y1753277D01*
Y1756282D01*
X1835364Y1745236D02*
X1835870Y1745742D01*
X1838960Y1756282D02*
X1844168Y1761490D01*
X1846999Y1763818D02*
X1858571Y1775390D01*
X1835363Y1745235D02*
X1835364Y1745236D01*
X1845087Y1703927D02*
X1854935Y1708952D01*
X1855299Y1709019D01*
X1831160Y1703650D02*
X1844543D01*
X1855299Y1709019D02*
X1859178Y1709734D01*
X1844543Y1703650D02*
X1845087Y1703927D01*
X1821947Y1751330D02*
X1822034Y1751874D01*
X1822668Y1755844D02*
X1824777Y1757953D01*
X1822034Y1751874D02*
X1822668Y1755844D01*
X1849680Y1779072D02*
X1849680Y1779072D01*
X1824777Y1757953D02*
X1849680Y1779072D01*
X1042964Y1690157D02*
X1043940Y1675258D01*
X1052830Y1678940D02*
X1054567Y1697993D01*
X1038374Y1707738D02*
X1042964Y1690157D01*
X1043940Y1675258D02*
X1049739Y1664204D01*
X1787746Y1626870D02*
X1854110D01*
X1783283Y1631334D02*
X1787746Y1626870D01*
X1783283Y1637646D02*
X1783660Y1642754D01*
X1783283Y1631334D02*
Y1637646D01*
X1788776Y1647436D02*
X1793240Y1651900D01*
X1786636Y1645730D02*
X1788776Y1647436D01*
X1783660Y1642754D02*
X1786636Y1645730D01*
X1153101Y1765231D02*
X1320870Y1930400D01*
X1116244Y1715774D02*
X1128826Y1728356D01*
X1148556Y1745491D02*
X1326419Y1921510D01*
X1146310Y1743244D02*
X1148556Y1745491D01*
X1143868Y1757680D02*
X1153101Y1765231D01*
X1320870Y1930400D02*
X1864218D01*
X1146310Y1738405D02*
Y1743244D01*
X1128826Y1728356D02*
X1141097Y1733196D01*
X1132840Y1757680D02*
X1143868D01*
X1141102Y1733198D02*
X1146310Y1738405D01*
X1326419Y1921510D02*
X1860535D01*
X1126434Y1751274D02*
X1132840Y1757680D01*
X1126434Y1741816D02*
Y1751274D01*
X1060927Y1708627D02*
X1289230Y1936931D01*
X1067890Y1696540D02*
X1076699Y1705349D01*
X1099704Y1715086D02*
X1126434Y1741816D01*
X1076699Y1705349D02*
X1099694Y1715081D01*
X1822444Y1740444D02*
X1822761Y1742171D01*
X1825259Y1744254D02*
X1829801D01*
Y1744254D02*
X1833287D01*
X1833287D01*
X725170Y1639570D02*
X731520Y1633220D01*
X829310D02*
X1403350Y1059180D01*
X731520Y1633220D02*
X829310D01*
X706120Y1647825D02*
X706755Y1647190D01*
X772743D01*
X775283Y1649730D01*
X839560D01*
X1119742Y1369548D01*
Y1355397D02*
Y1369548D01*
Y1355397D02*
X1400896Y1074243D01*
X1494590D01*
X1403350Y1059180D02*
X1490948D01*
X1214666Y1652270D02*
X1217025Y1654630D01*
X1318441D01*
X1204942D02*
X1207301Y1652270D01*
X1214666D01*
X1153722Y1654630D02*
X1204942D01*
X1074918Y1685372D02*
X1081761D01*
X1150824Y1654630D02*
X1153722Y1654630D01*
X1148658Y1656556D02*
X1150824Y1654630D01*
X1060847Y1654630D02*
X1120151D01*
X1116244Y1704041D02*
Y1715774D01*
X1107666Y1695464D02*
X1116244Y1704041D01*
X1102374Y1695464D02*
X1107666D01*
X1099722Y1692812D02*
X1102374Y1695464D01*
X1064988Y1680370D02*
X1067890Y1696540D01*
X1038374Y1707738D02*
Y1711873D01*
X1864218Y1930400D02*
X1873308Y1921310D01*
X1860535Y1921510D02*
X1864999Y1917046D01*
Y1910734D02*
Y1917046D01*
X1868170Y1823128D02*
X1873889Y1907051D01*
X1859280Y1824066D02*
X1864999Y1910734D01*
X1873308Y1921310D02*
X1873889Y1920434D01*
X1849680Y1779072D02*
X1859280Y1824066D01*
X1867930Y1820144D02*
X1868170Y1823128D01*
X1873889Y1907051D02*
Y1920434D01*
X1858571Y1775390D02*
X1867930Y1820144D01*
X1869440Y1751330D02*
X1897316Y1779206D01*
X1869440Y1718438D02*
Y1751330D01*
X1859178Y1709734D02*
X1861089Y1710087D01*
X1869440Y1718438D01*
X1325880Y1456254D02*
Y1636669D01*
X1821890Y1711833D02*
X1826062Y1706215D01*
X1819910Y1714500D02*
X1821890Y1711833D01*
X1860550Y1723172D02*
Y1752239D01*
X1853674Y1715244D02*
X1859806Y1721376D01*
X1844293Y1710648D02*
X1852969Y1714749D01*
X1838865Y1707764D02*
X1844021Y1710511D01*
X1831160Y1707460D02*
X1837660D01*
X1825593Y1719729D02*
X1826625Y1716286D01*
X1828727Y1709271D01*
X1821827Y1725956D02*
X1825317Y1720341D01*
X1821444Y1727297D02*
Y1728470D01*
X1832420Y1697990D02*
X1832634D01*
X1830070Y1684020D02*
Y1695640D01*
X1832420Y1697990D01*
X1821444Y1739900D02*
X1822444Y1740444D01*
D17*
X1675130Y1756410D02*
D03*
D19*
X1834410Y1714500D02*
D03*
X1819910D02*
D03*
D22*
X1657350Y1712700D02*
D03*
X1793240Y1637400D02*
D03*
X1657350Y1727200D02*
D03*
X1793240Y1651900D02*
D03*
D23*
X1844040Y1678934D02*
D03*
Y1684020D02*
D03*
D46*
X1600200Y1674449D02*
D03*
Y1684020D02*
D03*
D62*
X1671909Y1685290D02*
D03*
X1681480D02*
D03*
D84*
X1840206Y1697990D02*
D03*
X1832634D02*
D03*
D109*
X683350Y2114326D02*
D03*
X744444Y2175420D02*
D03*
D119*
X1188720Y2327910D02*
D03*
X1208720D02*
D03*
X700868Y1214292D02*
D03*
X715010Y1200150D02*
D03*
D120*
X1168720Y2327910D02*
D03*
D121*
X1148720D02*
D03*
X1228720D02*
D03*
X645160Y1978660D02*
D03*
X743294Y1171866D02*
D03*
X686726Y1228434D02*
D03*
X885190Y1681880D02*
D03*
X959020Y1681680D02*
D03*
X960120Y1566310D02*
D03*
D123*
X768875Y2131968D02*
D03*
D124*
X726802Y2089895D02*
D03*
X756854Y2119947D02*
D03*
X750844Y2113937D02*
D03*
X744833Y2107926D02*
D03*
X738823Y2101916D02*
D03*
X717256Y2099441D02*
D03*
X723266Y2105452D02*
D03*
X729277Y2111462D02*
D03*
X735287Y2117472D02*
D03*
X741298Y2123483D02*
D03*
X747308Y2129493D02*
D03*
X753318Y2135504D02*
D03*
X759329Y2141514D02*
D03*
X732812Y2095906D02*
D03*
X762864Y2125958D02*
D03*
D125*
X561510Y1853330D02*
D03*
D126*
X648416Y1393744D02*
D03*
X789838Y1252322D02*
D03*
X772160Y1270000D02*
D03*
X754482Y1287678D02*
D03*
X736805Y1305355D02*
D03*
X719127Y1323033D02*
D03*
X701449Y1340711D02*
D03*
X683772Y1358388D02*
D03*
X666094Y1376066D02*
D03*
X561510Y1903330D02*
D03*
Y1878330D02*
D03*
D127*
X1614170Y1657350D02*
D03*
D128*
X774850Y2145014D02*
D03*
X713756Y2083920D02*
D03*
D129*
X745505Y2174359D02*
D03*
X684411Y2113265D02*
D03*
D130*
X729152Y1186008D02*
D03*
D131*
X807515Y1234645D02*
D03*
D132*
X645160Y2003660D02*
D03*
X885190Y1706880D02*
D03*
X959020Y1706680D02*
D03*
X960120Y1591310D02*
D03*
D133*
X541510Y1919330D02*
D03*
D136*
X1893549Y2004714D02*
D03*
X1807513Y1768143D02*
D03*
X1832610Y1755907D02*
D03*
X1529080Y2444750D02*
D03*
X1516380Y2359660D02*
D03*
X1845310Y1718310D02*
D03*
X1671320Y1704340D02*
D03*
X1661160Y1743710D02*
D03*
X1630680Y1717040D02*
D03*
X1350190Y2354580D02*
D03*
X1451610Y2330450D02*
D03*
X1277620Y1968500D02*
D03*
X1188720Y2172970D02*
D03*
X1260727Y1744260D02*
D03*
X1186180Y1816100D02*
D03*
X1819910Y1675130D02*
D03*
X1623060Y1680210D02*
D03*
X1823720Y1410970D02*
D03*
X1915160Y1325920D02*
D03*
X1543050Y1024890D02*
D03*
X1488440Y1037590D02*
D03*
X1400810Y1083310D02*
D03*
X1380708Y1032292D02*
D03*
X1510030Y974090D02*
D03*
X1247140Y1673860D02*
D03*
X1267460Y1621790D02*
D03*
X1290320Y1473200D02*
D03*
X1234440Y1409700D02*
D03*
X957580Y2316142D02*
D03*
X949960Y2171700D02*
D03*
X1027610Y2147390D02*
D03*
X905256Y2154936D02*
D03*
X865277Y2429917D02*
D03*
X1137420Y1742088D02*
D03*
X1116766Y2011680D02*
D03*
X1101090D02*
D03*
X999490Y1826260D02*
D03*
X1028700Y1695450D02*
D03*
X940240Y1975290D02*
D03*
X820420Y2338070D02*
D03*
X800100Y1972310D02*
D03*
X787400Y1856740D02*
D03*
X713740Y1910080D02*
D03*
X424180Y2019300D02*
D03*
X628650Y1766570D02*
D03*
X586740Y1762760D02*
D03*
X715010Y1717040D02*
D03*
X730250Y1690370D02*
D03*
X793750Y1668780D02*
D03*
X721950Y1669460D02*
D03*
X562610Y1717040D02*
D03*
X1117600Y1634413D02*
D03*
X1134319Y1452878D02*
D03*
X792480Y1452880D02*
D03*
X1120140Y1410480D02*
D03*
X948690Y991870D02*
D03*
X896990Y935620D02*
D03*
X863600Y1405890D02*
D03*
X796290Y1393190D02*
D03*
X734060Y1625600D02*
D03*
X542293Y1635760D02*
D03*
X576580Y1631950D02*
D03*
X690880Y1620520D02*
D03*
X647700Y1567180D02*
D03*
X618490Y1566101D02*
D03*
X774700Y1050290D02*
D03*
X697837Y1522730D02*
D03*
X515620D02*
D03*
X711245Y1426165D02*
D03*
X511804Y1409700D02*
D03*
X421788Y1451400D02*
D03*
X398428Y1262380D02*
D03*
X1710690Y1440180D02*
D03*
X1301396Y2272384D02*
D03*
X1564640Y2293659D02*
D03*
X1530701Y2389816D02*
D03*
X1567180Y2328360D02*
D03*
X1501636Y2298204D02*
D03*
X1423670Y878840D02*
D03*
X852355Y2222315D02*
D03*
X904240Y1116330D02*
D03*
X1122680Y986790D02*
D03*
X942340Y1073150D02*
D03*
X1038860Y974090D02*
D03*
X802640Y2310130D02*
D03*
X918063Y2456327D02*
D03*
X521771Y1349811D02*
D03*
X509821Y1338580D02*
D03*
X849630Y2280920D02*
D03*
X690880Y1689100D02*
D03*
X1427480Y1040130D02*
D03*
X1531620Y1065530D02*
D03*
X890270Y2400300D02*
D03*
X810260Y1055370D02*
D03*
X618490Y1602740D02*
D03*
X558800Y1661160D02*
D03*
X647700Y1602930D02*
D03*
X676910Y1604010D02*
D03*
X679450Y1717040D02*
D03*
X593090Y1731004D02*
D03*
X565150Y1750060D02*
D03*
X685800Y1666939D02*
D03*
X514350Y1393190D02*
D03*
X1107440Y2176780D02*
D03*
X1868170Y1648460D02*
D03*
X628650Y1732280D02*
D03*
X1126490Y2176780D02*
D03*
X959597Y1774190D02*
D03*
X1290320Y1447800D02*
D03*
X1245668Y1734596D02*
D03*
X1878330Y1737360D02*
D03*
X1132419Y1719353D02*
D03*
X1130427Y1652188D02*
D03*
X533865Y1541315D02*
D03*
X1028700Y1678940D02*
D03*
X1210984Y1661160D02*
D03*
X836930Y1643380D02*
D03*
X807720Y1614170D02*
D03*
X1162050Y1643380D02*
D03*
X1151193Y1638042D02*
D03*
X1233170Y1686560D02*
D03*
X1223010Y1694550D02*
D03*
X1219238Y1669806D02*
D03*
X1211624Y1690052D02*
D03*
X1052830Y1678940D02*
D03*
X1126523Y1685313D02*
D03*
X1097503Y1725457D02*
D03*
X1106170Y1734820D02*
D03*
X1149418Y1774121D02*
D03*
X652780Y1751330D02*
D03*
X669290Y1743710D02*
D03*
X871220Y2294890D02*
D03*
X848450Y2289900D02*
D03*
X1504950Y2379980D02*
D03*
X1494835Y2393905D02*
D03*
X903785Y1018540D02*
D03*
X896620Y1007110D02*
D03*
X473710Y1483360D02*
D03*
X453390Y1376680D02*
D03*
X632460Y1615440D02*
D03*
X455930Y1365250D02*
D03*
X654050Y1513840D02*
D03*
X465099Y1352271D02*
D03*
X939800Y2038805D02*
D03*
X902970Y2207260D02*
D03*
X800100Y2038350D02*
D03*
X806450Y2000250D02*
D03*
X748030Y2080688D02*
D03*
X698500Y1988820D02*
D03*
X692150Y1729740D02*
D03*
X689610Y1752600D02*
D03*
X725170Y1639570D02*
D03*
X712470Y1600200D02*
D03*
X718820Y1584960D02*
D03*
X1233170Y1673370D02*
D03*
X1074918Y1685372D02*
D03*
X1040130Y953770D02*
D03*
X1567180Y1085850D02*
D03*
X1529080Y2343150D02*
D03*
X783590Y2311400D02*
D03*
X1499870Y2319020D02*
D03*
X1214120Y2240280D02*
D03*
X858520Y2325370D02*
D03*
X515620Y1656080D02*
D03*
X624840Y1508760D02*
D03*
X515620Y1672590D02*
D03*
X891540Y1032510D02*
D03*
X844550Y2324100D02*
D03*
X1468120Y2338070D02*
D03*
X1323340Y986790D02*
D03*
X927100Y960120D02*
D03*
X902598Y964828D02*
D03*
X1494590Y1074243D02*
D03*
X1490948Y1059180D02*
D03*
X1103984Y1704354D02*
D03*
X1064988Y1680370D02*
D03*
X1060414Y1654809D02*
D03*
X1049739Y1664204D02*
D03*
X1122874Y1519723D02*
D03*
X1078230Y1560830D02*
D03*
X1093470Y1569904D02*
D03*
X1106170Y1581150D02*
D03*
X1117007Y1591673D02*
D03*
X1178560Y1738996D02*
D03*
X1243330Y1783080D02*
D03*
X1220470Y1490980D02*
D03*
X1205859Y1490758D02*
D03*
X1292860Y1807120D02*
D03*
X1277438Y1800677D02*
D03*
X1263650Y1811020D02*
D03*
X1158240Y1728470D02*
D03*
X1159510Y1741170D02*
D03*
X1233126Y1490218D02*
D03*
X841912Y922118D02*
D03*
X868680Y1473200D02*
D03*
X781050Y1485900D02*
D03*
X833959Y1357199D02*
D03*
X831850Y1525270D02*
D03*
X791210Y1517650D02*
D03*
X864870Y1390650D02*
D03*
X866140Y1421130D02*
D03*
X867410Y1436370D02*
D03*
X585470Y1275080D02*
D03*
X748030Y1717040D02*
D03*
X735330Y1548130D02*
D03*
X735926Y1529676D02*
D03*
X679495Y1573575D02*
D03*
X638810Y1784350D02*
D03*
X623570Y1785620D02*
D03*
X895350Y2020570D02*
D03*
X819150Y2062480D02*
D03*
X791210Y2153920D02*
D03*
X607060Y1545590D02*
D03*
X721360Y1653540D02*
D03*
X706120Y1647825D02*
D03*
X595630Y1781810D02*
D03*
X715010Y1628140D02*
D03*
X701040Y1586230D02*
D03*
X699770Y1600200D02*
D03*
X623570Y1630680D02*
D03*
X812800Y961390D02*
D03*
X944880Y969010D02*
D03*
X875030Y2326640D02*
D03*
X1559560Y1003300D02*
D03*
X1513840Y997536D02*
D03*
X1490149Y1012386D02*
D03*
D142*
X1611530Y1699260D02*
X1626680D01*
X1610360Y1698090D02*
X1611530Y1699260D01*
X1610360Y1697990D02*
Y1698090D01*
X1600260Y1684080D02*
Y1697990D01*
X1600200Y1684020D02*
X1600260Y1684080D01*
X1681480Y1685290D02*
X1699049D01*
X1600200Y1671320D02*
Y1674449D01*
Y1671320D02*
X1614170Y1657350D01*
X1630680Y1695260D02*
X1633030Y1692910D01*
X1646777D01*
X1656777Y1689654D02*
X1660663Y1685768D01*
X1663601Y1685290D02*
X1671909D01*
X1663123Y1685768D02*
X1663601Y1685290D01*
X1656777Y1689654D02*
Y1690035D01*
X1660663Y1685768D02*
X1663123D01*
D161*
X1662991Y1775460D02*
G03*
X1649932Y1751814I9367J-20603D01*
G01*
X1706426Y1709505D02*
G03*
X1709839Y1712910I-1452J4868D01*
G01*
X1720845Y1739624D02*
G03*
X1720848Y1739616I7096J2776D01*
G01*
X1713410Y1721651D02*
G03*
X1720850Y1739612I-17960J17960D01*
G01*
X1713404Y1721645D02*
G03*
X1711510Y1718467I5404J-5373D01*
G01*
X836021Y2315571D02*
G03*
X828582Y2297610I17960J-17960D01*
G01*
X1464528Y2301240D02*
G03*
X1468120Y2309912I-8672J8672D01*
G01*
X1652632Y1731327D02*
X1654814Y1729145D01*
X1649932Y1751814D02*
X1652632Y1731327D01*
X1654814Y1729145D02*
X1657350Y1727200D01*
X1662991Y1775460D02*
X1706824D01*
X1708759Y1770516D02*
X1710054Y1768351D01*
X1710572Y1765882D01*
X1720845Y1739624D01*
X1706824Y1775460D02*
X1708759Y1770516D01*
X1699049Y1685290D02*
X1699069Y1685310D01*
Y1707310D02*
X1699495Y1707437D01*
X1706426Y1709505D01*
X1720848Y1739616D02*
X1720850Y1739612D01*
X1713404Y1721645D02*
X1713410Y1721651D01*
X1709839Y1712910D02*
X1711510Y1718467D01*
X828582Y2236651D02*
Y2297610D01*
X939800Y2038805D02*
Y2075180D01*
X896366Y2118614D02*
X939800Y2075180D01*
X896366Y2118614D02*
Y2200656D01*
X902970Y2207260D01*
X836021Y2315571D02*
X844550Y2324100D01*
X1468120Y2309912D02*
Y2338070D01*
D186*
X1490980Y2147570D02*
D03*
Y2049780D02*
D03*
X1305560Y2053590D02*
D03*
Y2146300D02*
D03*
X1435100D02*
D03*
Y2053590D02*
D03*
X1600200Y2049780D02*
D03*
Y2147570D02*
D03*
X1621790Y1202690D02*
D03*
Y1281430D02*
D03*
X1488440D02*
D03*
Y1202690D02*
D03*
X1250950Y1162050D02*
D03*
Y1056640D02*
D03*
X1183640D02*
D03*
Y1162050D02*
D03*
X1319530Y1207770D02*
D03*
X1426210D02*
D03*
X1424940Y1297940D02*
D03*
X1316990D02*
D03*
X1115060Y1276350D02*
D03*
Y1145540D02*
D03*
X956310D02*
D03*
Y1276350D02*
D03*
X1535430Y1351280D02*
D03*
X1059180D02*
D03*
X1535430Y1963420D02*
D03*
X1059180D02*
D03*
D187*
X1564640Y960120D02*
D03*
X1516380D02*
D03*
X2002790Y1245870D02*
D03*
X2059940Y1226820D02*
D03*
X2117090Y1271270D02*
D03*
X2122170Y1342390D02*
D03*
X2073910Y1389380D02*
D03*
X2012950Y1413510D02*
D03*
X2026920Y1941830D02*
D03*
X2120900Y1995170D02*
D03*
X2125980Y2056130D02*
D03*
X2070100Y2105660D02*
D03*
X2015490D02*
D03*
X1550670Y2197100D02*
D03*
X1365250Y2193290D02*
D03*
X1548130Y2095500D02*
D03*
X1365250D02*
D03*
X1606550Y2247900D02*
D03*
X1621790Y2528570D02*
D03*
X1582420Y2606040D02*
D03*
X1507490Y2611120D02*
D03*
X1461770Y2571750D02*
D03*
X1441450Y2505710D02*
D03*
X993140Y2428240D02*
D03*
X895350Y2541270D02*
D03*
X883920Y2602230D02*
D03*
X819150Y2631440D02*
D03*
X735330Y2541270D02*
D03*
X749300Y2489200D02*
D03*
X775970Y2298700D02*
D03*
X902970Y2303780D02*
D03*
X785199Y2473060D02*
D03*
X839470Y1678940D02*
D03*
X754380Y1563370D02*
D03*
X1449070Y1410970D02*
D03*
X1591310Y1372870D02*
D03*
X1313180Y1352550D02*
D03*
X1394460Y1374140D02*
D03*
X1193800Y1314450D02*
D03*
X1189990Y1228090D02*
D03*
X1544320Y1239520D02*
D03*
X1377950Y1252220D02*
D03*
X1216660Y1097280D02*
D03*
X1606550Y844550D02*
D03*
X1619250Y800100D02*
D03*
X1588770Y732790D02*
D03*
X1502410Y730250D02*
D03*
X1464310Y789940D02*
D03*
X1074420Y1066800D02*
D03*
X999490Y932180D02*
D03*
X930910Y902970D02*
D03*
X977900Y915670D02*
D03*
X906780Y814070D02*
D03*
X887730Y765810D02*
D03*
X835660Y721360D02*
D03*
X774700Y735330D02*
D03*
X741680Y792480D02*
D03*
X745490Y834390D02*
D03*
X772160Y930910D02*
D03*
X773430Y880110D02*
D03*
X825500Y1309370D02*
D03*
X873760Y1353820D02*
D03*
X755650Y1362710D02*
D03*
X647700Y1539240D02*
D03*
X674370Y1492250D02*
D03*
X671830Y1464310D02*
D03*
X651510Y1416050D02*
D03*
X629920Y1430020D02*
D03*
X600710Y1421130D02*
D03*
X576580Y1356360D02*
D03*
X635000Y1320800D02*
D03*
X676910Y1262380D02*
D03*
X866140Y1266190D02*
D03*
X862330Y1197610D02*
D03*
X805180Y1137920D02*
D03*
X774700Y1163320D02*
D03*
X769620Y1092200D02*
D03*
X737870Y1118870D02*
D03*
X622300Y1230630D02*
D03*
X524510Y1332230D02*
D03*
X554990Y1299210D02*
D03*
X539750Y1315720D02*
D03*
X336550Y1405890D02*
D03*
X262890Y1375410D02*
D03*
X234950Y1305560D02*
D03*
X260350Y1250950D02*
D03*
X318770Y1224280D02*
D03*
X365760Y1250950D02*
D03*
X426720Y1292860D02*
D03*
X502920Y1299210D02*
D03*
X480060Y1436370D02*
D03*
X490220Y1529080D02*
D03*
X480060Y1610360D02*
D03*
X478790Y1744980D02*
D03*
X473710Y1878330D02*
D03*
X478790Y1798320D02*
D03*
X580390Y2071370D02*
D03*
X438150Y1968500D02*
D03*
X478790Y1998980D02*
D03*
X483870Y2071370D02*
D03*
X378460Y1916430D02*
D03*
X320040Y1940560D02*
D03*
X251460Y1976120D02*
D03*
X242570Y2076450D02*
D03*
X314960Y2113280D02*
D03*
X431800Y2072640D02*
D03*
X1452880Y1785620D02*
D03*
X1441450D02*
D03*
X1480820Y924560D02*
D03*
X1191260Y1610360D02*
D03*
X1181100D02*
D03*
Y1601470D02*
D03*
X1165860Y1629410D02*
D03*
X1181100Y1620520D02*
D03*
X1188720Y1596390D02*
D03*
Y1586230D02*
D03*
X1181100Y1591310D02*
D03*
X1182370Y1578610D02*
D03*
X1223010Y1446530D02*
D03*
X1201420D02*
D03*
X1200150Y1430020D02*
D03*
X1223010Y1398270D02*
D03*
X1215390Y1427480D02*
D03*
X1207770Y1423670D02*
D03*
X1196340Y1416050D02*
D03*
X1202690Y1407160D02*
D03*
X1212850Y1398270D02*
D03*
X1201420Y1394460D02*
D03*
X1197610Y1403350D02*
D03*
X1198880Y1385570D02*
D03*
X1191260Y1574800D02*
D03*
X1192530Y1560830D02*
D03*
X1183640Y1569720D02*
D03*
X1188720Y1551940D02*
D03*
X1191260Y1512570D02*
D03*
Y1502410D02*
D03*
X1189990Y1537970D02*
D03*
X1188720Y1525270D02*
D03*
X1182370Y1531620D02*
D03*
Y1518920D02*
D03*
Y1558290D02*
D03*
Y1545590D02*
D03*
Y1504950D02*
D03*
X1164590Y1515110D02*
D03*
X1165860Y1504950D02*
D03*
X1181100Y1431290D02*
D03*
X1187450Y1424940D02*
D03*
X1173480Y1413510D02*
D03*
X1179830Y1404620D02*
D03*
Y1385570D02*
D03*
X1188720D02*
D03*
X1179830Y1394460D02*
D03*
X1170940Y1388110D02*
D03*
Y1404620D02*
D03*
X1163320Y1596390D02*
D03*
X1162050Y1582420D02*
D03*
X1159510Y1623060D02*
D03*
X1162050Y1609090D02*
D03*
Y1562100D02*
D03*
X1159510Y1549400D02*
D03*
X1155700Y1568450D02*
D03*
X1153160Y1555750D02*
D03*
X1151890Y1626870D02*
D03*
X1150620Y1607820D02*
D03*
X1151890Y1596390D02*
D03*
Y1582420D02*
D03*
X1162050Y1536700D02*
D03*
X1164590Y1525270D02*
D03*
X1156970Y1529080D02*
D03*
X1159510Y1511300D02*
D03*
X1155700Y1441450D02*
D03*
X1160780Y1426210D02*
D03*
X1154430Y1540510D02*
D03*
Y1520190D02*
D03*
X1148080Y1433830D02*
D03*
X1139190Y1626870D02*
D03*
Y1426210D02*
D03*
X1129030Y1422400D02*
D03*
X1151890Y1407160D02*
D03*
Y1398270D02*
D03*
Y1417320D02*
D03*
X1130300Y1399540D02*
D03*
X1151890Y1388110D02*
D03*
X1162050D02*
D03*
X1141730Y1397000D02*
D03*
X819150Y2019300D02*
D03*
X810465Y2027985D02*
D03*
D188*
X1188720Y1663700D02*
D03*
X1170940D02*
D03*
X1151890D02*
D03*
X1179830Y1478280D02*
D03*
X1162050D02*
D03*
X1170813Y1469950D02*
D03*
X1178560Y1461770D02*
D03*
X1162050D02*
D03*
X1187450Y1699260D02*
D03*
X1168400Y1700530D02*
D03*
X1151890D02*
D03*
X1187450Y1682750D02*
D03*
X1169670Y1684020D02*
D03*
X1150620D02*
D03*
X641350Y1668780D02*
D03*
X619760D02*
D03*
X629920Y1680210D02*
D03*
X640080Y1690370D02*
D03*
X619760D02*
D03*
D189*
X1784350Y1771650D02*
D03*
X1797050D02*
D03*
D190*
X1790700Y1866900D02*
D03*
X1847850Y1828800D02*
D03*
X1828800Y1790700D02*
D03*
Y1866900D02*
D03*
X1809750Y1828800D02*
D03*
X1752600Y1866900D02*
D03*
X1771650Y1828800D02*
D03*
X1714500Y1866900D02*
D03*
X1733550Y1828800D02*
D03*
X1752600Y1790700D02*
D03*
X1790700D02*
D03*
X1714500D02*
D03*
X1733550Y1752600D02*
D03*
X1771650D02*
D03*
X1562100Y1866900D02*
D03*
X1600200D02*
D03*
X1524000D02*
D03*
X1676400D02*
D03*
X1657350Y1828800D02*
D03*
X1638300Y1866900D02*
D03*
X1619250Y1828800D02*
D03*
X1695450D02*
D03*
X1676400Y1790700D02*
D03*
X1638300D02*
D03*
X1619250Y1752600D02*
D03*
X1543050Y1828800D02*
D03*
X1581150D02*
D03*
X1504950D02*
D03*
X1524000Y1790700D02*
D03*
X1600200D02*
D03*
X1581150Y1752600D02*
D03*
X1562100Y1790700D02*
D03*
X1543050Y1752600D02*
D03*
X1847850D02*
D03*
X1752600Y1714500D02*
D03*
X1562100D02*
D03*
X1504950Y1752600D02*
D03*
X1524000Y1714500D02*
D03*
X1600200D02*
D03*
X1485900Y1866900D02*
D03*
X1447800D02*
D03*
X1371600D02*
D03*
X1409700D02*
D03*
X1466850Y1828800D02*
D03*
X1485900Y1790700D02*
D03*
X1428750Y1828800D02*
D03*
X1409700Y1790700D02*
D03*
X1466850Y1752600D02*
D03*
X1428750D02*
D03*
X1390650Y1828800D02*
D03*
Y1752600D02*
D03*
X1371600Y1790700D02*
D03*
Y1714500D02*
D03*
X1447800D02*
D03*
X1485900D02*
D03*
X1409700D02*
D03*
X1733550Y1676400D02*
D03*
X1771650D02*
D03*
X1714500Y1638300D02*
D03*
X1676400D02*
D03*
X1828800D02*
D03*
X1847850Y1600200D02*
D03*
X1771650D02*
D03*
X1809750D02*
D03*
X1828800Y1562100D02*
D03*
X1847850Y1524000D02*
D03*
X1752600Y1562100D02*
D03*
X1790700D02*
D03*
X1752600Y1638300D02*
D03*
X1733550Y1600200D02*
D03*
X1657350D02*
D03*
X1695450D02*
D03*
X1714500Y1562100D02*
D03*
X1695450Y1524000D02*
D03*
X1638300Y1562100D02*
D03*
X1676400D02*
D03*
X1543050Y1676400D02*
D03*
X1581150D02*
D03*
X1600200Y1638300D02*
D03*
X1638300D02*
D03*
X1524000D02*
D03*
X1562100D02*
D03*
X1466850Y1676400D02*
D03*
X1504950D02*
D03*
X1390650D02*
D03*
X1428750D02*
D03*
X1447800Y1638300D02*
D03*
X1485900D02*
D03*
X1409700D02*
D03*
X1390650Y1600200D02*
D03*
X1581150D02*
D03*
X1619250D02*
D03*
X1543050D02*
D03*
X1562100Y1562100D02*
D03*
X1600200D02*
D03*
X1524000D02*
D03*
X1543050Y1524000D02*
D03*
X1466850Y1600200D02*
D03*
X1504950D02*
D03*
X1428750D02*
D03*
X1409700Y1562100D02*
D03*
X1447800D02*
D03*
X1485900D02*
D03*
X1390650Y1524000D02*
D03*
X1428750D02*
D03*
X1771650D02*
D03*
X1809750D02*
D03*
X1733550D02*
D03*
X1752600Y1485900D02*
D03*
X1828800D02*
D03*
X1790700D02*
D03*
X1619250Y1524000D02*
D03*
X1657350D02*
D03*
X1581150D02*
D03*
X1562100Y1485900D02*
D03*
X1676400D02*
D03*
X1714500D02*
D03*
X1600200D02*
D03*
X1638300D02*
D03*
X1504950Y1524000D02*
D03*
X1485900Y1485900D02*
D03*
X1466850Y1524000D02*
D03*
X1447800Y1485900D02*
D03*
X1524000D02*
D03*
X1409700D02*
D03*
X1371600Y1638300D02*
D03*
Y1562100D02*
D03*
Y1485900D02*
D03*
D191*
X821100Y2540437D02*
D03*
X311983Y2031320D02*
D03*
X2050217D02*
D03*
Y1311320D02*
D03*
X1540510Y2538730D02*
D03*
X311983Y1311320D02*
D03*
X821100Y802203D02*
D03*
X1541100D02*
D03*
D192*
X897194Y2489478D02*
D03*
X803327Y2450597D02*
D03*
X362942Y1955226D02*
D03*
X401823Y2049093D02*
D03*
X1999258Y1955226D02*
D03*
X1960377Y2049093D02*
D03*
X1999258Y1387414D02*
D03*
X1960377Y1293547D02*
D03*
X1464417Y2487771D02*
D03*
X1558283Y2448890D02*
D03*
X401823Y1293547D02*
D03*
X362942Y1387414D02*
D03*
X803327Y892043D02*
D03*
X897194Y853162D02*
D03*
X1558873Y892043D02*
D03*
X1465006Y853162D02*
D03*
D213*
X1376680Y918210D02*
G03*
X1382812Y915670I6132J6132D01*
G01*
X1482710Y955660D02*
G03*
X1490149Y973621I-17960J17960D01*
G01*
X1338761Y938350D02*
G03*
X1356721Y930910I17960J17960D01*
G01*
X1432560Y915670D02*
G03*
X1449904Y922854I0J24528D01*
G01*
X1366674Y928216D02*
G03*
X1360170Y930910I-6504J-6504D01*
G01*
X1003661Y2301240D02*
G03*
X985701Y2293801I0J-25400D01*
G01*
X925469Y2244090D02*
G03*
X943429Y2251530I0J25400D01*
G01*
X846542Y2244090D02*
G03*
X828582Y2236651I0J-25400D01*
G01*
X819331Y2114731D02*
G03*
X826770Y2132691I-17960J17960D01*
G01*
X733699Y2039620D02*
G03*
X751659Y2047059I0J25400D01*
G01*
X688521D02*
G03*
X706481Y2039620I17960J17960D01*
G01*
X665300Y2070280D02*
G03*
X647339Y2077720I-17960J-17960D01*
G01*
X646791D02*
G03*
X628830Y2070280I0J-25400D01*
G01*
X502920Y1944370D02*
G03*
X497840Y1932106I12264J-12264D01*
G01*
X490401Y1574980D02*
G03*
X497840Y1592941I-17960J17960D01*
G01*
X481149Y1565730D02*
G03*
X473710Y1547769I17960J-17960D01*
G01*
Y1521821D02*
G03*
X481149Y1503860I25400J0D01*
G01*
X575310Y1409700D02*
G03*
X578902Y1401028I12264J0D01*
G01*
X921565Y1047843D02*
G03*
X914126Y1065804I-25400J0D01*
G01*
X910038Y985876D02*
G03*
X902598Y967916I17960J-17960D01*
G01*
X947600Y1023439D02*
G03*
X965561Y1016000I17960J17960D01*
G01*
X967740D02*
G03*
X980004Y1010920I12264J12264D01*
G01*
X1239340Y1003481D02*
G03*
X1221379Y1010920I-17960J-17960D01*
G01*
X1268911Y973910D02*
G03*
X1286871Y966470I17960J17960D01*
G01*
X1318080Y959031D02*
G03*
X1300119Y966470I-17960J-17960D01*
G01*
X1301750Y2301240D02*
X1464528D01*
X1366674Y928216D02*
X1376680Y918210D01*
X1356721Y930910D02*
X1360170D01*
X1382812Y915670D02*
X1432560D01*
X1318080Y959031D02*
X1338761Y938350D01*
X1449904Y922854D02*
X1482710Y955660D01*
X819150Y2019300D02*
X820420Y2018030D01*
X810465Y2027985D02*
X819150Y2019300D01*
X800100Y2038350D02*
X810465Y2027985D01*
X771525Y2066925D02*
X800100Y2038350D01*
X771525Y2066925D02*
X819331Y2114731D01*
X1003661Y2301240D02*
X1301750D01*
X943429Y2251530D02*
X985701Y2293801D01*
X846542Y2244090D02*
X925469D01*
X826770Y2234839D02*
X828582Y2236651D01*
X826770Y2132691D02*
Y2234839D01*
X751659Y2047059D02*
X771525Y2066925D01*
X706481Y2039620D02*
X733699D01*
X665300Y2070280D02*
X688521Y2047059D01*
X646791Y2077720D02*
X647339D01*
X502920Y1944370D02*
X628830Y2070280D01*
X497840Y1592941D02*
Y1932106D01*
X481149Y1565730D02*
X490401Y1574980D01*
X473710Y1521821D02*
Y1547769D01*
X481149Y1503860D02*
X575310Y1409700D01*
X578902Y1401028D02*
X914126Y1065804D01*
X921565Y997404D02*
Y1047843D01*
Y997404D02*
X947600Y1023439D01*
X902598Y964828D02*
Y967916D01*
X910038Y985876D02*
X921565Y997404D01*
X965561Y1016000D02*
X967740D01*
X980004Y1010920D02*
X1221379D01*
X1239340Y1003481D02*
X1268911Y973910D01*
X1286871Y966470D02*
X1300119D01*
X1490149Y973621D02*
Y1012386D01*
D214*
X1793431Y1762310D02*
D03*
X1699069Y1696310D02*
D03*
Y1674310D02*
D03*
X1793431Y1674310D02*
D03*
Y1685310D02*
D03*
Y1696310D02*
D03*
Y1707310D02*
D03*
Y1718310D02*
D03*
Y1729310D02*
D03*
Y1740310D02*
D03*
Y1751310D02*
D03*
X1699069Y1762310D02*
D03*
Y1751310D02*
D03*
Y1740310D02*
D03*
Y1729310D02*
D03*
Y1718310D02*
D03*
Y1685310D02*
D03*
Y1707310D02*
D03*
D215*
X1828033Y1751330D02*
D03*
X1827530Y1739900D02*
D03*
Y1728470D02*
D03*
X1667830Y1735456D02*
D03*
X1673916D02*
D03*
X1821947Y1751330D02*
D03*
X1821444Y1739900D02*
D03*
Y1728470D02*
D03*
D216*
X1642110Y1715950D02*
D03*
Y1708150D02*
D03*
D217*
X1656777Y1695785D02*
D03*
X1651777D02*
D03*
Y1690035D02*
D03*
X1646777Y1692910D02*
D03*
X1656777Y1690035D02*
D03*
D218*
X1630680Y1703260D02*
D03*
X1626680Y1695260D02*
D03*
Y1703260D02*
D03*
X1630680Y1699260D02*
D03*
Y1695260D02*
D03*
X1626680Y1699260D02*
D03*
D219*
X1830070Y1677934D02*
D03*
Y1684020D02*
D03*
D220*
X1610360Y1697990D02*
D03*
X1600260D02*
D03*
M02*
