G04*
G04 #@! TF.GenerationSoftware,Altium Limited,Altium Designer,25.8.1 (18)*
G04*
G04 Layer_Physical_Order=4*
G04 Layer_Color=128*
%FSLAX44Y44*%
%MOMM*%
G71*
G04*
G04 #@! TF.SameCoordinates,1712F0CB-3B61-41A3-BC14-C9FE2E182D8B*
G04*
G04*
G04 #@! TF.FilePolarity,Negative*
G04*
G01*
G75*
%ADD147C,1.5240*%
%ADD149C,1.0160*%
%ADD150C,4.8260*%
G04:AMPARAMS|DCode=151|XSize=1.716mm|YSize=3.016mm|CornerRadius=0mm|HoleSize=0mm|Usage=FLASHONLY|Rotation=225.000|XOffset=0mm|YOffset=0mm|HoleType=Round|Shape=Round|*
%AMOVALD151*
21,1,1.3000,1.7160,0.0000,0.0000,315.0*
1,1,1.7160,-0.4596,0.4596*
1,1,1.7160,0.4596,-0.4596*
%
%ADD151OVALD151*%

%ADD152C,1.4160*%
G04:AMPARAMS|DCode=153|XSize=1.716mm|YSize=2.616mm|CornerRadius=0mm|HoleSize=0mm|Usage=FLASHONLY|Rotation=225.000|XOffset=0mm|YOffset=0mm|HoleType=Round|Shape=Round|*
%AMOVALD153*
21,1,0.9000,1.7160,0.0000,0.0000,315.0*
1,1,1.7160,-0.3182,0.3182*
1,1,1.7160,0.3182,-0.3182*
%
%ADD153OVALD153*%

%ADD154C,2.0160*%
%ADD155C,1.8160*%
%ADD156C,1.9160*%
G04:AMPARAMS|DCode=157|XSize=2.324mm|YSize=2.324mm|CornerRadius=0mm|HoleSize=0mm|Usage=FLASHONLY|Rotation=0.000|XOffset=0mm|YOffset=0mm|HoleType=Round|Shape=Relief|Width=0.254mm|Gap=0.254mm|Entries=4|*
%AMTHD157*
7,0,0,2.3240,1.8160,0.2540,45*
%
%ADD157THD157*%
%ADD158C,2.2098*%
%ADD159C,2.1160*%
%ADD160C,9.8160*%
%ADD162C,1.3970*%
G04:AMPARAMS|DCode=163|XSize=2.032mm|YSize=2.032mm|CornerRadius=0mm|HoleSize=0mm|Usage=FLASHONLY|Rotation=0.000|XOffset=0mm|YOffset=0mm|HoleType=Round|Shape=Relief|Width=0.254mm|Gap=0.254mm|Entries=4|*
%AMTHD163*
7,0,0,2.0320,1.5240,0.2540,45*
%
%ADD163THD163*%
G04:AMPARAMS|DCode=164|XSize=2.524mm|YSize=2.524mm|CornerRadius=0mm|HoleSize=0mm|Usage=FLASHONLY|Rotation=0.000|XOffset=0mm|YOffset=0mm|HoleType=Round|Shape=Relief|Width=0.254mm|Gap=0.254mm|Entries=4|*
%AMTHD164*
7,0,0,2.5240,2.0160,0.2540,45*
%
%ADD164THD164*%
G04:AMPARAMS|DCode=165|XSize=2.424mm|YSize=2.424mm|CornerRadius=0mm|HoleSize=0mm|Usage=FLASHONLY|Rotation=0.000|XOffset=0mm|YOffset=0mm|HoleType=Round|Shape=Relief|Width=0.254mm|Gap=0.254mm|Entries=4|*
%AMTHD165*
7,0,0,2.4240,1.9160,0.2540,45*
%
%ADD165THD165*%
G04:AMPARAMS|DCode=166|XSize=2.2352mm|YSize=2.2352mm|CornerRadius=0mm|HoleSize=0mm|Usage=FLASHONLY|Rotation=0.000|XOffset=0mm|YOffset=0mm|HoleType=Round|Shape=Relief|Width=0.254mm|Gap=0.254mm|Entries=4|*
%AMTHD166*
7,0,0,2.2352,1.7272,0.2540,45*
%
%ADD166THD166*%
G04:AMPARAMS|DCode=167|XSize=1.905mm|YSize=1.905mm|CornerRadius=0mm|HoleSize=0mm|Usage=FLASHONLY|Rotation=0.000|XOffset=0mm|YOffset=0mm|HoleType=Round|Shape=Relief|Width=0.254mm|Gap=0.254mm|Entries=4|*
%AMTHD167*
7,0,0,1.9050,1.3970,0.2540,45*
%
%ADD167THD167*%
D147*
X918063Y2456327D02*
D03*
X521771Y1349811D02*
D03*
X509821Y1338580D02*
D03*
X849630Y2280920D02*
D03*
X690880Y1689100D02*
D03*
X1427480Y1040130D02*
D03*
X1531620Y1065530D02*
D03*
X890270Y2400300D02*
D03*
X810260Y1055370D02*
D03*
X1038860Y974090D02*
D03*
X618490Y1602740D02*
D03*
X558800Y1661160D02*
D03*
X647700Y1602930D02*
D03*
X676910Y1604010D02*
D03*
X679450Y1717040D02*
D03*
X593090Y1731004D02*
D03*
X565150Y1750060D02*
D03*
X685800Y1666939D02*
D03*
X514350Y1393190D02*
D03*
X1107440Y2176780D02*
D03*
X1868170Y1648460D02*
D03*
X628650Y1732280D02*
D03*
X1126490Y2176780D02*
D03*
X959597Y1774190D02*
D03*
X1290320Y1447800D02*
D03*
X1245668Y1734596D02*
D03*
X1878330Y1737360D02*
D03*
X1132419Y1719353D02*
D03*
X1130427Y1652188D02*
D03*
X533865Y1541315D02*
D03*
X814070Y2315210D02*
D03*
X1028700Y1678940D02*
D03*
X1210984Y1661160D02*
D03*
X1567180Y2328360D02*
D03*
X836930Y1643380D02*
D03*
X807720Y1614170D02*
D03*
X1162050Y1643380D02*
D03*
X1151193Y1638042D02*
D03*
X1233170Y1686560D02*
D03*
X1223010Y1694550D02*
D03*
X1219238Y1669806D02*
D03*
X1211624Y1690052D02*
D03*
X1052830Y1678940D02*
D03*
X1126523Y1685313D02*
D03*
X1097503Y1725457D02*
D03*
X1106170Y1734820D02*
D03*
X1149418Y1774121D02*
D03*
X652780Y1751330D02*
D03*
X669290Y1743710D02*
D03*
X871220Y2294890D02*
D03*
X848450Y2289900D02*
D03*
X1504950Y2379980D02*
D03*
X1494835Y2393905D02*
D03*
X903785Y1018540D02*
D03*
X896620Y1007110D02*
D03*
X473710Y1483360D02*
D03*
X453390Y1376680D02*
D03*
X632460Y1615440D02*
D03*
X455930Y1365250D02*
D03*
X654050Y1513840D02*
D03*
X465099Y1352271D02*
D03*
X939800Y2038805D02*
D03*
X902970Y2207260D02*
D03*
X800100Y2038350D02*
D03*
X806450Y2000250D02*
D03*
X748030Y2080688D02*
D03*
X698500Y1988820D02*
D03*
X692150Y1729740D02*
D03*
X689610Y1752600D02*
D03*
X725170Y1639570D02*
D03*
X712470Y1600200D02*
D03*
X718820Y1584960D02*
D03*
X1233170Y1673370D02*
D03*
X1074918Y1685372D02*
D03*
X1040130Y953770D02*
D03*
X1567180Y1085850D02*
D03*
X1529080Y2343150D02*
D03*
X783590Y2311400D02*
D03*
X1499870Y2319020D02*
D03*
X1214120Y2240280D02*
D03*
X858520Y2325370D02*
D03*
X515620Y1656080D02*
D03*
X624840Y1508760D02*
D03*
X515620Y1672590D02*
D03*
X891540Y1032510D02*
D03*
X1122680Y986790D02*
D03*
X844550Y2324100D02*
D03*
X1468120Y2338070D02*
D03*
X1323340Y986790D02*
D03*
X927100Y960120D02*
D03*
X902598Y964828D02*
D03*
X1494590Y1074243D02*
D03*
X1490948Y1059180D02*
D03*
X1103984Y1704354D02*
D03*
X1064988Y1680370D02*
D03*
X1060414Y1654809D02*
D03*
X1049739Y1664204D02*
D03*
X1122874Y1519723D02*
D03*
X1078230Y1560830D02*
D03*
X1093470Y1569904D02*
D03*
X1106170Y1581150D02*
D03*
X1117007Y1591673D02*
D03*
X1178560Y1738996D02*
D03*
X1243330Y1783080D02*
D03*
X1220470Y1490980D02*
D03*
X1205859Y1490758D02*
D03*
X1292860Y1807120D02*
D03*
X1277438Y1800677D02*
D03*
X1263650Y1811020D02*
D03*
X1158240Y1728470D02*
D03*
X1159510Y1741170D02*
D03*
X1233126Y1490218D02*
D03*
X841912Y922118D02*
D03*
X868680Y1473200D02*
D03*
X781050Y1485900D02*
D03*
X833959Y1357199D02*
D03*
X831850Y1525270D02*
D03*
X791210Y1517650D02*
D03*
X864870Y1390650D02*
D03*
X866140Y1421130D02*
D03*
X867410Y1436370D02*
D03*
X585470Y1275080D02*
D03*
X748030Y1717040D02*
D03*
X735330Y1548130D02*
D03*
X735926Y1529676D02*
D03*
X679495Y1573575D02*
D03*
X638810Y1784350D02*
D03*
X623570Y1785620D02*
D03*
X895350Y2020570D02*
D03*
X819150Y2062480D02*
D03*
X791210Y2153920D02*
D03*
X607060Y1545590D02*
D03*
X721360Y1653540D02*
D03*
X706120Y1647825D02*
D03*
X595630Y1781810D02*
D03*
X715010Y1628140D02*
D03*
X701040Y1586230D02*
D03*
X699770Y1600200D02*
D03*
X623570Y1630680D02*
D03*
X812800Y961390D02*
D03*
X944880Y969010D02*
D03*
X875030Y2326640D02*
D03*
X1559560Y1003300D02*
D03*
X1513840Y997536D02*
D03*
X1490149Y1012386D02*
D03*
D149*
X279262Y1405815D02*
G03*
X355664Y1221365I32721J-94495D01*
G01*
X279262Y1405815D02*
G03*
X480561Y1671320I-98162J283486D01*
G01*
D02*
G03*
X279262Y1936825I-299461J-17981D01*
G01*
X355664Y2121275D02*
G03*
X279262Y1936825I-43681J-89955D01*
G01*
X355664Y2121275D02*
G03*
X685744Y2166676I131043J269866D01*
G01*
D02*
G03*
X731145Y2496756I-224465J199036D01*
G01*
X915595Y2573158D02*
G03*
X731145Y2496756I-94495J-32721D01*
G01*
X915595Y2573158D02*
G03*
X1181100Y2371859I283486J98162D01*
G01*
X1181100D02*
G03*
X1446605Y2573158I-17981J299461D01*
G01*
X1631055Y2496756D02*
G03*
X1446605Y2573158I-89955J43681D01*
G01*
X1631055Y2496756D02*
G03*
X1676456Y2166676I269866J-131043D01*
G01*
D02*
G03*
X2006536Y2121275I199036J224465D01*
G01*
X2082938Y1936825D02*
G03*
X2006536Y2121275I-32721J94495D01*
G01*
X2082938Y1936825D02*
G03*
X1881639Y1671320I98162J-283486D01*
G01*
D02*
G03*
X2082938Y1405815I299461J17981D01*
G01*
X2006536Y1221365D02*
G03*
X2082938Y1405815I43681J89955D01*
G01*
X2006536Y1221365D02*
G03*
X1676456Y1175964I-131043J-269866D01*
G01*
Y1175964D02*
G03*
X1631055Y845884I224465J-199036D01*
G01*
X1446605Y769482D02*
G03*
X1631055Y845884I94495J32721D01*
G01*
X1446605Y769482D02*
G03*
X1181100Y970781I-283486J-98162D01*
G01*
D02*
G03*
X915595Y769482I17981J-299461D01*
G01*
X731145Y845884D02*
G03*
X915595Y769482I89955J-43681D01*
G01*
X731145Y845884D02*
G03*
X685744Y1175964I-269866J131043D01*
G01*
X685744Y1175964D02*
G03*
X355664Y1221365I-199036J-224465D01*
G01*
D150*
X1535430Y1963420D02*
D03*
X1059180D02*
D03*
Y1351280D02*
D03*
X1535430D02*
D03*
D151*
X774850Y2145014D02*
D03*
X713756Y2083920D02*
D03*
D152*
X756854Y2119947D02*
D03*
X750844Y2113937D02*
D03*
X744833Y2107926D02*
D03*
X738823Y2101916D02*
D03*
X717256Y2099441D02*
D03*
X723266Y2105452D02*
D03*
X729277Y2111462D02*
D03*
X735287Y2117472D02*
D03*
X741298Y2123483D02*
D03*
X747308Y2129493D02*
D03*
X753318Y2135504D02*
D03*
X759329Y2141514D02*
D03*
X732812Y2095906D02*
D03*
X762864Y2125958D02*
D03*
D153*
X745505Y2174359D02*
D03*
X684411Y2113265D02*
D03*
D154*
X645160Y2003660D02*
D03*
X885190Y1681880D02*
D03*
Y1706880D02*
D03*
X959020Y1681680D02*
D03*
Y1706680D02*
D03*
X960120Y1566310D02*
D03*
Y1591310D02*
D03*
D155*
X729152Y1186008D02*
D03*
X1168720Y2327910D02*
D03*
X1188720D02*
D03*
X700868Y1214292D02*
D03*
X715010Y1200150D02*
D03*
D156*
X807515Y1234645D02*
D03*
X789838Y1252322D02*
D03*
X772160Y1270000D02*
D03*
X754482Y1287678D02*
D03*
X736805Y1305355D02*
D03*
X719127Y1323033D02*
D03*
X701449Y1340711D02*
D03*
X683772Y1358388D02*
D03*
X666094Y1376066D02*
D03*
X561510Y1903330D02*
D03*
Y1878330D02*
D03*
X897194Y2489478D02*
D03*
X803327Y2450597D02*
D03*
X362942Y1955226D02*
D03*
X401823Y2049093D02*
D03*
X1999258Y1955226D02*
D03*
X1960377Y2049093D02*
D03*
X1999258Y1387414D02*
D03*
X1960377Y1293547D02*
D03*
X1464417Y2487771D02*
D03*
X1558283Y2448890D02*
D03*
X401823Y1293547D02*
D03*
X362942Y1387414D02*
D03*
X803327Y892043D02*
D03*
X897194Y853162D02*
D03*
X1558873Y892043D02*
D03*
X1465006Y853162D02*
D03*
D157*
X1208720Y2327910D02*
D03*
D158*
X1614170Y1657350D02*
D03*
D159*
X541510Y1919330D02*
D03*
D160*
X821100Y2540437D02*
D03*
X311983Y2031320D02*
D03*
X2050217D02*
D03*
Y1311320D02*
D03*
X1540510Y2538730D02*
D03*
X311983Y1311320D02*
D03*
X821100Y802203D02*
D03*
X1541100D02*
D03*
D162*
X819150Y2019300D02*
D03*
X810465Y2027985D02*
D03*
D163*
X721950Y1669460D02*
D03*
X1893549Y2004714D02*
D03*
X1819910Y1675130D02*
D03*
X1807513Y1768143D02*
D03*
X1832610Y1755907D02*
D03*
X1529080Y2444750D02*
D03*
X1516380Y2359660D02*
D03*
X1845310Y1718310D02*
D03*
X1671320Y1704340D02*
D03*
X1664015Y1744665D02*
D03*
X1630680Y1717040D02*
D03*
X1350190Y2354580D02*
D03*
X1451610Y2330450D02*
D03*
X1277620Y1968500D02*
D03*
X1188720Y2172970D02*
D03*
X1260727Y1744260D02*
D03*
X1186180Y1816100D02*
D03*
X1623060Y1680210D02*
D03*
X1915160Y1325920D02*
D03*
X1543050Y1024890D02*
D03*
X1488440Y1037590D02*
D03*
X1400810Y1083310D02*
D03*
X1380708Y1032292D02*
D03*
X1510030Y974090D02*
D03*
X1247140Y1673860D02*
D03*
X1267460Y1621790D02*
D03*
X1290320Y1473200D02*
D03*
X1234440Y1409700D02*
D03*
X957580Y2316142D02*
D03*
X1027610Y2147390D02*
D03*
X949960Y2171700D02*
D03*
X865277Y2429917D02*
D03*
X905256Y2154936D02*
D03*
X1137420Y1742088D02*
D03*
X1116766Y2011680D02*
D03*
X1101090D02*
D03*
X999490Y1826260D02*
D03*
X1028700Y1695450D02*
D03*
X940240Y1975290D02*
D03*
X820420Y2338070D02*
D03*
X800100Y1972310D02*
D03*
X787400Y1856740D02*
D03*
X424180Y2019300D02*
D03*
X713740Y1910080D02*
D03*
X628650Y1766570D02*
D03*
X586740Y1762760D02*
D03*
X730250Y1690370D02*
D03*
X715010Y1717040D02*
D03*
X793750Y1668780D02*
D03*
X562610Y1717040D02*
D03*
X621030Y1689100D02*
D03*
X636270Y1688120D02*
D03*
X629920Y1672590D02*
D03*
X1117600Y1634413D02*
D03*
X1134319Y1452878D02*
D03*
X792480Y1452880D02*
D03*
X1120140Y1410480D02*
D03*
X948690Y991870D02*
D03*
X896990Y935620D02*
D03*
X863600Y1405890D02*
D03*
X796290Y1393190D02*
D03*
X734060Y1625600D02*
D03*
X542293Y1635760D02*
D03*
X576580Y1631950D02*
D03*
X690880Y1620520D02*
D03*
X647700Y1567180D02*
D03*
X618490Y1566101D02*
D03*
X774700Y1050290D02*
D03*
X711245Y1426165D02*
D03*
X697837Y1522730D02*
D03*
X515620D02*
D03*
X511804Y1409700D02*
D03*
X421788Y1451400D02*
D03*
X398428Y1262380D02*
D03*
D164*
X1228720Y2327910D02*
D03*
X1148720D02*
D03*
X645160Y1978660D02*
D03*
X743294Y1171866D02*
D03*
X686726Y1228434D02*
D03*
D165*
X561510Y1853330D02*
D03*
X648416Y1393744D02*
D03*
D166*
X1733550Y1752600D02*
D03*
Y1676400D02*
D03*
X1828800Y1866900D02*
D03*
X1847850Y1828800D02*
D03*
X1809750D02*
D03*
X1790700Y1790700D02*
D03*
X1752600Y1866900D02*
D03*
X1790700D02*
D03*
X1714500D02*
D03*
X1695450Y1828800D02*
D03*
X1771650D02*
D03*
X1752600Y1790700D02*
D03*
X1733550Y1828800D02*
D03*
X1714500Y1790700D02*
D03*
X1828800D02*
D03*
X1847850Y1752600D02*
D03*
X1771650D02*
D03*
X1600200Y1866900D02*
D03*
X1638300D02*
D03*
X1524000D02*
D03*
X1562100D02*
D03*
X1485900D02*
D03*
X1676400D02*
D03*
X1657350Y1828800D02*
D03*
X1619250D02*
D03*
X1600200Y1790700D02*
D03*
X1638300D02*
D03*
X1676400D02*
D03*
X1581150Y1752600D02*
D03*
X1619250D02*
D03*
X1543050Y1828800D02*
D03*
X1581150D02*
D03*
X1504950D02*
D03*
X1524000Y1790700D02*
D03*
X1562100D02*
D03*
X1543050Y1752600D02*
D03*
X1504950D02*
D03*
X1752600Y1714500D02*
D03*
X1562100D02*
D03*
X1485900D02*
D03*
X1524000D02*
D03*
X1600200D02*
D03*
X1447800Y1866900D02*
D03*
X1409700D02*
D03*
X1466850Y1828800D02*
D03*
X1485900Y1790700D02*
D03*
X1428750Y1828800D02*
D03*
X1409700Y1790700D02*
D03*
X1390650Y1752600D02*
D03*
X1428750D02*
D03*
X1390650Y1828800D02*
D03*
X1371600Y1790700D02*
D03*
Y1866900D02*
D03*
X1466850Y1752600D02*
D03*
X1409700Y1714500D02*
D03*
X1447800D02*
D03*
X1371600D02*
D03*
X1771650Y1676400D02*
D03*
X1714500Y1638300D02*
D03*
X1676400D02*
D03*
X1828800D02*
D03*
X1847850Y1600200D02*
D03*
X1771650D02*
D03*
X1809750D02*
D03*
X1828800Y1562100D02*
D03*
X1847850Y1524000D02*
D03*
X1752600Y1562100D02*
D03*
X1790700D02*
D03*
X1752600Y1638300D02*
D03*
X1733550Y1600200D02*
D03*
X1657350D02*
D03*
X1695450D02*
D03*
X1714500Y1562100D02*
D03*
X1695450Y1524000D02*
D03*
X1676400Y1562100D02*
D03*
X1543050Y1676400D02*
D03*
X1581150D02*
D03*
X1600200Y1638300D02*
D03*
X1638300D02*
D03*
X1524000D02*
D03*
X1562100D02*
D03*
X1466850Y1676400D02*
D03*
X1504950D02*
D03*
X1390650D02*
D03*
X1428750D02*
D03*
X1447800Y1638300D02*
D03*
X1485900D02*
D03*
X1409700D02*
D03*
X1390650Y1600200D02*
D03*
X1581150D02*
D03*
X1619250D02*
D03*
X1543050D02*
D03*
X1600200Y1562100D02*
D03*
X1638300D02*
D03*
X1524000D02*
D03*
X1562100D02*
D03*
X1466850Y1600200D02*
D03*
X1504950D02*
D03*
X1428750D02*
D03*
X1409700Y1562100D02*
D03*
X1447800D02*
D03*
X1485900D02*
D03*
X1390650Y1524000D02*
D03*
X1771650D02*
D03*
X1809750D02*
D03*
X1733550D02*
D03*
X1676400Y1485900D02*
D03*
X1790700D02*
D03*
X1828800D02*
D03*
X1714500D02*
D03*
X1752600D02*
D03*
X1619250Y1524000D02*
D03*
X1657350D02*
D03*
X1543050D02*
D03*
X1581150D02*
D03*
X1600200Y1485900D02*
D03*
X1638300D02*
D03*
X1524000D02*
D03*
X1562100D02*
D03*
X1466850Y1524000D02*
D03*
X1504950D02*
D03*
X1428750D02*
D03*
X1447800Y1485900D02*
D03*
X1485900D02*
D03*
X1409700D02*
D03*
X1371600Y1638300D02*
D03*
Y1562100D02*
D03*
Y1485900D02*
D03*
D167*
X1797050Y1771650D02*
D03*
X1784350D02*
D03*
X1441450Y1785620D02*
D03*
X1452880D02*
D03*
X1480820Y924560D02*
D03*
M02*
