G04*
G04 #@! TF.GenerationSoftware,Altium Limited,Altium Designer,25.8.1 (18)*
G04*
G04 Layer_Physical_Order=2*
G04 Layer_Color=36540*
%FSLAX44Y44*%
%MOMM*%
G71*
G04*
G04 #@! TF.SameCoordinates,1712F0CB-3B61-41A3-BC14-C9FE2E182D8B*
G04*
G04*
G04 #@! TF.FilePolarity,Positive*
G04*
G01*
G75*
%ADD12C,0.5080*%
%ADD15C,0.2540*%
G04:AMPARAMS|DCode=117|XSize=1.3mm|YSize=3.2mm|CornerRadius=0.65mm|HoleSize=0mm|Usage=FLASHONLY|Rotation=225.000|XOffset=0mm|YOffset=0mm|HoleType=Round|Shape=RoundedRectangle|*
%AMROUNDEDRECTD117*
21,1,1.3000,1.9000,0,0,225.0*
21,1,0.0000,3.2000,0,0,225.0*
1,1,1.3000,-0.6718,0.6718*
1,1,1.3000,-0.6718,0.6718*
1,1,1.3000,0.6718,-0.6718*
1,1,1.3000,0.6718,-0.6718*
%
%ADD117ROUNDEDRECTD117*%
%ADD118C,0.7000*%
G04:AMPARAMS|DCode=119|XSize=0.7mm|YSize=1.6mm|CornerRadius=0.35mm|HoleSize=0mm|Usage=FLASHONLY|Rotation=225.000|XOffset=0mm|YOffset=0mm|HoleType=Round|Shape=RoundedRectangle|*
%AMROUNDEDRECTD119*
21,1,0.7000,0.9000,0,0,225.0*
21,1,0.0000,1.6000,0,0,225.0*
1,1,0.7000,-0.3182,0.3182*
1,1,0.7000,-0.3182,0.3182*
1,1,0.7000,0.3182,-0.3182*
1,1,0.7000,0.3182,-0.3182*
%
%ADD119ROUNDEDRECTD119*%
%ADD120P,0.9900X4X270.0*%
%ADD121C,1.5500*%
%ADD122C,1.3000*%
%ADD123R,1.4000X1.4000*%
%ADD124C,1.4000*%
%ADD125P,1.8385X4X180.0*%
%ADD127P,1.9799X4X360.0*%
%ADD128R,1.3000X1.3000*%
%ADD129R,1.5500X1.5500*%
%ADD130C,1.1000*%
%ADD136C,0.7620*%
%ADD141C,5.0800*%
%ADD142C,0.7620*%
%ADD143C,11.0000*%
%ADD144C,1.7780*%
%ADD145C,1.2700*%
%ADD146C,0.5080*%
%ADD147C,1.5240*%
%ADD148C,0.5334*%
D12*
X762978Y2125958D02*
X768035Y2120900D01*
X762864Y2125958D02*
X762978D01*
D15*
X1229142Y1783080D02*
G03*
X1218045Y1778481I0J-15688D01*
G01*
X1237187Y1681642D02*
G03*
X1234984Y1692645I-4017J4918D01*
G01*
X1237104Y1681560D02*
G03*
X1236592Y1680823I1796J-1796D01*
G01*
X1233828Y1694768D02*
G03*
X1234570Y1693060I2539J88D01*
G01*
X1232391Y1736185D02*
G03*
X1232392Y1736165I2539J68D01*
G01*
X1211002Y1696682D02*
G03*
X1211442Y1696676I258J2527D01*
G01*
X1085504Y1714152D02*
G03*
X1078230Y1696359I18126J-17794D01*
G01*
X1096427Y1714603D02*
G03*
X1093470Y1702709I22443J-11894D01*
G01*
X1202709Y1690109D02*
G03*
X1202690Y1689940I7473J-910D01*
G01*
X1203275Y1698190D02*
G03*
X1201133Y1696031I6907J-8992D01*
G01*
X1198962Y1518733D02*
G03*
X1200038Y1512341I33464J2344D01*
G01*
X1202690Y1521077D02*
G03*
X1211399Y1500050I29736J-0D01*
G01*
X1211002Y1696682D02*
G03*
X1202709Y1690109I-820J-7483D01*
G01*
X1123345Y1676071D02*
G03*
X1123347Y1676076I-2386J872D01*
G01*
D02*
G03*
X1123373Y1676149I-2384J876D01*
G01*
X1122216Y1650809D02*
G03*
X1122080Y1651392I-2524J-284D01*
G01*
X1121747Y1654432D02*
G03*
X1121758Y1655052I-2515J356D01*
G01*
X1121747Y1654432D02*
G03*
X1122080Y1651392I6293J-849D01*
G01*
X1121479Y1657408D02*
G03*
X1121644Y1655948I6350J-21D01*
G01*
X1121479Y1657495D02*
G03*
X1121466Y1657757I-2540J8D01*
G01*
X1123251Y1675778D02*
G03*
X1123248Y1675765I11970J-3029D01*
G01*
X1123331Y1676033D02*
G03*
X1123251Y1675778I2379J-889D01*
G01*
X1123248Y1675765D02*
G03*
X1123246Y1675758I11973J-3016D01*
G01*
X1121693Y1655652D02*
G03*
X1121644Y1655948I-2525J-273D01*
G01*
X1123246Y1675758D02*
G03*
X1122874Y1672749I11975J-3009D01*
G01*
X1122859Y1672478D02*
G03*
X1122874Y1672749I-2526J271D01*
G01*
X1121446Y1659297D02*
G03*
X1121447Y1657938I6314J-677D01*
G01*
X1123177Y1631376D02*
G03*
X1123913Y1635094I-5577J3037D01*
G01*
X1123177Y1631376D02*
G03*
X1122874Y1630184I2237J-1203D01*
G01*
Y1594552D02*
G03*
X1123008Y1593747I2540J11D01*
G01*
X1123356Y1591621D02*
G03*
X1123008Y1593747I-6350J52D01*
G01*
X1122874Y1519733D02*
G03*
X1122874Y1519731I2540J-17D01*
G01*
X1124446Y1758176D02*
G03*
X1117007Y1740215I17960J-17960D01*
G01*
X1115372Y1640359D02*
G03*
X1117007Y1642721I-905J2373D01*
G01*
X1115372Y1640359D02*
G03*
X1115367Y1628468I2228J-5946D01*
G01*
X1117007Y1626105D02*
G03*
X1115367Y1628468I-2540J-11D01*
G01*
X1237338Y1751230D02*
G03*
X1237078Y1750922I1804J-1789D01*
G01*
D02*
G03*
X1232390Y1736219I20712J-14703D01*
G01*
X1239881Y1811020D02*
G03*
X1221920Y1803580I0J-25400D01*
G01*
X1240968Y1800677D02*
G03*
X1223008Y1793238I0J-25400D01*
G01*
X1229142Y1783080D02*
X1243330D01*
X1178560Y1738996D02*
X1218045Y1778481D01*
X407670Y1395730D02*
Y1465580D01*
X406182Y1883628D02*
Y1885732D01*
X559383Y2038933D01*
X896620Y2302510D02*
Y2373630D01*
X916940Y2393950D01*
Y2457450D02*
X918063Y2456327D01*
X812800Y2264410D02*
X858520D01*
X559383Y2038933D02*
X587323D01*
X812800Y2264410D01*
X916940Y2393950D02*
Y2457450D01*
X858520Y2264410D02*
X896620Y2302510D01*
X407670Y1395730D02*
X453589Y1349811D01*
X462469Y1345921D02*
X467729D01*
X471449Y1349811D02*
X521771D01*
X458749Y1349641D02*
Y1349811D01*
Y1349641D02*
X462469Y1345921D01*
X467729D02*
X471449Y1349641D01*
Y1349811D01*
X453589D02*
X458749D01*
X407670Y1465580D02*
X496570Y1554480D01*
X406182Y1883628D02*
X496570Y1793240D01*
Y1554480D02*
Y1793240D01*
X396240Y1385570D02*
X443230Y1338580D01*
X509821D01*
X396240Y1385570D02*
Y1468120D01*
X390942Y1889978D02*
Y1892082D01*
X541603Y2042743D01*
X584873D01*
X478790Y1550670D02*
Y1592580D01*
X396240Y1468120D02*
X478790Y1550670D01*
X471170Y1772920D02*
Y1809750D01*
X390942Y1889978D02*
X471170Y1809750D01*
Y1772920D02*
X492760Y1751330D01*
X478790Y1592580D02*
X492760Y1606550D01*
X584873Y2042743D02*
X822960Y2280830D01*
X849540D02*
X849630Y2280920D01*
X822960Y2280830D02*
X849540D01*
X492760Y1606550D02*
Y1751330D01*
X814070Y2315210D02*
X815340Y2313940D01*
X836930Y1643380D02*
Y1653540D01*
X765369Y1656521D02*
X807720Y1614170D01*
X1231174Y1689368D02*
X1233170Y1686560D01*
X1229360Y1697180D02*
X1230017Y1692224D01*
X1233170Y1673370D02*
X1236592Y1680823D01*
X1237104Y1681560D02*
X1237187Y1681642D01*
X1230017Y1692224D02*
X1231174Y1689368D01*
X1234570Y1693060D02*
X1234984Y1692645D01*
X1220380Y1700900D02*
X1225640D01*
X1229360Y1697180D01*
X1232392Y1736165D02*
X1233828Y1694768D01*
X1211442Y1696676D02*
X1213546D01*
X1232390Y1736219D02*
X1232391Y1736185D01*
X1210462Y1700692D02*
X1211317D01*
X1213546Y1696676D02*
X1223010Y1694550D01*
X1211317Y1700692D02*
X1220380Y1700900D01*
X1225332Y1677226D02*
X1226820Y1675738D01*
X1211624Y1690052D02*
X1225332Y1677226D01*
X1226820Y1496524D02*
Y1675738D01*
X1123530Y1676621D02*
X1125551Y1678642D01*
Y1684341D02*
X1126523Y1685313D01*
X1125551Y1678642D02*
Y1684341D01*
X1097189Y1716553D02*
X1097503Y1725457D01*
X1096427Y1714603D02*
X1097189Y1716553D01*
X1091153Y1728087D02*
X1094873Y1731807D01*
X1106170Y1734820D01*
X1085504Y1714152D02*
X1091153Y1728087D01*
X1148447Y1773150D02*
X1149418Y1774121D01*
X1124446Y1758176D02*
X1130480Y1764211D01*
X1137920Y1771650D01*
X1140528D02*
X1142028Y1773150D01*
X1137920Y1771650D02*
X1140528D01*
X1142028Y1773150D02*
X1148447D01*
X669290Y1590040D02*
Y1743710D01*
X661670Y1582420D02*
X669290Y1590040D01*
X896620Y1007110D02*
Y1021256D01*
X897890Y1022526D01*
Y1488440D01*
X836781Y1549549D02*
X897890Y1488440D01*
X788213Y1549549D02*
X836781D01*
X737562Y1600200D02*
X788213Y1549549D01*
X712470Y1600200D02*
X737562D01*
X903785Y1018540D02*
Y1573767D01*
X877085Y1600467D02*
X903785Y1573767D01*
X715010Y1628140D02*
X742683Y1600467D01*
X877085D01*
X587920Y1781810D02*
X595630D01*
X535940Y1729830D02*
X587920Y1781810D01*
X535940Y1652270D02*
Y1729830D01*
X502920Y1619250D02*
X535940Y1652270D01*
X502920Y1512570D02*
Y1619250D01*
X473710Y1483360D02*
X502920Y1512570D01*
X632460Y1595120D02*
Y1615440D01*
X628650Y1591310D02*
X632460Y1595120D01*
X604520Y1591310D02*
X628650D01*
X453390Y1440180D02*
X604520Y1591310D01*
X453390Y1376680D02*
Y1440180D01*
X604520Y1582420D02*
X661670D01*
X469900Y1447800D02*
X604520Y1582420D01*
X457200Y1381850D02*
X459740Y1379310D01*
X457200Y1424940D02*
X469900Y1437640D01*
X457200Y1381850D02*
Y1424940D01*
X459740Y1374050D02*
Y1379310D01*
X455930Y1370330D02*
X456020D01*
X455930Y1365250D02*
Y1370330D01*
X456020D02*
X459740Y1374050D01*
X469900Y1437640D02*
Y1447800D01*
X486400Y1373573D02*
Y1455410D01*
X523240Y1492250D01*
X643890D01*
X465099Y1352271D02*
X486400Y1373573D01*
X643890Y1492250D02*
X654050Y1502410D01*
Y1513840D01*
X765369Y1656521D02*
Y1664231D01*
X737870Y1752600D02*
X836930Y1653540D01*
X689610Y1752600D02*
X737870D01*
X823460Y2011270D02*
X827180Y2014990D01*
Y2020250D01*
X826860Y2020570D02*
X827180Y2020250D01*
X806450Y2000250D02*
X817835Y2011635D01*
X826860Y2020570D02*
X895350D01*
X817835Y2011635D02*
X818200Y2011270D01*
Y2011270D02*
X823460D01*
X692150Y1729740D02*
X723534Y1698356D01*
X1093470Y1569904D02*
Y1702709D01*
X1206525Y1700692D02*
X1210462D01*
X1203275Y1698190D02*
X1206525Y1700692D01*
X1198880Y1519903D02*
X1198962Y1518733D01*
X1198880Y1519903D02*
Y1691995D01*
X1198880Y1693047D01*
X1201133Y1696031D01*
X1202690Y1689940D02*
X1202690Y1521077D01*
X1200038Y1512341D02*
X1205859Y1490758D01*
X1226820Y1496524D02*
X1227564Y1495780D01*
X1233126Y1490218D01*
X515530Y1656170D02*
X515620Y1656080D01*
X515530Y1656170D02*
Y1663700D01*
X500380Y1678850D02*
X515530Y1663700D01*
X607060Y1531620D02*
X624532Y1514148D01*
Y1509068D02*
Y1514148D01*
Y1509068D02*
X624840Y1508760D01*
X504190Y1684020D02*
X515620Y1672590D01*
X841912Y982882D02*
X891540Y1032510D01*
X1122680Y986790D02*
X1323340D01*
X1103984Y1704354D02*
X1106170Y1697156D01*
X1081268Y1682742D02*
Y1688003D01*
X1106170Y1581150D02*
Y1697156D01*
X1078230Y1560830D02*
X1081268Y1682742D01*
X1078230Y1696359D02*
X1081268Y1688003D01*
X1123373Y1676149D02*
X1123530Y1676621D01*
X1122216Y1650809D02*
X1122218Y1650797D01*
X1121747Y1654432D02*
X1121747Y1654432D01*
X1121757Y1655061D02*
X1121758Y1655052D01*
X1122218Y1650797D02*
X1123913Y1635094D01*
X1121693Y1655652D02*
X1121757Y1655061D01*
X1123331Y1676033D02*
X1123345Y1676071D01*
X1121479Y1657408D02*
X1121479Y1657495D01*
X1121464Y1657773D02*
X1121466Y1657757D01*
X1121447Y1657938D02*
X1121464Y1657773D01*
X1121446Y1659297D02*
X1122859Y1672478D01*
X1122874Y1594552D02*
Y1630184D01*
Y1519733D02*
X1123356Y1591621D01*
X1122874Y1519723D02*
Y1519731D01*
X1117007Y1642721D02*
Y1740215D01*
Y1591673D02*
Y1626105D01*
X1211400Y1500051D02*
X1220470Y1490980D01*
X1281946Y1796206D02*
X1292860Y1807120D01*
X1237338Y1751230D02*
X1281946Y1796206D01*
X1240968Y1800677D02*
X1277438D01*
X1239881Y1811020D02*
X1263650D01*
X1159510Y1741170D02*
X1221920Y1803580D01*
X1158240Y1728470D02*
X1223008Y1793238D01*
X841912Y922118D02*
Y982882D01*
X855980Y1485900D02*
X868680Y1473200D01*
X781050Y1485900D02*
X855980D01*
X799793Y1323033D02*
X833959Y1357199D01*
X719127Y1323033D02*
X799793D01*
X864870Y1362710D02*
Y1390650D01*
X772160Y1270000D02*
X864870Y1362710D01*
X723313Y1305355D02*
X736805D01*
X656554Y1372115D02*
X723313Y1305355D01*
X652744Y1370536D02*
X735603Y1287678D01*
X754482D01*
X652744Y1370536D02*
Y1384580D01*
X683772Y1358388D02*
X706945Y1381562D01*
X666094Y1376066D02*
X696856Y1406828D01*
X764232Y1525270D02*
X831850D01*
X690880Y1451918D02*
X764232Y1525270D01*
X652744Y1384580D02*
X690880Y1422716D01*
Y1451918D01*
X656554Y1372115D02*
Y1383002D01*
X791202Y1517650D02*
X791210D01*
X656554Y1383002D02*
X791202Y1517650D01*
X837868Y1406828D02*
X867410Y1436370D01*
X696856Y1406828D02*
X837868D01*
X826572Y1381562D02*
X866140Y1421130D01*
X706945Y1381562D02*
X826572D01*
X723534Y1698356D02*
X731244D01*
X765369Y1664231D01*
X615950Y1275080D02*
X803910Y1087120D01*
X585470Y1275080D02*
X615950D01*
X803910Y1046570D02*
Y1087120D01*
X751380Y2160772D02*
X793338D01*
X717011Y2160772D02*
X751380D01*
X649971Y2093731D02*
X717011Y2160772D01*
X751380D02*
X751380Y2160772D01*
X697998Y2094382D02*
X700257Y2096641D01*
X649971Y2092691D02*
Y2093731D01*
X680410Y2103336D02*
X695667D01*
X697998Y2086893D02*
Y2094382D01*
X582930Y2025650D02*
X649971Y2092691D01*
X700257Y2096641D02*
Y2098745D01*
X695667Y2103336D02*
X700257Y2098745D01*
X675819Y2107926D02*
X680410Y2103336D01*
X671556Y2107926D02*
X675819D01*
X697998Y2086893D02*
X716729Y2068163D01*
X724218D01*
X504190Y1940560D02*
X671556Y2107926D01*
X724218Y2068163D02*
X732842Y2076787D01*
X797560Y2147661D02*
X799497Y2145724D01*
Y2125287D02*
Y2145724D01*
X750873Y2113907D02*
X793197D01*
X797560Y2118270D02*
Y2123350D01*
Y2147661D02*
Y2156550D01*
X793197Y2113907D02*
X797560Y2118270D01*
Y2123350D02*
X799497Y2125287D01*
X793338Y2160772D02*
X797560Y2156550D01*
X689700Y1563370D02*
X733842D01*
X735330Y1548130D02*
Y1561882D01*
X733842Y1563370D02*
X735330Y1561882D01*
X679495Y1573575D02*
X689700Y1563370D01*
X732842Y2076787D02*
Y2087393D01*
X750844Y2113937D02*
X750873Y2113907D01*
X732842Y2087393D02*
X744863Y2099414D01*
X500380Y1678850D02*
Y1808480D01*
X560070Y2025650D02*
X582930D01*
X422692Y1886168D02*
Y1888272D01*
X560070Y2025650D01*
X422692Y1886168D02*
X500380Y1808480D01*
X607060Y1531620D02*
Y1545590D01*
X744863Y2099414D02*
Y2107897D01*
X504190Y1684020D02*
Y1940560D01*
X744833Y2107926D02*
X744863Y2107897D01*
X812800Y961390D02*
Y1037680D01*
X803910Y1046570D02*
X812800Y1037680D01*
D117*
X774850Y2145014D02*
D03*
X713756Y2083920D02*
D03*
D118*
X756854Y2119947D02*
D03*
X750844Y2113937D02*
D03*
X744833Y2107926D02*
D03*
X738823Y2101916D02*
D03*
X717256Y2099441D02*
D03*
X723266Y2105452D02*
D03*
X729277Y2111462D02*
D03*
X735287Y2117472D02*
D03*
X741298Y2123483D02*
D03*
X747308Y2129493D02*
D03*
X753318Y2135504D02*
D03*
X759329Y2141514D02*
D03*
X732812Y2095906D02*
D03*
X762864Y2125958D02*
D03*
X726802Y2089895D02*
D03*
D119*
X745505Y2174359D02*
D03*
X684411Y2113265D02*
D03*
D120*
X768875Y2131968D02*
D03*
D121*
X1228720Y2327910D02*
D03*
X1148720D02*
D03*
X645160Y1978660D02*
D03*
X743294Y1171866D02*
D03*
X686726Y1228434D02*
D03*
X885190Y1681880D02*
D03*
X959020Y1681680D02*
D03*
X960120Y1566310D02*
D03*
D122*
X1208720Y2327910D02*
D03*
X1188720D02*
D03*
X700868Y1214292D02*
D03*
X715010Y1200150D02*
D03*
D123*
X561510Y1853330D02*
D03*
D124*
X648416Y1393744D02*
D03*
X789838Y1252322D02*
D03*
X772160Y1270000D02*
D03*
X754482Y1287678D02*
D03*
X736805Y1305355D02*
D03*
X719127Y1323033D02*
D03*
X701449Y1340711D02*
D03*
X683772Y1358388D02*
D03*
X666094Y1376066D02*
D03*
X561510Y1903330D02*
D03*
Y1878330D02*
D03*
D125*
X729152Y1186008D02*
D03*
D127*
X807515Y1234645D02*
D03*
D128*
X1168720Y2327910D02*
D03*
D129*
X645160Y2003660D02*
D03*
X885190Y1706880D02*
D03*
X959020Y1706680D02*
D03*
X960120Y1591310D02*
D03*
D130*
X541510Y1919330D02*
D03*
D136*
X1824407Y1293547D02*
X1960377D01*
X1783080Y1252220D02*
X1824407Y1293547D01*
X1761490Y1252220D02*
X1783080D01*
X1744980Y1235710D02*
X1761490Y1252220D01*
X1713230Y1235710D02*
X1744980D01*
X1638300Y1160780D02*
X1713230Y1235710D01*
X1630680Y1160780D02*
X1638300D01*
X1623060Y1153160D02*
X1630680Y1160780D01*
X1623060Y1122680D02*
Y1153160D01*
X1605280Y1104900D02*
X1623060Y1122680D01*
X1605280Y1079500D02*
Y1104900D01*
X1592580Y1066800D02*
X1605280Y1079500D01*
X1592580Y1035050D02*
Y1066800D01*
X1588770Y1031240D02*
X1592580Y1035050D01*
X1588770Y1007764D02*
Y1031240D01*
X1584306Y1003300D02*
X1588770Y1007764D01*
X1559560Y1003300D02*
X1584306D01*
X848360Y2440644D02*
X897194Y2489478D01*
X848360Y2388578D02*
Y2440644D01*
Y2388578D02*
X858520Y2378418D01*
Y2325370D02*
Y2378418D01*
X717401Y2050059D02*
X748030Y2080688D01*
X1499870Y2319020D02*
X1586230D01*
X850900Y2302510D02*
X875030Y2326640D01*
X1465006Y853162D02*
X1490395Y878551D01*
Y974091D02*
X1513840Y997536D01*
X1490395Y878551D02*
Y974091D01*
X887072Y913130D02*
X927100Y953158D01*
Y960120D01*
X787163Y1214292D02*
X807515Y1234645D01*
X700868Y1214292D02*
X787163D01*
X613410Y1262380D02*
X751840Y1123950D01*
X427355Y1279525D02*
X444500Y1262380D01*
X613410D01*
X751840Y1089660D02*
Y1123950D01*
X589850Y1931670D02*
X806450D01*
X895350Y2020570D01*
X387853Y1286007D02*
Y1306896D01*
X389646Y1308690D02*
Y1333325D01*
X387853Y1306896D02*
X389646Y1308690D01*
X561510Y1878330D02*
X638810Y1801030D01*
Y1784350D02*
Y1801030D01*
X561510Y1903330D02*
X589850Y1931670D01*
X684896Y2029503D02*
X705453Y2050059D01*
X684896Y2024216D02*
Y2029503D01*
X664340Y2003660D02*
X684896Y2024216D01*
X645160Y2003660D02*
X664340D01*
X705453Y2050059D02*
X717401D01*
X766238Y2062480D02*
X819150D01*
X748030Y2080688D02*
X766238Y2062480D01*
X791210Y2145031D02*
Y2153920D01*
Y2145031D02*
X793147Y2143093D01*
Y2127917D02*
Y2143093D01*
X786130Y2120900D02*
X793147Y2127917D01*
X768035Y2120900D02*
X786130D01*
X746760Y2213610D02*
Y2238465D01*
X595630Y2100580D02*
X633730D01*
X746760Y2213610D01*
X544143Y2049093D02*
X595630Y2100580D01*
X401823Y2049093D02*
X544143D01*
X775970Y2267675D02*
Y2298046D01*
X746760Y2238465D02*
X775970Y2267675D01*
Y2298046D02*
X780434Y2302510D01*
X751840Y1089660D02*
X800100Y1041400D01*
Y917594D02*
X804564Y913130D01*
X800100Y917594D02*
Y1041400D01*
X804564Y913130D02*
X887072D01*
X878558Y892043D02*
X935990Y949475D01*
X803327Y892043D02*
X878558D01*
X394335Y1279525D02*
X427355D01*
X387853Y1286007D02*
X394335Y1279525D01*
X362942Y1360029D02*
X389646Y1333325D01*
X362942Y1360029D02*
Y1387414D01*
X935990Y949475D02*
Y960120D01*
X944880Y969010D01*
X1999258Y1955226D02*
Y1983393D01*
X1974117Y2008533D02*
X1999258Y1983393D01*
X1974117Y2008533D02*
Y2034487D01*
X1980584Y2040953D01*
Y2066906D01*
X1976120Y2071370D02*
X1980584Y2066906D01*
X1775460Y2071370D02*
X1976120D01*
X1742440Y2104390D02*
X1775460Y2071370D01*
X1714500Y2104390D02*
X1742440D01*
X1630680Y2188210D02*
X1714500Y2104390D01*
X1630680Y2188210D02*
Y2200665D01*
X1593850Y2237495D02*
X1630680Y2200665D01*
X1593850Y2237495D02*
Y2311400D01*
X1586230Y2319020D02*
X1593850Y2311400D01*
X780434Y2302510D02*
X850900D01*
D141*
X1535430Y1963420D02*
D03*
X1059180D02*
D03*
Y1351280D02*
D03*
X1535430D02*
D03*
D142*
X721950Y1669460D02*
D03*
X1893549Y2004714D02*
D03*
X1819910Y1675130D02*
D03*
X1807513Y1768143D02*
D03*
X1832610Y1755907D02*
D03*
X1529080Y2444750D02*
D03*
X1516380Y2359660D02*
D03*
X1845310Y1718310D02*
D03*
X1671320Y1704340D02*
D03*
X1664015Y1744665D02*
D03*
X1630680Y1717040D02*
D03*
X1350190Y2354580D02*
D03*
X1451610Y2330450D02*
D03*
X1277620Y1968500D02*
D03*
X1188720Y2172970D02*
D03*
X1260727Y1744260D02*
D03*
X1186180Y1816100D02*
D03*
X1623060Y1680210D02*
D03*
X1915160Y1325920D02*
D03*
X1543050Y1024890D02*
D03*
X1488440Y1037590D02*
D03*
X1400810Y1083310D02*
D03*
X1380708Y1032292D02*
D03*
X1510030Y974090D02*
D03*
X1247140Y1673860D02*
D03*
X1267460Y1621790D02*
D03*
X1290320Y1473200D02*
D03*
X1234440Y1409700D02*
D03*
X957580Y2316142D02*
D03*
X1027610Y2147390D02*
D03*
X949960Y2171700D02*
D03*
X865277Y2429917D02*
D03*
X905256Y2154936D02*
D03*
X1137420Y1742088D02*
D03*
X1116766Y2011680D02*
D03*
X1101090D02*
D03*
X999490Y1826260D02*
D03*
X1028700Y1695450D02*
D03*
X940240Y1975290D02*
D03*
X820420Y2338070D02*
D03*
X800100Y1972310D02*
D03*
X787400Y1856740D02*
D03*
X424180Y2019300D02*
D03*
X713740Y1910080D02*
D03*
X628650Y1766570D02*
D03*
X586740Y1762760D02*
D03*
X730250Y1690370D02*
D03*
X715010Y1717040D02*
D03*
X793750Y1668780D02*
D03*
X562610Y1717040D02*
D03*
X621030Y1689100D02*
D03*
X636270Y1688120D02*
D03*
X629920Y1672590D02*
D03*
X1117600Y1634413D02*
D03*
X1134319Y1452878D02*
D03*
X792480Y1452880D02*
D03*
X1120140Y1410480D02*
D03*
X948690Y991870D02*
D03*
X896990Y935620D02*
D03*
X863600Y1405890D02*
D03*
X796290Y1393190D02*
D03*
X734060Y1625600D02*
D03*
X542293Y1635760D02*
D03*
X576580Y1631950D02*
D03*
X690880Y1620520D02*
D03*
X647700Y1567180D02*
D03*
X618490Y1566101D02*
D03*
X774700Y1050290D02*
D03*
X711245Y1426165D02*
D03*
X697837Y1522730D02*
D03*
X515620D02*
D03*
X511804Y1409700D02*
D03*
X421788Y1451400D02*
D03*
X398428Y1262380D02*
D03*
X918063Y2456327D02*
D03*
X521771Y1349811D02*
D03*
X509821Y1338580D02*
D03*
X849630Y2280920D02*
D03*
X690880Y1689100D02*
D03*
X1427480Y1040130D02*
D03*
X1531620Y1065530D02*
D03*
X890270Y2400300D02*
D03*
X810260Y1055370D02*
D03*
X1038860Y974090D02*
D03*
X618490Y1602740D02*
D03*
X558800Y1661160D02*
D03*
X647700Y1602930D02*
D03*
X676910Y1604010D02*
D03*
X679450Y1717040D02*
D03*
X593090Y1731004D02*
D03*
X565150Y1750060D02*
D03*
X685800Y1666939D02*
D03*
X514350Y1393190D02*
D03*
X1107440Y2176780D02*
D03*
X1868170Y1648460D02*
D03*
X628650Y1732280D02*
D03*
X1126490Y2176780D02*
D03*
X959597Y1774190D02*
D03*
X1290320Y1447800D02*
D03*
X1245668Y1734596D02*
D03*
X1878330Y1737360D02*
D03*
X1132419Y1719353D02*
D03*
X1130427Y1652188D02*
D03*
X533865Y1541315D02*
D03*
X814070Y2315210D02*
D03*
X1028700Y1678940D02*
D03*
X1210984Y1661160D02*
D03*
X1567180Y2328360D02*
D03*
X836930Y1643380D02*
D03*
X807720Y1614170D02*
D03*
X1162050Y1643380D02*
D03*
X1151193Y1638042D02*
D03*
X1233170Y1686560D02*
D03*
X1223010Y1694550D02*
D03*
X1219238Y1669806D02*
D03*
X1211624Y1690052D02*
D03*
X1052830Y1678940D02*
D03*
X1126523Y1685313D02*
D03*
X1097503Y1725457D02*
D03*
X1106170Y1734820D02*
D03*
X1149418Y1774121D02*
D03*
X652780Y1751330D02*
D03*
X669290Y1743710D02*
D03*
X871220Y2294890D02*
D03*
X848450Y2289900D02*
D03*
X1504950Y2379980D02*
D03*
X1494835Y2393905D02*
D03*
X903785Y1018540D02*
D03*
X896620Y1007110D02*
D03*
X473710Y1483360D02*
D03*
X453390Y1376680D02*
D03*
X632460Y1615440D02*
D03*
X455930Y1365250D02*
D03*
X654050Y1513840D02*
D03*
X465099Y1352271D02*
D03*
X939800Y2038805D02*
D03*
X902970Y2207260D02*
D03*
X800100Y2038350D02*
D03*
X806450Y2000250D02*
D03*
X748030Y2080688D02*
D03*
X698500Y1988820D02*
D03*
X692150Y1729740D02*
D03*
X689610Y1752600D02*
D03*
X725170Y1639570D02*
D03*
X712470Y1600200D02*
D03*
X718820Y1584960D02*
D03*
X1233170Y1673370D02*
D03*
X1074918Y1685372D02*
D03*
X1040130Y953770D02*
D03*
X1567180Y1085850D02*
D03*
X1529080Y2343150D02*
D03*
X783590Y2311400D02*
D03*
X1499870Y2319020D02*
D03*
X1214120Y2240280D02*
D03*
X858520Y2325370D02*
D03*
X515620Y1656080D02*
D03*
X624840Y1508760D02*
D03*
X515620Y1672590D02*
D03*
X891540Y1032510D02*
D03*
X1122680Y986790D02*
D03*
X844550Y2324100D02*
D03*
X1468120Y2338070D02*
D03*
X1323340Y986790D02*
D03*
X927100Y960120D02*
D03*
X902598Y964828D02*
D03*
X1494590Y1074243D02*
D03*
X1490948Y1059180D02*
D03*
X1103984Y1704354D02*
D03*
X1064988Y1680370D02*
D03*
X1060414Y1654809D02*
D03*
X1049739Y1664204D02*
D03*
X1122874Y1519723D02*
D03*
X1078230Y1560830D02*
D03*
X1093470Y1569904D02*
D03*
X1106170Y1581150D02*
D03*
X1117007Y1591673D02*
D03*
X1178560Y1738996D02*
D03*
X1243330Y1783080D02*
D03*
X1220470Y1490980D02*
D03*
X1205859Y1490758D02*
D03*
X1292860Y1807120D02*
D03*
X1277438Y1800677D02*
D03*
X1263650Y1811020D02*
D03*
X1158240Y1728470D02*
D03*
X1159510Y1741170D02*
D03*
X1233126Y1490218D02*
D03*
X841912Y922118D02*
D03*
X868680Y1473200D02*
D03*
X781050Y1485900D02*
D03*
X833959Y1357199D02*
D03*
X831850Y1525270D02*
D03*
X791210Y1517650D02*
D03*
X864870Y1390650D02*
D03*
X866140Y1421130D02*
D03*
X867410Y1436370D02*
D03*
X585470Y1275080D02*
D03*
X748030Y1717040D02*
D03*
X735330Y1548130D02*
D03*
X735926Y1529676D02*
D03*
X679495Y1573575D02*
D03*
X638810Y1784350D02*
D03*
X623570Y1785620D02*
D03*
X895350Y2020570D02*
D03*
X819150Y2062480D02*
D03*
X791210Y2153920D02*
D03*
X607060Y1545590D02*
D03*
X721360Y1653540D02*
D03*
X706120Y1647825D02*
D03*
X595630Y1781810D02*
D03*
X715010Y1628140D02*
D03*
X701040Y1586230D02*
D03*
X699770Y1600200D02*
D03*
X623570Y1630680D02*
D03*
X812800Y961390D02*
D03*
X944880Y969010D02*
D03*
X875030Y2326640D02*
D03*
X1559560Y1003300D02*
D03*
X1513840Y997536D02*
D03*
X1490149Y1012386D02*
D03*
D143*
X821100Y2540437D02*
D03*
X311983Y2031320D02*
D03*
X2050217D02*
D03*
Y1311320D02*
D03*
X1540510Y2538730D02*
D03*
X311983Y1311320D02*
D03*
X821100Y802203D02*
D03*
X1541100D02*
D03*
D144*
X897194Y2489478D02*
D03*
X803327Y2450597D02*
D03*
X362942Y1955226D02*
D03*
X401823Y2049093D02*
D03*
X1999258Y1955226D02*
D03*
X1960377Y2049093D02*
D03*
X1999258Y1387414D02*
D03*
X1960377Y1293547D02*
D03*
X1464417Y2487771D02*
D03*
X1558283Y2448890D02*
D03*
X401823Y1293547D02*
D03*
X362942Y1387414D02*
D03*
X803327Y892043D02*
D03*
X897194Y853162D02*
D03*
X1558873Y892043D02*
D03*
X1465006Y853162D02*
D03*
D145*
X1733550Y1752600D02*
D03*
Y1676400D02*
D03*
X1828800Y1866900D02*
D03*
X1847850Y1828800D02*
D03*
X1809750D02*
D03*
X1790700Y1790700D02*
D03*
X1752600Y1866900D02*
D03*
X1790700D02*
D03*
X1714500D02*
D03*
X1695450Y1828800D02*
D03*
X1771650D02*
D03*
X1752600Y1790700D02*
D03*
X1733550Y1828800D02*
D03*
X1714500Y1790700D02*
D03*
X1828800D02*
D03*
X1847850Y1752600D02*
D03*
X1771650D02*
D03*
X1600200Y1866900D02*
D03*
X1638300D02*
D03*
X1524000D02*
D03*
X1562100D02*
D03*
X1485900D02*
D03*
X1676400D02*
D03*
X1657350Y1828800D02*
D03*
X1619250D02*
D03*
X1600200Y1790700D02*
D03*
X1638300D02*
D03*
X1676400D02*
D03*
X1581150Y1752600D02*
D03*
X1619250D02*
D03*
X1543050Y1828800D02*
D03*
X1581150D02*
D03*
X1504950D02*
D03*
X1524000Y1790700D02*
D03*
X1562100D02*
D03*
X1543050Y1752600D02*
D03*
X1504950D02*
D03*
X1752600Y1714500D02*
D03*
X1562100D02*
D03*
X1485900D02*
D03*
X1524000D02*
D03*
X1600200D02*
D03*
X1447800Y1866900D02*
D03*
X1409700D02*
D03*
X1466850Y1828800D02*
D03*
X1485900Y1790700D02*
D03*
X1428750Y1828800D02*
D03*
X1409700Y1790700D02*
D03*
X1390650Y1752600D02*
D03*
X1428750D02*
D03*
X1390650Y1828800D02*
D03*
X1371600Y1790700D02*
D03*
Y1866900D02*
D03*
X1466850Y1752600D02*
D03*
X1409700Y1714500D02*
D03*
X1447800D02*
D03*
X1371600D02*
D03*
X1771650Y1676400D02*
D03*
X1714500Y1638300D02*
D03*
X1676400D02*
D03*
X1828800D02*
D03*
X1847850Y1600200D02*
D03*
X1771650D02*
D03*
X1809750D02*
D03*
X1828800Y1562100D02*
D03*
X1847850Y1524000D02*
D03*
X1752600Y1562100D02*
D03*
X1790700D02*
D03*
X1752600Y1638300D02*
D03*
X1733550Y1600200D02*
D03*
X1657350D02*
D03*
X1695450D02*
D03*
X1714500Y1562100D02*
D03*
X1695450Y1524000D02*
D03*
X1676400Y1562100D02*
D03*
X1543050Y1676400D02*
D03*
X1581150D02*
D03*
X1600200Y1638300D02*
D03*
X1638300D02*
D03*
X1524000D02*
D03*
X1562100D02*
D03*
X1466850Y1676400D02*
D03*
X1504950D02*
D03*
X1390650D02*
D03*
X1428750D02*
D03*
X1447800Y1638300D02*
D03*
X1485900D02*
D03*
X1409700D02*
D03*
X1390650Y1600200D02*
D03*
X1581150D02*
D03*
X1619250D02*
D03*
X1543050D02*
D03*
X1600200Y1562100D02*
D03*
X1638300D02*
D03*
X1524000D02*
D03*
X1562100D02*
D03*
X1466850Y1600200D02*
D03*
X1504950D02*
D03*
X1428750D02*
D03*
X1409700Y1562100D02*
D03*
X1447800D02*
D03*
X1485900D02*
D03*
X1390650Y1524000D02*
D03*
X1771650D02*
D03*
X1809750D02*
D03*
X1733550D02*
D03*
X1676400Y1485900D02*
D03*
X1790700D02*
D03*
X1828800D02*
D03*
X1714500D02*
D03*
X1752600D02*
D03*
X1619250Y1524000D02*
D03*
X1657350D02*
D03*
X1543050D02*
D03*
X1581150D02*
D03*
X1600200Y1485900D02*
D03*
X1638300D02*
D03*
X1524000D02*
D03*
X1562100D02*
D03*
X1466850Y1524000D02*
D03*
X1504950D02*
D03*
X1428750D02*
D03*
X1447800Y1485900D02*
D03*
X1485900D02*
D03*
X1409700D02*
D03*
X1371600Y1638300D02*
D03*
Y1562100D02*
D03*
Y1485900D02*
D03*
D146*
X1797050Y1771650D02*
D03*
X1784350D02*
D03*
X1441450Y1785620D02*
D03*
X1452880D02*
D03*
X1480820Y924560D02*
D03*
X819150Y2019300D02*
D03*
X810465Y2027985D02*
D03*
D147*
X1614170Y1657350D02*
D03*
D148*
X1191260Y1610360D02*
D03*
X1181100Y1620520D02*
D03*
Y1610360D02*
D03*
X1188720Y1596390D02*
D03*
X1181100Y1591310D02*
D03*
Y1601470D02*
D03*
X1192530Y1560830D02*
D03*
X1200150Y1430020D02*
D03*
X1215390Y1427480D02*
D03*
X1223010Y1398270D02*
D03*
X1207770Y1423670D02*
D03*
X1202690Y1407160D02*
D03*
X1196340Y1416050D02*
D03*
X1197610Y1403350D02*
D03*
X1212850Y1398270D02*
D03*
X1201420Y1394460D02*
D03*
X1198880Y1385570D02*
D03*
X1191260Y1574800D02*
D03*
X1188720Y1551940D02*
D03*
Y1586230D02*
D03*
X1183640Y1569720D02*
D03*
X1191260Y1512570D02*
D03*
Y1502410D02*
D03*
X1189990Y1537970D02*
D03*
X1188720Y1525270D02*
D03*
X1182370Y1545590D02*
D03*
Y1531620D02*
D03*
Y1578610D02*
D03*
Y1558290D02*
D03*
Y1518920D02*
D03*
Y1504950D02*
D03*
X1165860D02*
D03*
X1181100Y1431290D02*
D03*
X1187450Y1424940D02*
D03*
X1173480Y1413510D02*
D03*
X1179830Y1404620D02*
D03*
Y1385570D02*
D03*
X1188720D02*
D03*
X1179830Y1394460D02*
D03*
X1170940Y1388110D02*
D03*
Y1404620D02*
D03*
X1165860Y1629410D02*
D03*
X1163320Y1596390D02*
D03*
X1159510Y1623060D02*
D03*
X1162050Y1609090D02*
D03*
Y1582420D02*
D03*
Y1562100D02*
D03*
X1155700Y1568450D02*
D03*
X1153160Y1555750D02*
D03*
X1151890Y1626870D02*
D03*
X1150620Y1607820D02*
D03*
X1151890Y1596390D02*
D03*
Y1582420D02*
D03*
X1162050Y1536700D02*
D03*
X1164590Y1525270D02*
D03*
X1159510Y1549400D02*
D03*
X1156970Y1529080D02*
D03*
X1164590Y1515110D02*
D03*
X1159510Y1511300D02*
D03*
X1160780Y1426210D02*
D03*
X1154430Y1540510D02*
D03*
Y1520190D02*
D03*
X1155700Y1441450D02*
D03*
X1151890Y1417320D02*
D03*
X1148080Y1433830D02*
D03*
X1139190Y1626870D02*
D03*
Y1426210D02*
D03*
X1129030Y1422400D02*
D03*
X1151890Y1407160D02*
D03*
Y1398270D02*
D03*
X1130300Y1399540D02*
D03*
X1151890Y1388110D02*
D03*
X1162050D02*
D03*
X1141730Y1397000D02*
D03*
M02*
