G04*
G04 #@! TF.GenerationSoftware,Altium Limited,Altium Designer,25.8.1 (18)*
G04*
G04 Layer_Physical_Order=4*
G04 Layer_Color=16440176*
%FSLAX44Y44*%
%MOMM*%
G71*
G04*
G04 #@! TF.SameCoordinates,1528484A-2012-41B0-BD13-40F79D6D187F*
G04*
G04*
G04 #@! TF.FilePolarity,Positive*
G04*
G01*
G75*
%ADD14C,0.1270*%
%ADD15C,0.2540*%
%ADD119C,1.3000*%
%ADD120R,1.3000X1.3000*%
%ADD121C,1.5500*%
%ADD123P,0.9900X4X270.0*%
%ADD124C,0.7000*%
%ADD125R,1.4000X1.4000*%
%ADD126C,1.4000*%
G04:AMPARAMS|DCode=128|XSize=1.3mm|YSize=3.2mm|CornerRadius=0.65mm|HoleSize=0mm|Usage=FLASHONLY|Rotation=225.000|XOffset=0mm|YOffset=0mm|HoleType=Round|Shape=RoundedRectangle|*
%AMROUNDEDRECTD128*
21,1,1.3000,1.9000,0,0,225.0*
21,1,0.0000,3.2000,0,0,225.0*
1,1,1.3000,-0.6718,0.6718*
1,1,1.3000,-0.6718,0.6718*
1,1,1.3000,0.6718,-0.6718*
1,1,1.3000,0.6718,-0.6718*
%
%ADD128ROUNDEDRECTD128*%
G04:AMPARAMS|DCode=129|XSize=0.7mm|YSize=1.6mm|CornerRadius=0.35mm|HoleSize=0mm|Usage=FLASHONLY|Rotation=225.000|XOffset=0mm|YOffset=0mm|HoleType=Round|Shape=RoundedRectangle|*
%AMROUNDEDRECTD129*
21,1,0.7000,0.9000,0,0,225.0*
21,1,0.0000,1.6000,0,0,225.0*
1,1,0.7000,-0.3182,0.3182*
1,1,0.7000,-0.3182,0.3182*
1,1,0.7000,0.3182,-0.3182*
1,1,0.7000,0.3182,-0.3182*
%
%ADD129ROUNDEDRECTD129*%
%ADD130P,1.8385X4X180.0*%
%ADD131P,1.9799X4X360.0*%
%ADD132R,1.5500X1.5500*%
%ADD133C,1.1000*%
%ADD136C,0.7620*%
%ADD186C,5.0800*%
%ADD187C,0.5080*%
%ADD188C,0.5334*%
%ADD189C,0.5588*%
%ADD190C,1.2700*%
%ADD191C,11.0000*%
%ADD192C,1.7780*%
%ADD210C,1.5240*%
D14*
X947837Y1640128D02*
X1147389D01*
X1149475Y1638042D02*
X1151193D01*
X1147389Y1640128D02*
X1149475Y1638042D01*
X718820Y1584960D02*
X892669D01*
X947837Y1640128D01*
D15*
X1051852Y1990382D02*
G03*
X1032218Y1970748I7328J-26962D01*
G01*
X1153491Y1670554D02*
X1155264Y1668780D01*
X1167566D02*
X1168178Y1669392D01*
X1155264Y1668780D02*
X1167566D01*
X1218823Y1669392D02*
X1219238Y1669806D01*
X1168178Y1669392D02*
X1218823D01*
X884972Y1602522D02*
X953004Y1670554D01*
X1153491D01*
X1536700Y2349898D02*
Y2368550D01*
X1494835Y2393950D02*
X1511300D01*
X1536700Y2368550D01*
X1499870Y2287270D02*
X1501636Y2289036D01*
Y2298204D01*
X1499870Y2287270D02*
X1518920D01*
X843280Y2222500D02*
X843465Y2222315D01*
X852355D01*
X843280Y2222500D02*
Y2284294D01*
X1066800Y980440D02*
X1350010D01*
X1344930Y2283460D02*
X1535430D01*
X1051852Y1990382D02*
X1344930Y2283460D01*
X721360Y1659890D02*
X1032218Y1970748D01*
X721360Y1653540D02*
Y1659890D01*
X1337310Y2287270D02*
X1499870D01*
X760730Y1729740D02*
X779780D01*
X748030Y1717040D02*
X760730Y1729740D01*
X779780D02*
X1337310Y2287270D01*
X1154430Y1643785D02*
X1161645D01*
X1153165Y1645050D02*
X1154430Y1643785D01*
X941470Y1645050D02*
X1153165D01*
X1161645Y1643785D02*
X1162050Y1643380D01*
X623570Y1630680D02*
X659130Y1666240D01*
Y1775152D01*
X650240Y1784042D02*
X659130Y1775152D01*
X650240Y1784042D02*
Y1954928D01*
X712470Y2017158D01*
Y2018030D01*
X798875Y2104435D01*
Y2251755D01*
X843370Y2296250D01*
X857152D01*
X858513Y2294890D01*
X871220D01*
X593090Y1751330D02*
X652780D01*
X662940Y1609000D02*
X674280Y1597660D01*
X662940Y1609000D02*
Y1776730D01*
X495300Y1724660D02*
Y1958340D01*
X783590Y2246630D01*
X504190Y1733550D02*
X575310D01*
X593090Y1751330D01*
X495300Y1724660D02*
X504190Y1733550D01*
X654050Y1785620D02*
Y1953350D01*
Y1785620D02*
X662940Y1776730D01*
X654050Y1953350D02*
X735240Y2034540D01*
X765810D01*
X843280Y2112010D01*
Y2222500D01*
X687607Y1600200D02*
X699770D01*
X685068Y1597660D02*
X687607Y1600200D01*
X674280Y1597660D02*
X685068D01*
X843280Y2284294D02*
X848450Y2289465D01*
Y2289900D01*
X783590Y2246630D02*
Y2311400D01*
X1518920Y2287270D02*
X1535430Y2303780D01*
Y2345780D01*
X1532890Y2348320D02*
X1535430Y2345780D01*
X1532890Y2348320D02*
Y2352130D01*
X1505040Y2379980D02*
X1532890Y2352130D01*
X1504950Y2379980D02*
X1505040D01*
X1539240Y2302202D02*
Y2347358D01*
X1535430Y2283460D02*
X1536700Y2284730D01*
Y2299662D01*
X1539240Y2302202D01*
X1536700Y2349898D02*
X1539240Y2347358D01*
X1494835Y2393905D02*
Y2393950D01*
X673100Y1719670D02*
X698500Y1745070D01*
Y1988820D01*
X673100Y1613118D02*
Y1719670D01*
Y1613118D02*
X675858Y1610360D01*
X711290D01*
X719128Y1602522D01*
X884972D01*
X711110Y1586230D02*
X718730Y1593850D01*
X890270D01*
X941470Y1645050D01*
X701040Y1586230D02*
X711110D01*
X783590Y2311400D02*
Y2360712D01*
X785078Y2362200D01*
X1482090D01*
X1501140Y2343150D01*
X1529080D01*
X495300Y1619250D02*
Y1724660D01*
Y1619250D02*
X590550Y1524000D01*
Y1291590D02*
Y1524000D01*
Y1291590D02*
X735330Y1146810D01*
X847090D01*
X1040130Y953770D01*
X1066800Y980440D01*
X1350010D02*
X1399689Y1030119D01*
X1511449D01*
X1567180Y1085850D01*
D119*
X1188720Y2327910D02*
D03*
X1208720D02*
D03*
X700868Y1214292D02*
D03*
X715010Y1200150D02*
D03*
D120*
X1168720Y2327910D02*
D03*
D121*
X1148720D02*
D03*
X1228720D02*
D03*
X645160Y1978660D02*
D03*
X743294Y1171866D02*
D03*
X686726Y1228434D02*
D03*
X885190Y1681880D02*
D03*
X959020Y1681680D02*
D03*
X960120Y1566310D02*
D03*
D123*
X768875Y2131968D02*
D03*
D124*
X726802Y2089895D02*
D03*
X756854Y2119947D02*
D03*
X750844Y2113937D02*
D03*
X744833Y2107926D02*
D03*
X738823Y2101916D02*
D03*
X717256Y2099441D02*
D03*
X723266Y2105452D02*
D03*
X729277Y2111462D02*
D03*
X735287Y2117472D02*
D03*
X741298Y2123483D02*
D03*
X747308Y2129493D02*
D03*
X753318Y2135504D02*
D03*
X759329Y2141514D02*
D03*
X732812Y2095906D02*
D03*
X762864Y2125958D02*
D03*
D125*
X561510Y1853330D02*
D03*
D126*
X648416Y1393744D02*
D03*
X789838Y1252322D02*
D03*
X772160Y1270000D02*
D03*
X754482Y1287678D02*
D03*
X736805Y1305355D02*
D03*
X719127Y1323033D02*
D03*
X701449Y1340711D02*
D03*
X683772Y1358388D02*
D03*
X666094Y1376066D02*
D03*
X561510Y1903330D02*
D03*
Y1878330D02*
D03*
D128*
X774850Y2145014D02*
D03*
X713756Y2083920D02*
D03*
D129*
X745505Y2174359D02*
D03*
X684411Y2113265D02*
D03*
D130*
X729152Y1186008D02*
D03*
D131*
X807515Y1234645D02*
D03*
D132*
X645160Y2003660D02*
D03*
X885190Y1706880D02*
D03*
X959020Y1706680D02*
D03*
X960120Y1591310D02*
D03*
D133*
X541510Y1919330D02*
D03*
D136*
X1893549Y2004714D02*
D03*
X1807513Y1768143D02*
D03*
X1832610Y1755907D02*
D03*
X1529080Y2444750D02*
D03*
X1516380Y2359660D02*
D03*
X1845310Y1718310D02*
D03*
X1671320Y1704340D02*
D03*
X1661160Y1743710D02*
D03*
X1630680Y1717040D02*
D03*
X1350190Y2354580D02*
D03*
X1451610Y2330450D02*
D03*
X1277620Y1968500D02*
D03*
X1188720Y2172970D02*
D03*
X1260727Y1744260D02*
D03*
X1186180Y1816100D02*
D03*
X1819910Y1675130D02*
D03*
X1623060Y1680210D02*
D03*
X1823720Y1410970D02*
D03*
X1915160Y1325920D02*
D03*
X1543050Y1024890D02*
D03*
X1488440Y1037590D02*
D03*
X1400810Y1083310D02*
D03*
X1380708Y1032292D02*
D03*
X1510030Y974090D02*
D03*
X1247140Y1673860D02*
D03*
X1267460Y1621790D02*
D03*
X1290320Y1473200D02*
D03*
X1234440Y1409700D02*
D03*
X957580Y2316142D02*
D03*
X949960Y2171700D02*
D03*
X1027610Y2147390D02*
D03*
X905256Y2154936D02*
D03*
X865277Y2429917D02*
D03*
X1137420Y1742088D02*
D03*
X1116766Y2011680D02*
D03*
X1101090D02*
D03*
X999490Y1826260D02*
D03*
X1028700Y1695450D02*
D03*
X940240Y1975290D02*
D03*
X820420Y2338070D02*
D03*
X800100Y1972310D02*
D03*
X787400Y1856740D02*
D03*
X713740Y1910080D02*
D03*
X424180Y2019300D02*
D03*
X628650Y1766570D02*
D03*
X586740Y1762760D02*
D03*
X715010Y1717040D02*
D03*
X730250Y1690370D02*
D03*
X793750Y1668780D02*
D03*
X721950Y1669460D02*
D03*
X562610Y1717040D02*
D03*
X1117600Y1634413D02*
D03*
X1134319Y1452878D02*
D03*
X792480Y1452880D02*
D03*
X1120140Y1410480D02*
D03*
X948690Y991870D02*
D03*
X896990Y935620D02*
D03*
X863600Y1405890D02*
D03*
X796290Y1393190D02*
D03*
X734060Y1625600D02*
D03*
X542293Y1635760D02*
D03*
X576580Y1631950D02*
D03*
X690880Y1620520D02*
D03*
X647700Y1567180D02*
D03*
X618490Y1566101D02*
D03*
X774700Y1050290D02*
D03*
X697837Y1522730D02*
D03*
X515620D02*
D03*
X711245Y1426165D02*
D03*
X511804Y1409700D02*
D03*
X421788Y1451400D02*
D03*
X398428Y1262380D02*
D03*
X1710690Y1440180D02*
D03*
X1301396Y2272384D02*
D03*
X1564640Y2293659D02*
D03*
X1530701Y2389816D02*
D03*
X1567180Y2328360D02*
D03*
X1501636Y2298204D02*
D03*
X1423670Y878840D02*
D03*
X852355Y2222315D02*
D03*
X904240Y1116330D02*
D03*
X1122680Y986790D02*
D03*
X942340Y1073150D02*
D03*
X1038860Y974090D02*
D03*
X802640Y2310130D02*
D03*
X918063Y2456327D02*
D03*
X521771Y1349811D02*
D03*
X509821Y1338580D02*
D03*
X849630Y2280920D02*
D03*
X690880Y1689100D02*
D03*
X1427480Y1040130D02*
D03*
X1531620Y1065530D02*
D03*
X890270Y2400300D02*
D03*
X810260Y1055370D02*
D03*
X618490Y1602740D02*
D03*
X558800Y1661160D02*
D03*
X647700Y1602930D02*
D03*
X676910Y1604010D02*
D03*
X679450Y1717040D02*
D03*
X593090Y1731004D02*
D03*
X565150Y1750060D02*
D03*
X685800Y1666939D02*
D03*
X514350Y1393190D02*
D03*
X1107440Y2176780D02*
D03*
X1868170Y1648460D02*
D03*
X628650Y1732280D02*
D03*
X1126490Y2176780D02*
D03*
X959597Y1774190D02*
D03*
X1290320Y1447800D02*
D03*
X1245668Y1734596D02*
D03*
X1878330Y1737360D02*
D03*
X1132419Y1719353D02*
D03*
X1130427Y1652188D02*
D03*
X533865Y1541315D02*
D03*
X1028700Y1678940D02*
D03*
X1210984Y1661160D02*
D03*
X836930Y1643380D02*
D03*
X807720Y1614170D02*
D03*
X1162050Y1643380D02*
D03*
X1151193Y1638042D02*
D03*
X1233170Y1686560D02*
D03*
X1223010Y1694550D02*
D03*
X1219238Y1669806D02*
D03*
X1211624Y1690052D02*
D03*
X1052830Y1678940D02*
D03*
X1126523Y1685313D02*
D03*
X1097503Y1725457D02*
D03*
X1106170Y1734820D02*
D03*
X1149418Y1774121D02*
D03*
X652780Y1751330D02*
D03*
X669290Y1743710D02*
D03*
X871220Y2294890D02*
D03*
X848450Y2289900D02*
D03*
X1504950Y2379980D02*
D03*
X1494835Y2393905D02*
D03*
X903785Y1018540D02*
D03*
X896620Y1007110D02*
D03*
X473710Y1483360D02*
D03*
X453390Y1376680D02*
D03*
X632460Y1615440D02*
D03*
X455930Y1365250D02*
D03*
X654050Y1513840D02*
D03*
X465099Y1352271D02*
D03*
X939800Y2038805D02*
D03*
X902970Y2207260D02*
D03*
X800100Y2038350D02*
D03*
X806450Y2000250D02*
D03*
X748030Y2080688D02*
D03*
X698500Y1988820D02*
D03*
X692150Y1729740D02*
D03*
X689610Y1752600D02*
D03*
X725170Y1639570D02*
D03*
X712470Y1600200D02*
D03*
X718820Y1584960D02*
D03*
X1233170Y1673370D02*
D03*
X1074918Y1685372D02*
D03*
X1040130Y953770D02*
D03*
X1567180Y1085850D02*
D03*
X1529080Y2343150D02*
D03*
X783590Y2311400D02*
D03*
X1499870Y2319020D02*
D03*
X1214120Y2240280D02*
D03*
X858520Y2325370D02*
D03*
X515620Y1656080D02*
D03*
X624840Y1508760D02*
D03*
X515620Y1672590D02*
D03*
X891540Y1032510D02*
D03*
X844550Y2324100D02*
D03*
X1468120Y2338070D02*
D03*
X1323340Y986790D02*
D03*
X927100Y960120D02*
D03*
X902598Y964828D02*
D03*
X1494590Y1074243D02*
D03*
X1490948Y1059180D02*
D03*
X1103984Y1704354D02*
D03*
X1064988Y1680370D02*
D03*
X1060414Y1654809D02*
D03*
X1049739Y1664204D02*
D03*
X1122874Y1519723D02*
D03*
X1078230Y1560830D02*
D03*
X1093470Y1569904D02*
D03*
X1106170Y1581150D02*
D03*
X1117007Y1591673D02*
D03*
X1178560Y1738996D02*
D03*
X1243330Y1783080D02*
D03*
X1220470Y1490980D02*
D03*
X1205859Y1490758D02*
D03*
X1292860Y1807120D02*
D03*
X1277438Y1800677D02*
D03*
X1263650Y1811020D02*
D03*
X1158240Y1728470D02*
D03*
X1159510Y1741170D02*
D03*
X1233126Y1490218D02*
D03*
X841912Y922118D02*
D03*
X868680Y1473200D02*
D03*
X781050Y1485900D02*
D03*
X833959Y1357199D02*
D03*
X831850Y1525270D02*
D03*
X791210Y1517650D02*
D03*
X864870Y1390650D02*
D03*
X866140Y1421130D02*
D03*
X867410Y1436370D02*
D03*
X585470Y1275080D02*
D03*
X748030Y1717040D02*
D03*
X735330Y1548130D02*
D03*
X735926Y1529676D02*
D03*
X679495Y1573575D02*
D03*
X638810Y1784350D02*
D03*
X623570Y1785620D02*
D03*
X895350Y2020570D02*
D03*
X819150Y2062480D02*
D03*
X791210Y2153920D02*
D03*
X607060Y1545590D02*
D03*
X721360Y1653540D02*
D03*
X706120Y1647825D02*
D03*
X595630Y1781810D02*
D03*
X715010Y1628140D02*
D03*
X701040Y1586230D02*
D03*
X699770Y1600200D02*
D03*
X623570Y1630680D02*
D03*
X812800Y961390D02*
D03*
X944880Y969010D02*
D03*
X875030Y2326640D02*
D03*
X1559560Y1003300D02*
D03*
X1513840Y997536D02*
D03*
X1490149Y1012386D02*
D03*
D186*
X1490980Y2147570D02*
D03*
Y2049780D02*
D03*
X1305560Y2053590D02*
D03*
Y2146300D02*
D03*
X1435100D02*
D03*
Y2053590D02*
D03*
X1600200Y2049780D02*
D03*
Y2147570D02*
D03*
X1621790Y1202690D02*
D03*
Y1281430D02*
D03*
X1488440D02*
D03*
Y1202690D02*
D03*
X1250950Y1162050D02*
D03*
Y1056640D02*
D03*
X1183640D02*
D03*
Y1162050D02*
D03*
X1319530Y1207770D02*
D03*
X1426210D02*
D03*
X1424940Y1297940D02*
D03*
X1316990D02*
D03*
X1115060Y1276350D02*
D03*
Y1145540D02*
D03*
X956310D02*
D03*
Y1276350D02*
D03*
X1535430Y1351280D02*
D03*
X1059180D02*
D03*
X1535430Y1963420D02*
D03*
X1059180D02*
D03*
D187*
X1564640Y960120D02*
D03*
X1516380D02*
D03*
X2002790Y1245870D02*
D03*
X2059940Y1226820D02*
D03*
X2117090Y1271270D02*
D03*
X2122170Y1342390D02*
D03*
X2073910Y1389380D02*
D03*
X2012950Y1413510D02*
D03*
X2026920Y1941830D02*
D03*
X2120900Y1995170D02*
D03*
X2125980Y2056130D02*
D03*
X2070100Y2105660D02*
D03*
X2015490D02*
D03*
X1550670Y2197100D02*
D03*
X1365250Y2193290D02*
D03*
X1548130Y2095500D02*
D03*
X1365250D02*
D03*
X1606550Y2247900D02*
D03*
X1621790Y2528570D02*
D03*
X1582420Y2606040D02*
D03*
X1507490Y2611120D02*
D03*
X1461770Y2571750D02*
D03*
X1441450Y2505710D02*
D03*
X993140Y2428240D02*
D03*
X895350Y2541270D02*
D03*
X883920Y2602230D02*
D03*
X819150Y2631440D02*
D03*
X735330Y2541270D02*
D03*
X749300Y2489200D02*
D03*
X775970Y2298700D02*
D03*
X902970Y2303780D02*
D03*
X785199Y2473060D02*
D03*
X839470Y1678940D02*
D03*
X754380Y1563370D02*
D03*
X1449070Y1410970D02*
D03*
X1591310Y1372870D02*
D03*
X1313180Y1352550D02*
D03*
X1394460Y1374140D02*
D03*
X1193800Y1314450D02*
D03*
X1189990Y1228090D02*
D03*
X1544320Y1239520D02*
D03*
X1377950Y1252220D02*
D03*
X1216660Y1097280D02*
D03*
X1606550Y844550D02*
D03*
X1619250Y800100D02*
D03*
X1588770Y732790D02*
D03*
X1502410Y730250D02*
D03*
X1464310Y789940D02*
D03*
X1074420Y1066800D02*
D03*
X999490Y932180D02*
D03*
X930910Y902970D02*
D03*
X977900Y915670D02*
D03*
X906780Y814070D02*
D03*
X887730Y765810D02*
D03*
X835660Y721360D02*
D03*
X774700Y735330D02*
D03*
X741680Y792480D02*
D03*
X745490Y834390D02*
D03*
X772160Y930910D02*
D03*
X773430Y880110D02*
D03*
X825500Y1309370D02*
D03*
X873760Y1353820D02*
D03*
X755650Y1362710D02*
D03*
X647700Y1539240D02*
D03*
X674370Y1492250D02*
D03*
X671830Y1464310D02*
D03*
X651510Y1416050D02*
D03*
X629920Y1430020D02*
D03*
X600710Y1421130D02*
D03*
X576580Y1356360D02*
D03*
X635000Y1320800D02*
D03*
X676910Y1262380D02*
D03*
X866140Y1266190D02*
D03*
X862330Y1197610D02*
D03*
X805180Y1137920D02*
D03*
X774700Y1163320D02*
D03*
X769620Y1092200D02*
D03*
X737870Y1118870D02*
D03*
X622300Y1230630D02*
D03*
X524510Y1332230D02*
D03*
X554990Y1299210D02*
D03*
X539750Y1315720D02*
D03*
X336550Y1405890D02*
D03*
X262890Y1375410D02*
D03*
X234950Y1305560D02*
D03*
X260350Y1250950D02*
D03*
X318770Y1224280D02*
D03*
X365760Y1250950D02*
D03*
X426720Y1292860D02*
D03*
X502920Y1299210D02*
D03*
X480060Y1436370D02*
D03*
X490220Y1529080D02*
D03*
X480060Y1610360D02*
D03*
X478790Y1744980D02*
D03*
X473710Y1878330D02*
D03*
X478790Y1798320D02*
D03*
X580390Y2071370D02*
D03*
X438150Y1968500D02*
D03*
X478790Y1998980D02*
D03*
X483870Y2071370D02*
D03*
X378460Y1916430D02*
D03*
X320040Y1940560D02*
D03*
X251460Y1976120D02*
D03*
X242570Y2076450D02*
D03*
X314960Y2113280D02*
D03*
X431800Y2072640D02*
D03*
X1452880Y1785620D02*
D03*
X1441450D02*
D03*
X1480820Y924560D02*
D03*
X1223010Y1446530D02*
D03*
X1201420D02*
D03*
X819150Y2019300D02*
D03*
X810465Y2027985D02*
D03*
D188*
X1188720Y1663700D02*
D03*
X1170940D02*
D03*
X1151890D02*
D03*
X1179830Y1478280D02*
D03*
X1162050D02*
D03*
X1170813Y1469950D02*
D03*
X1178560Y1461770D02*
D03*
X1162050D02*
D03*
X1187450Y1699260D02*
D03*
X1168400Y1700530D02*
D03*
X1151890D02*
D03*
X1187450Y1682750D02*
D03*
X1169670Y1684020D02*
D03*
X1150620D02*
D03*
X641350Y1668780D02*
D03*
X619760D02*
D03*
X629920Y1680210D02*
D03*
X640080Y1690370D02*
D03*
X619760D02*
D03*
X1191260Y1610360D02*
D03*
X1181100D02*
D03*
Y1601470D02*
D03*
X1165860Y1629410D02*
D03*
X1181100Y1620520D02*
D03*
X1188720Y1596390D02*
D03*
Y1586230D02*
D03*
X1181100Y1591310D02*
D03*
X1182370Y1578610D02*
D03*
X1200150Y1430020D02*
D03*
X1223010Y1398270D02*
D03*
X1215390Y1427480D02*
D03*
X1207770Y1423670D02*
D03*
X1196340Y1416050D02*
D03*
X1202690Y1407160D02*
D03*
X1212850Y1398270D02*
D03*
X1201420Y1394460D02*
D03*
X1197610Y1403350D02*
D03*
X1198880Y1385570D02*
D03*
X1191260Y1574800D02*
D03*
X1192530Y1560830D02*
D03*
X1183640Y1569720D02*
D03*
X1188720Y1551940D02*
D03*
X1191260Y1512570D02*
D03*
Y1502410D02*
D03*
X1189990Y1537970D02*
D03*
X1188720Y1525270D02*
D03*
X1182370Y1531620D02*
D03*
Y1518920D02*
D03*
Y1558290D02*
D03*
Y1545590D02*
D03*
Y1504950D02*
D03*
X1164590Y1515110D02*
D03*
X1165860Y1504950D02*
D03*
X1181100Y1431290D02*
D03*
X1187450Y1424940D02*
D03*
X1173480Y1413510D02*
D03*
X1179830Y1404620D02*
D03*
Y1385570D02*
D03*
X1188720D02*
D03*
X1179830Y1394460D02*
D03*
X1170940Y1388110D02*
D03*
Y1404620D02*
D03*
X1163320Y1596390D02*
D03*
X1162050Y1582420D02*
D03*
X1159510Y1623060D02*
D03*
X1162050Y1609090D02*
D03*
Y1562100D02*
D03*
X1159510Y1549400D02*
D03*
X1155700Y1568450D02*
D03*
X1153160Y1555750D02*
D03*
X1151890Y1626870D02*
D03*
X1150620Y1607820D02*
D03*
X1151890Y1596390D02*
D03*
Y1582420D02*
D03*
X1162050Y1536700D02*
D03*
X1164590Y1525270D02*
D03*
X1156970Y1529080D02*
D03*
X1159510Y1511300D02*
D03*
X1155700Y1441450D02*
D03*
X1160780Y1426210D02*
D03*
X1154430Y1540510D02*
D03*
Y1520190D02*
D03*
X1148080Y1433830D02*
D03*
X1139190Y1626870D02*
D03*
Y1426210D02*
D03*
X1129030Y1422400D02*
D03*
X1151890Y1407160D02*
D03*
Y1398270D02*
D03*
Y1417320D02*
D03*
X1130300Y1399540D02*
D03*
X1151890Y1388110D02*
D03*
X1162050D02*
D03*
X1141730Y1397000D02*
D03*
D189*
X1784350Y1771650D02*
D03*
X1797050D02*
D03*
D190*
X1790700Y1866900D02*
D03*
X1847850Y1828800D02*
D03*
X1828800Y1790700D02*
D03*
Y1866900D02*
D03*
X1809750Y1828800D02*
D03*
X1752600Y1866900D02*
D03*
X1771650Y1828800D02*
D03*
X1714500Y1866900D02*
D03*
X1733550Y1828800D02*
D03*
X1752600Y1790700D02*
D03*
X1790700D02*
D03*
X1714500D02*
D03*
X1733550Y1752600D02*
D03*
X1771650D02*
D03*
X1562100Y1866900D02*
D03*
X1600200D02*
D03*
X1524000D02*
D03*
X1676400D02*
D03*
X1657350Y1828800D02*
D03*
X1638300Y1866900D02*
D03*
X1619250Y1828800D02*
D03*
X1695450D02*
D03*
X1676400Y1790700D02*
D03*
X1638300D02*
D03*
X1619250Y1752600D02*
D03*
X1543050Y1828800D02*
D03*
X1581150D02*
D03*
X1504950D02*
D03*
X1524000Y1790700D02*
D03*
X1600200D02*
D03*
X1581150Y1752600D02*
D03*
X1562100Y1790700D02*
D03*
X1543050Y1752600D02*
D03*
X1847850D02*
D03*
X1752600Y1714500D02*
D03*
X1562100D02*
D03*
X1504950Y1752600D02*
D03*
X1524000Y1714500D02*
D03*
X1600200D02*
D03*
X1485900Y1866900D02*
D03*
X1447800D02*
D03*
X1371600D02*
D03*
X1409700D02*
D03*
X1466850Y1828800D02*
D03*
X1485900Y1790700D02*
D03*
X1428750Y1828800D02*
D03*
X1409700Y1790700D02*
D03*
X1466850Y1752600D02*
D03*
X1428750D02*
D03*
X1390650Y1828800D02*
D03*
Y1752600D02*
D03*
X1371600Y1790700D02*
D03*
Y1714500D02*
D03*
X1447800D02*
D03*
X1485900D02*
D03*
X1409700D02*
D03*
X1733550Y1676400D02*
D03*
X1771650D02*
D03*
X1714500Y1638300D02*
D03*
X1676400D02*
D03*
X1828800D02*
D03*
X1847850Y1600200D02*
D03*
X1771650D02*
D03*
X1809750D02*
D03*
X1828800Y1562100D02*
D03*
X1847850Y1524000D02*
D03*
X1752600Y1562100D02*
D03*
X1790700D02*
D03*
X1752600Y1638300D02*
D03*
X1733550Y1600200D02*
D03*
X1657350D02*
D03*
X1695450D02*
D03*
X1714500Y1562100D02*
D03*
X1695450Y1524000D02*
D03*
X1638300Y1562100D02*
D03*
X1676400D02*
D03*
X1543050Y1676400D02*
D03*
X1581150D02*
D03*
X1600200Y1638300D02*
D03*
X1638300D02*
D03*
X1524000D02*
D03*
X1562100D02*
D03*
X1466850Y1676400D02*
D03*
X1504950D02*
D03*
X1390650D02*
D03*
X1428750D02*
D03*
X1447800Y1638300D02*
D03*
X1485900D02*
D03*
X1409700D02*
D03*
X1390650Y1600200D02*
D03*
X1581150D02*
D03*
X1619250D02*
D03*
X1543050D02*
D03*
X1562100Y1562100D02*
D03*
X1600200D02*
D03*
X1524000D02*
D03*
X1543050Y1524000D02*
D03*
X1466850Y1600200D02*
D03*
X1504950D02*
D03*
X1428750D02*
D03*
X1409700Y1562100D02*
D03*
X1447800D02*
D03*
X1485900D02*
D03*
X1390650Y1524000D02*
D03*
X1428750D02*
D03*
X1771650D02*
D03*
X1809750D02*
D03*
X1733550D02*
D03*
X1752600Y1485900D02*
D03*
X1828800D02*
D03*
X1790700D02*
D03*
X1619250Y1524000D02*
D03*
X1657350D02*
D03*
X1581150D02*
D03*
X1562100Y1485900D02*
D03*
X1676400D02*
D03*
X1714500D02*
D03*
X1600200D02*
D03*
X1638300D02*
D03*
X1504950Y1524000D02*
D03*
X1485900Y1485900D02*
D03*
X1466850Y1524000D02*
D03*
X1447800Y1485900D02*
D03*
X1524000D02*
D03*
X1409700D02*
D03*
X1371600Y1638300D02*
D03*
Y1562100D02*
D03*
Y1485900D02*
D03*
D191*
X821100Y2540437D02*
D03*
X311983Y2031320D02*
D03*
X2050217D02*
D03*
Y1311320D02*
D03*
X1540510Y2538730D02*
D03*
X311983Y1311320D02*
D03*
X821100Y802203D02*
D03*
X1541100D02*
D03*
D192*
X897194Y2489478D02*
D03*
X803327Y2450597D02*
D03*
X362942Y1955226D02*
D03*
X401823Y2049093D02*
D03*
X1999258Y1955226D02*
D03*
X1960377Y2049093D02*
D03*
X1999258Y1387414D02*
D03*
X1960377Y1293547D02*
D03*
X1464417Y2487771D02*
D03*
X1558283Y2448890D02*
D03*
X401823Y1293547D02*
D03*
X362942Y1387414D02*
D03*
X803327Y892043D02*
D03*
X897194Y853162D02*
D03*
X1558873Y892043D02*
D03*
X1465006Y853162D02*
D03*
D210*
X1614170Y1657350D02*
D03*
M02*
