G04*
G04 #@! TF.GenerationSoftware,Altium Limited,Altium Designer,25.8.1 (18)*
G04*
G04 Layer_Color=8388736*
%FSLAX44Y44*%
%MOMM*%
G71*
G04*
G04 #@! TF.SameCoordinates,1712F0CB-3B61-41A3-BC14-C9FE2E182D8B*
G04*
G04*
G04 #@! TF.FilePolarity,Negative*
G04*
G01*
G75*
%ADD20R,0.6500X0.9000*%
%ADD21R,0.7154X0.6725*%
%ADD22R,0.5588X1.4605*%
%ADD23R,1.7018X0.9906*%
%ADD24R,0.2794X0.7112*%
%ADD25R,0.2627X0.3541*%
%ADD26R,0.9000X0.6500*%
%ADD29R,1.2062X0.9562*%
%ADD30R,1.0000X0.6600*%
%ADD31R,0.9562X1.2062*%
%ADD32R,0.4500X0.5000*%
%ADD33R,1.3500X0.9500*%
%ADD34R,0.7548X0.2032*%
%ADD36R,0.3541X0.2627*%
%ADD37R,0.5682X0.5725*%
%ADD38R,1.3000X1.0500*%
%ADD39R,0.5725X0.5682*%
%ADD40R,0.2032X0.7548*%
%ADD42R,2.2000X1.0500*%
%ADD43R,0.3048X0.7620*%
%ADD45R,1.5000X2.0000*%
%ADD46R,0.7366X0.2540*%
%ADD47R,0.7112X1.2954*%
%ADD48R,0.6725X0.7154*%
%ADD49R,0.6811X0.5725*%
%ADD51R,0.1778X0.7620*%
%ADD52R,0.7620X0.1778*%
%ADD53R,0.2750X0.3000*%
%ADD54R,0.7620X0.3048*%
%ADD55R,0.6153X0.5725*%
%ADD60R,1.5240X0.5334*%
%ADD62R,0.9500X1.3500*%
G04:AMPARAMS|DCode=64|XSize=1.5mm|YSize=0.45mm|CornerRadius=0.0495mm|HoleSize=0mm|Usage=FLASHONLY|Rotation=270.000|XOffset=0mm|YOffset=0mm|HoleType=Round|Shape=RoundedRectangle|*
%AMROUNDEDRECTD64*
21,1,1.5000,0.3510,0,0,270.0*
21,1,1.4010,0.4500,0,0,270.0*
1,1,0.0990,-0.1755,-0.7005*
1,1,0.0990,-0.1755,0.7005*
1,1,0.0990,0.1755,0.7005*
1,1,0.0990,0.1755,-0.7005*
%
%ADD64ROUNDEDRECTD64*%
G04:AMPARAMS|DCode=66|XSize=1.3587mm|YSize=0.5868mm|CornerRadius=0.2934mm|HoleSize=0mm|Usage=FLASHONLY|Rotation=90.000|XOffset=0mm|YOffset=0mm|HoleType=Round|Shape=RoundedRectangle|*
%AMROUNDEDRECTD66*
21,1,1.3587,0.0000,0,0,90.0*
21,1,0.7719,0.5868,0,0,90.0*
1,1,0.5868,0.0000,0.3859*
1,1,0.5868,0.0000,-0.3859*
1,1,0.5868,0.0000,-0.3859*
1,1,0.5868,0.0000,0.3859*
%
%ADD66ROUNDEDRECTD66*%
G04:AMPARAMS|DCode=67|XSize=1.3587mm|YSize=0.5868mm|CornerRadius=0.2934mm|HoleSize=0mm|Usage=FLASHONLY|Rotation=180.000|XOffset=0mm|YOffset=0mm|HoleType=Round|Shape=RoundedRectangle|*
%AMROUNDEDRECTD67*
21,1,1.3587,0.0000,0,0,180.0*
21,1,0.7719,0.5868,0,0,180.0*
1,1,0.5868,-0.3859,0.0000*
1,1,0.5868,0.3859,0.0000*
1,1,0.5868,0.3859,0.0000*
1,1,0.5868,-0.3859,0.0000*
%
%ADD67ROUNDEDRECTD67*%
%ADD68R,3.8000X2.0000*%
%ADD72R,1.1000X1.9000*%
%ADD73R,2.0062X1.2549*%
%ADD74R,0.6000X1.4500*%
%ADD75R,1.0500X1.0000*%
%ADD76R,0.5725X0.6153*%
%ADD77R,1.0582X1.2061*%
%ADD78R,1.5000X4.0000*%
%ADD80R,1.3587X0.5868*%
%ADD81R,0.5725X0.6811*%
%ADD82R,0.5153X0.4725*%
%ADD83R,1.3562X1.1544*%
%ADD84R,0.5868X1.3587*%
%ADD86R,1.9000X1.1000*%
%ADD87R,0.5250X0.4000*%
%ADD88R,0.5250X0.4000*%
%ADD89R,0.3000X0.5250*%
%ADD90R,0.3000X0.5250*%
%ADD91C,2.7432*%
%ADD92C,12.9032*%
G04:AMPARAMS|DCode=93|XSize=1.3mm|YSize=2.5mm|CornerRadius=0.65mm|HoleSize=0mm|Usage=FLASHONLY|Rotation=225.000|XOffset=0mm|YOffset=0mm|HoleType=Round|Shape=RoundedRectangle|*
%AMROUNDEDRECTD93*
21,1,1.3000,1.2000,0,0,225.0*
21,1,0.0000,2.5000,0,0,225.0*
1,1,1.3000,-0.4243,0.4243*
1,1,1.3000,-0.4243,0.4243*
1,1,1.3000,0.4243,-0.4243*
1,1,1.3000,0.4243,-0.4243*
%
%ADD93ROUNDEDRECTD93*%
%ADD94R,1.5532X1.7532*%
%ADD95R,1.4532X1.7532*%
%ADD96R,1.2032X3.0032*%
%ADD97R,1.7532X1.4532*%
%ADD98R,1.0532X0.9532*%
%ADD99R,0.9532X1.0532*%
%ADD100R,4.6990X4.6990*%
%ADD101R,1.6032X1.7032*%
%ADD102R,3.4544X3.4544*%
%ADD103R,2.6416X2.6416*%
%ADD104R,1.2532X1.5032*%
%ADD105R,0.3008X0.3258*%
%ADD106R,0.3258X0.3008*%
%ADD107R,1.7032X1.6032*%
%ADD108R,0.9032X1.0532*%
%ADD109R,1.0032X0.8032*%
%ADD110R,1.1532X1.0032*%
%ADD111R,0.6008X0.6508*%
%ADD112R,0.5258X0.4008*%
%ADD113R,2.1000X1.4000*%
%ADD114R,1.7532X1.5532*%
%ADD115R,1.0532X0.9032*%
%ADD116C,5.2832*%
G04:AMPARAMS|DCode=117|XSize=1.3mm|YSize=3.2mm|CornerRadius=0.65mm|HoleSize=0mm|Usage=FLASHONLY|Rotation=225.000|XOffset=0mm|YOffset=0mm|HoleType=Round|Shape=RoundedRectangle|*
%AMROUNDEDRECTD117*
21,1,1.3000,1.9000,0,0,225.0*
21,1,0.0000,3.2000,0,0,225.0*
1,1,1.3000,-0.6718,0.6718*
1,1,1.3000,-0.6718,0.6718*
1,1,1.3000,0.6718,-0.6718*
1,1,1.3000,0.6718,-0.6718*
%
%ADD117ROUNDEDRECTD117*%
%ADD118C,0.7000*%
G04:AMPARAMS|DCode=119|XSize=0.7mm|YSize=1.6mm|CornerRadius=0.35mm|HoleSize=0mm|Usage=FLASHONLY|Rotation=225.000|XOffset=0mm|YOffset=0mm|HoleType=Round|Shape=RoundedRectangle|*
%AMROUNDEDRECTD119*
21,1,0.7000,0.9000,0,0,225.0*
21,1,0.0000,1.6000,0,0,225.0*
1,1,0.7000,-0.3182,0.3182*
1,1,0.7000,-0.3182,0.3182*
1,1,0.7000,0.3182,-0.3182*
1,1,0.7000,0.3182,-0.3182*
%
%ADD119ROUNDEDRECTD119*%
%ADD120P,0.9900X4X270.0*%
%ADD121C,1.5500*%
%ADD122C,1.3000*%
%ADD123R,1.4000X1.4000*%
%ADD124C,1.4000*%
%ADD125P,1.8385X4X180.0*%
%ADD126C,2.4892*%
%ADD127P,1.9799X4X360.0*%
%ADD128R,1.3000X1.3000*%
%ADD129R,1.5500X1.5500*%
%ADD130C,1.1000*%
%ADD131C,0.9652*%
%ADD132C,11.2032*%
%ADD133C,1.9812*%
%ADD134C,1.4732*%
%ADD135C,0.7112*%
D20*
X990600Y1755140D02*
D03*
X976100D02*
D03*
X1915530Y2004060D02*
D03*
X1518550Y2430780D02*
D03*
X1465210Y924560D02*
D03*
X867410Y2456180D02*
D03*
X784860Y1972310D02*
D03*
X779410Y2065020D02*
D03*
X449950Y2019300D02*
D03*
X852910Y2456180D02*
D03*
X464450Y2019300D02*
D03*
X554090Y1551940D02*
D03*
X811000Y1484630D02*
D03*
X848360Y1377950D02*
D03*
X825500Y1504950D02*
D03*
X811000D02*
D03*
X825500Y1484630D02*
D03*
X847990Y1398270D02*
D03*
X833490D02*
D03*
X833860Y1377950D02*
D03*
X770360Y1972310D02*
D03*
X764910Y2065020D02*
D03*
X568590Y1551940D02*
D03*
X1450710Y924560D02*
D03*
X1504050Y2430780D02*
D03*
X1930030Y2004060D02*
D03*
D21*
X407376Y1951990D02*
D03*
X397804D02*
D03*
X442254Y1474470D02*
D03*
X840151Y2419350D02*
D03*
X420076Y1995170D02*
D03*
X1965960Y1393190D02*
D03*
X1956389D02*
D03*
X1265214Y1436370D02*
D03*
X1274786D02*
D03*
X593090Y1545590D02*
D03*
X583519D02*
D03*
X442254Y1353820D02*
D03*
X451826D02*
D03*
X409529Y1350010D02*
D03*
X419100D02*
D03*
X411774Y1322070D02*
D03*
X421346D02*
D03*
X830580Y2419350D02*
D03*
X410504Y1995170D02*
D03*
X1915454Y2053590D02*
D03*
X1925026D02*
D03*
X1947204Y1962150D02*
D03*
X1956776D02*
D03*
X451826Y1474470D02*
D03*
D22*
X918210Y2403983D02*
D03*
X930910D02*
D03*
X943610D02*
D03*
X956310D02*
D03*
X943610Y2349500D02*
D03*
X930910D02*
D03*
X918210D02*
D03*
X956310D02*
D03*
X1428750Y2341308D02*
D03*
X1461770Y954469D02*
D03*
X864870Y978598D02*
D03*
X1390650Y2395791D02*
D03*
X826770Y1033082D02*
D03*
X1423670Y1008951D02*
D03*
Y954469D02*
D03*
X1436370D02*
D03*
X1461770Y1008951D02*
D03*
X1449070D02*
D03*
X1436370D02*
D03*
X1449070Y954469D02*
D03*
X826770Y978598D02*
D03*
X839470D02*
D03*
X852170D02*
D03*
X864870Y1033082D02*
D03*
X852170D02*
D03*
X839470D02*
D03*
X1403350Y2395791D02*
D03*
X1416050D02*
D03*
X1428750D02*
D03*
X1416050Y2341308D02*
D03*
X1403350D02*
D03*
X1390650D02*
D03*
D23*
X1492250Y2353310D02*
D03*
X1515110Y1037590D02*
D03*
X866140Y2352040D02*
D03*
X924560Y990600D02*
D03*
D24*
X1499752Y2343277D02*
D03*
X1522612Y1027557D02*
D03*
X873642Y2342007D02*
D03*
X932062Y980567D02*
D03*
X917058D02*
D03*
X922059D02*
D03*
X927061D02*
D03*
X932062Y1000633D02*
D03*
X927061D02*
D03*
X922059D02*
D03*
X917058D02*
D03*
X858638Y2342007D02*
D03*
X863639D02*
D03*
X868641D02*
D03*
X873642Y2362073D02*
D03*
X868641D02*
D03*
X863639D02*
D03*
X858638D02*
D03*
X1507608Y1047623D02*
D03*
X1512609D02*
D03*
X1517611D02*
D03*
X1522612D02*
D03*
X1517611Y1027557D02*
D03*
X1512609D02*
D03*
X1507608D02*
D03*
X1484748Y2363343D02*
D03*
X1489749D02*
D03*
X1494751D02*
D03*
X1499752D02*
D03*
X1494751Y2343277D02*
D03*
X1489749D02*
D03*
X1484748D02*
D03*
D25*
X1470660Y2357114D02*
D03*
X1375410Y2406653D02*
D03*
X1483360Y2324094D02*
D03*
X1202690Y1743710D02*
D03*
X1578610Y977894D02*
D03*
X1408430Y1041406D02*
D03*
X1497330Y989324D02*
D03*
X1186180Y1631950D02*
D03*
X1216660Y1466850D02*
D03*
X1141730Y1737366D02*
D03*
X833120Y2354574D02*
D03*
X628650Y1752603D02*
D03*
X642614Y1751330D02*
D03*
X604520Y1747520D02*
D03*
X574040Y1667507D02*
D03*
X901700Y993140D02*
D03*
X795020Y1408430D02*
D03*
X647700Y1582420D02*
D03*
X618490Y1582414D02*
D03*
X500380Y1398276D02*
D03*
X1408430Y1036320D02*
D03*
X1375410Y2401567D02*
D03*
X1216660Y1461764D02*
D03*
X500380Y1393190D02*
D03*
X574040Y1672593D02*
D03*
X618490Y1587500D02*
D03*
X647700Y1587506D02*
D03*
X642614Y1746244D02*
D03*
X604520Y1742434D02*
D03*
X628650Y1747517D02*
D03*
X1141730Y1732280D02*
D03*
X1186180Y1637036D02*
D03*
X1202690Y1738624D02*
D03*
X795020Y1413516D02*
D03*
X901712Y998186D02*
D03*
X833120Y2359660D02*
D03*
X1497330Y994410D02*
D03*
X1578610Y982980D02*
D03*
X1483360Y2329180D02*
D03*
X1470660Y2362200D02*
D03*
D26*
X1454150Y2365110D02*
D03*
X1915160Y1305560D02*
D03*
X1536700Y978270D02*
D03*
X815340Y2354050D02*
D03*
X957580Y936360D02*
D03*
X861060Y935620D02*
D03*
X447040Y1274180D02*
D03*
X1915160Y1291060D02*
D03*
X815340Y2368550D02*
D03*
X861060Y921120D02*
D03*
X447040Y1288680D02*
D03*
X1536700Y992770D02*
D03*
X1454150Y2379610D02*
D03*
X957580Y950860D02*
D03*
D29*
X1236980Y2196920D02*
D03*
X1221740Y1760400D02*
D03*
X1151890Y2197100D02*
D03*
X886460Y1419860D02*
D03*
X1151890Y2217600D02*
D03*
X1221740Y1739900D02*
D03*
X886460Y1440360D02*
D03*
X1236980Y2217420D02*
D03*
D30*
X1211580Y2199640D02*
D03*
X1185280Y2209140D02*
D03*
X922470Y1986280D02*
D03*
X1185280Y2199640D02*
D03*
Y2218640D02*
D03*
X1211580D02*
D03*
X896170Y1976780D02*
D03*
Y1995780D02*
D03*
X922470D02*
D03*
Y1976780D02*
D03*
D31*
X1244420Y1708150D02*
D03*
X1264920D02*
D03*
D32*
X1244930Y1687830D02*
D03*
X1254430D02*
D03*
D33*
X1198880Y1798080D02*
D03*
X1173480D02*
D03*
X1198880Y1783080D02*
D03*
X1173480D02*
D03*
D34*
X1199424Y1694020D02*
D03*
X1139916Y1690020D02*
D03*
X1199424Y1662020D02*
D03*
Y1706020D02*
D03*
Y1702020D02*
D03*
Y1698020D02*
D03*
Y1690020D02*
D03*
Y1686020D02*
D03*
Y1682020D02*
D03*
Y1678020D02*
D03*
Y1674020D02*
D03*
Y1670020D02*
D03*
Y1666020D02*
D03*
X1139916Y1662020D02*
D03*
Y1666020D02*
D03*
Y1670020D02*
D03*
Y1674020D02*
D03*
Y1678020D02*
D03*
Y1682020D02*
D03*
Y1686020D02*
D03*
Y1694020D02*
D03*
Y1698020D02*
D03*
Y1702020D02*
D03*
Y1706020D02*
D03*
D36*
X1245864Y1661160D02*
D03*
X1225553D02*
D03*
X908047Y2424430D02*
D03*
X1112514Y1690370D02*
D03*
X842004Y2336800D02*
D03*
X699770Y1717040D02*
D03*
X706126Y1668780D02*
D03*
X1127757Y1644650D02*
D03*
X899160Y980440D02*
D03*
X812797Y1402080D02*
D03*
X797557Y1040130D02*
D03*
X673103Y1621790D02*
D03*
X712470Y1525270D02*
D03*
X913133Y2424430D02*
D03*
X802643Y1040130D02*
D03*
X668017Y1621790D02*
D03*
X701040Y1668780D02*
D03*
X694684Y1717040D02*
D03*
X1117600Y1690370D02*
D03*
X1132843Y1644650D02*
D03*
X1220467Y1661160D02*
D03*
X1250950D02*
D03*
X817883Y1402080D02*
D03*
X717556Y1525270D02*
D03*
X904246Y980440D02*
D03*
X847090Y2336800D02*
D03*
D37*
X1227378Y1649730D02*
D03*
X760018Y1615440D02*
D03*
X1236422Y1649730D02*
D03*
X769062Y1615440D02*
D03*
D38*
X1244670Y1615580D02*
D03*
X1221670Y1633080D02*
D03*
Y1615580D02*
D03*
X1244670Y1633080D02*
D03*
D39*
X1202690Y1638453D02*
D03*
X737870Y1646478D02*
D03*
X1202690Y1629410D02*
D03*
X737870Y1655522D02*
D03*
D40*
X1175670Y1654266D02*
D03*
X1147670Y1713774D02*
D03*
Y1654266D02*
D03*
X1191670D02*
D03*
X1187670D02*
D03*
X1183670D02*
D03*
X1179670D02*
D03*
X1171670D02*
D03*
X1167670D02*
D03*
X1163670D02*
D03*
X1159670D02*
D03*
X1155670D02*
D03*
X1151670D02*
D03*
Y1713774D02*
D03*
X1155670D02*
D03*
X1159670D02*
D03*
X1163670D02*
D03*
X1167670D02*
D03*
X1171670D02*
D03*
X1175670D02*
D03*
X1179670D02*
D03*
X1183670D02*
D03*
X1187670D02*
D03*
X1191670D02*
D03*
D42*
X1234440Y1424450D02*
D03*
Y1394950D02*
D03*
X1120140Y1425230D02*
D03*
Y1395730D02*
D03*
D43*
X1161063Y1450773D02*
D03*
X1167563D02*
D03*
X1174063D02*
D03*
X1180563D02*
D03*
Y1489127D02*
D03*
X1174063D02*
D03*
X1167563D02*
D03*
X1161063D02*
D03*
D45*
X1093330Y2080260D02*
D03*
X1116330D02*
D03*
X1139330D02*
D03*
D46*
X905256Y2175630D02*
D03*
Y2190630D02*
D03*
Y2185630D02*
D03*
Y2180630D02*
D03*
X885444Y2175630D02*
D03*
Y2180630D02*
D03*
Y2185630D02*
D03*
Y2190630D02*
D03*
D47*
X895350Y2183130D02*
D03*
D48*
X885190Y2146594D02*
D03*
X793750Y2415540D02*
D03*
X1953260Y1341414D02*
D03*
Y1350986D02*
D03*
X793750Y2425111D02*
D03*
X1188720Y1406866D02*
D03*
Y1397294D02*
D03*
X1162050Y1406866D02*
D03*
Y1397294D02*
D03*
X1172210Y1616416D02*
D03*
Y1606844D02*
D03*
X885190Y2156166D02*
D03*
X623570Y1547836D02*
D03*
Y1538264D02*
D03*
X862330Y879134D02*
D03*
Y888706D02*
D03*
X932180Y879134D02*
D03*
Y888706D02*
D03*
X1557020Y924854D02*
D03*
Y934426D02*
D03*
X1503680Y898866D02*
D03*
Y889294D02*
D03*
X1488440Y2451394D02*
D03*
Y2460966D02*
D03*
X1464310Y2451394D02*
D03*
Y2460966D02*
D03*
D49*
X949035Y2000250D02*
D03*
X940725D02*
D03*
X972129Y2127250D02*
D03*
X980440D02*
D03*
X772160Y1713230D02*
D03*
X780471D02*
D03*
X791210Y1645920D02*
D03*
X799521D02*
D03*
D51*
X657920Y1714500D02*
D03*
X601920D02*
D03*
X625920D02*
D03*
X629920D02*
D03*
X601920Y1645920D02*
D03*
X641920D02*
D03*
X621920D02*
D03*
X605920Y1714500D02*
D03*
X609920Y1645920D02*
D03*
X649920Y1714500D02*
D03*
X617920D02*
D03*
X605920Y1645920D02*
D03*
X613920D02*
D03*
X617920D02*
D03*
X625920D02*
D03*
X629920D02*
D03*
X633920D02*
D03*
X637920D02*
D03*
X645920D02*
D03*
X649920D02*
D03*
X653920D02*
D03*
X657920D02*
D03*
X653920Y1714500D02*
D03*
X645920D02*
D03*
X641920D02*
D03*
X633920D02*
D03*
X621920D02*
D03*
X613920D02*
D03*
X609920D02*
D03*
X637920D02*
D03*
D52*
X664210Y1704210D02*
D03*
X595630D02*
D03*
Y1696210D02*
D03*
X664210Y1680210D02*
D03*
Y1708210D02*
D03*
X595630Y1680210D02*
D03*
Y1676210D02*
D03*
X664210Y1668210D02*
D03*
Y1652210D02*
D03*
Y1664210D02*
D03*
Y1672210D02*
D03*
Y1676210D02*
D03*
Y1684210D02*
D03*
Y1688210D02*
D03*
Y1692210D02*
D03*
Y1696210D02*
D03*
Y1700210D02*
D03*
X595630Y1708210D02*
D03*
Y1700210D02*
D03*
Y1692210D02*
D03*
Y1688210D02*
D03*
Y1684210D02*
D03*
Y1672210D02*
D03*
Y1668210D02*
D03*
Y1664210D02*
D03*
Y1660210D02*
D03*
Y1656210D02*
D03*
Y1652210D02*
D03*
X664210Y1656210D02*
D03*
Y1660210D02*
D03*
D53*
X1144185Y1590040D02*
D03*
X1149435D02*
D03*
D54*
X1151636Y1460200D02*
D03*
X1189990Y1466700D02*
D03*
Y1460200D02*
D03*
Y1473200D02*
D03*
Y1479700D02*
D03*
X1151636D02*
D03*
Y1473200D02*
D03*
Y1466700D02*
D03*
D55*
X1138239Y1616710D02*
D03*
X1146810D02*
D03*
D60*
X593979Y1611630D02*
D03*
X521081Y1573530D02*
D03*
X593979D02*
D03*
Y1586230D02*
D03*
Y1598930D02*
D03*
X521081Y1611630D02*
D03*
Y1598930D02*
D03*
Y1586230D02*
D03*
D62*
X729220Y1438910D02*
D03*
X730370Y1412240D02*
D03*
X744220Y1438910D02*
D03*
X745370Y1412240D02*
D03*
D64*
X440800Y1451400D02*
D03*
X447300D02*
D03*
X473300Y1393400D02*
D03*
X466800D02*
D03*
X486300D02*
D03*
Y1451400D02*
D03*
X479800D02*
D03*
X473300D02*
D03*
X466800D02*
D03*
X453800D02*
D03*
X440800Y1393400D02*
D03*
X447300D02*
D03*
X453800D02*
D03*
X460300D02*
D03*
X479800D02*
D03*
X460300Y1451400D02*
D03*
D66*
X1567440Y2349123D02*
D03*
X796550Y2332613D02*
D03*
X1554220Y1065014D02*
D03*
X787400Y2351147D02*
D03*
X1563370Y1046480D02*
D03*
X1558290Y2367657D02*
D03*
D67*
X1018917Y974350D02*
D03*
X901700Y2042910D02*
D03*
X920234Y2052060D02*
D03*
X1000383Y965200D02*
D03*
D68*
X1116330Y2143260D02*
D03*
D72*
X1198680Y1762760D02*
D03*
X1173680D02*
D03*
D73*
X1289050Y1714423D02*
D03*
Y1692910D02*
D03*
D74*
X1211580Y1718310D02*
D03*
X1227580D02*
D03*
D75*
X1219190Y1409700D02*
D03*
X1135390Y1410480D02*
D03*
D76*
X1173480Y1514159D02*
D03*
Y1522730D02*
D03*
D77*
X1172210Y1569720D02*
D03*
Y1553198D02*
D03*
D78*
X887510Y1931670D02*
D03*
X923510D02*
D03*
D80*
X901700Y2061210D02*
D03*
X1018917Y956050D02*
D03*
D81*
X624840Y1492250D02*
D03*
Y1483939D02*
D03*
D82*
X544806Y1672590D02*
D03*
X537234D02*
D03*
X544806Y1656080D02*
D03*
X537234D02*
D03*
D83*
X544830Y1702618D02*
D03*
Y1689100D02*
D03*
D84*
X1572520Y1065014D02*
D03*
X1549140Y2349123D02*
D03*
X778250Y2332613D02*
D03*
D86*
X770890Y1441250D02*
D03*
Y1416250D02*
D03*
D87*
X843665Y1418950D02*
D03*
Y1428950D02*
D03*
Y1438950D02*
D03*
Y1443950D02*
D03*
Y1453950D02*
D03*
Y1463950D02*
D03*
X812415Y1418950D02*
D03*
X812415Y1428950D02*
D03*
X812415Y1438950D02*
D03*
Y1443950D02*
D03*
X812415Y1453950D02*
D03*
X812415Y1463950D02*
D03*
D88*
X843665Y1423950D02*
D03*
Y1433950D02*
D03*
Y1448950D02*
D03*
Y1458950D02*
D03*
X812415Y1423950D02*
D03*
Y1433950D02*
D03*
Y1448950D02*
D03*
Y1458950D02*
D03*
D89*
X820540Y1418325D02*
D03*
X835540D02*
D03*
Y1464575D02*
D03*
X820540D02*
D03*
D90*
X825540Y1418325D02*
D03*
X830540D02*
D03*
Y1464575D02*
D03*
X825540D02*
D03*
D91*
X803327Y2450597D02*
D03*
X897194Y2489478D02*
D03*
X401823Y2049093D02*
D03*
X362942Y1955226D02*
D03*
X1960377Y2049093D02*
D03*
X1999258Y1955226D02*
D03*
X1960377Y1293547D02*
D03*
X1999258Y1387414D02*
D03*
X1558283Y2448890D02*
D03*
X1464417Y2487771D02*
D03*
X362942Y1387414D02*
D03*
X401823Y1293547D02*
D03*
X897194Y853162D02*
D03*
X803327Y892043D02*
D03*
X1465006Y853162D02*
D03*
X1558873Y892043D02*
D03*
D92*
X821100Y2540437D02*
D03*
X311983Y2031320D02*
D03*
X2050217D02*
D03*
Y1311320D02*
D03*
X1540510Y2538730D02*
D03*
X311983Y1311320D02*
D03*
X821100Y802203D02*
D03*
X1541100D02*
D03*
D93*
X744444Y2175420D02*
D03*
X683350Y2114326D02*
D03*
D94*
X745080Y2000250D02*
D03*
X725580D02*
D03*
X745080Y1973580D02*
D03*
X725580D02*
D03*
D95*
X1350190Y2391410D02*
D03*
X1351100Y2316480D02*
D03*
X1419680Y1083310D02*
D03*
X942520Y2287270D02*
D03*
X976450Y2179320D02*
D03*
X1027610Y2128520D02*
D03*
X796290Y1083310D02*
D03*
X922020Y2287270D02*
D03*
X1371600Y2316480D02*
D03*
X997130Y2207260D02*
D03*
X976630D02*
D03*
X948780D02*
D03*
X928280D02*
D03*
X996950Y2179320D02*
D03*
X1007110Y2128520D02*
D03*
X789940Y2000250D02*
D03*
X1440180Y1083310D02*
D03*
X1329690Y2391410D02*
D03*
X769440Y2000250D02*
D03*
X1009740Y2018030D02*
D03*
X989240D02*
D03*
X816790Y1083310D02*
D03*
D96*
X1292380Y1905820D02*
D03*
X1277380D02*
D03*
X1262380D02*
D03*
X698740Y1881280D02*
D03*
X728740D02*
D03*
X713740D02*
D03*
X1262380Y1861820D02*
D03*
X1277380D02*
D03*
X1292380D02*
D03*
X698740Y1837280D02*
D03*
X713740D02*
D03*
X728740D02*
D03*
D97*
X1379438Y1009522D02*
D03*
X922020Y2128340D02*
D03*
X894080Y2424250D02*
D03*
X783590Y1002210D02*
D03*
X894080Y2444750D02*
D03*
X922020Y2148840D02*
D03*
X783590Y981710D02*
D03*
X1379438Y989022D02*
D03*
D98*
X1277620Y1470560D02*
D03*
X1257300Y1470460D02*
D03*
X1018540Y1997710D02*
D03*
X993140Y1997610D02*
D03*
X1005840D02*
D03*
X979170Y1997510D02*
D03*
X577850Y1702970D02*
D03*
X563880D02*
D03*
X515620Y1541880D02*
D03*
X1257300Y1457960D02*
D03*
X1277620Y1458060D02*
D03*
X577850Y1690470D02*
D03*
X515620Y1554380D02*
D03*
X1018540Y1985210D02*
D03*
X1005840Y1985110D02*
D03*
X993140D02*
D03*
X979170Y1985010D02*
D03*
X563880Y1690470D02*
D03*
D99*
X940970Y2189480D02*
D03*
X1126590Y2056130D02*
D03*
Y2039620D02*
D03*
X1094840Y2054860D02*
D03*
Y2038350D02*
D03*
X953770Y1983740D02*
D03*
X777140Y2086610D02*
D03*
X714810Y1690370D02*
D03*
X553720Y1736090D02*
D03*
X566220D02*
D03*
X702310Y1690370D02*
D03*
X1107340Y2038350D02*
D03*
Y2054860D02*
D03*
X1139090Y2039620D02*
D03*
Y2056130D02*
D03*
X966270Y1983740D02*
D03*
X764640Y2086610D02*
D03*
X928470Y2189480D02*
D03*
D100*
X1169670Y1684020D02*
D03*
D101*
X1036320Y1815580D02*
D03*
X783590Y1833360D02*
D03*
Y1768360D02*
D03*
X1036320Y1750580D02*
D03*
D102*
X629920Y1680210D02*
D03*
D103*
X1170813Y1469950D02*
D03*
D104*
X770610Y1657490D02*
D03*
X753110Y1634490D02*
D03*
X770610D02*
D03*
X753110Y1657490D02*
D03*
D105*
X716195Y1553255D02*
D03*
X706195D02*
D03*
X711195Y1538005D02*
D03*
X706195D02*
D03*
X716195D02*
D03*
X711195Y1553255D02*
D03*
D106*
X718820Y1543130D02*
D03*
X703570D02*
D03*
Y1548130D02*
D03*
X718820D02*
D03*
D107*
X537730Y1485900D02*
D03*
X602730D02*
D03*
D108*
X933350Y2315210D02*
D03*
X932180Y2454910D02*
D03*
X944680D02*
D03*
X920850Y2315210D02*
D03*
X836930Y955040D02*
D03*
X824430D02*
D03*
X1444190Y1038860D02*
D03*
X1456690D02*
D03*
X1403450Y2421890D02*
D03*
X1415950D02*
D03*
X1390850Y2316480D02*
D03*
X1403350D02*
D03*
X839470Y1060450D02*
D03*
X851970D02*
D03*
D109*
X580390Y1730040D02*
D03*
Y1717040D02*
D03*
D110*
X1277620Y1829200D02*
D03*
Y1815700D02*
D03*
X712470Y1797850D02*
D03*
Y1784350D02*
D03*
D111*
X1263650Y1830510D02*
D03*
Y1822010D02*
D03*
X1292860Y1829240D02*
D03*
Y1820740D02*
D03*
X731520Y1796660D02*
D03*
Y1788160D02*
D03*
X690880Y1797930D02*
D03*
Y1789430D02*
D03*
D112*
X812415Y1423950D02*
D03*
D113*
X962660Y1960020D02*
D03*
Y1916020D02*
D03*
X861060Y2017620D02*
D03*
Y2061620D02*
D03*
D114*
X949960Y2128070D02*
D03*
Y2147570D02*
D03*
D115*
X1371600Y938530D02*
D03*
Y926030D02*
D03*
D116*
X1535430Y1963420D02*
D03*
X1059180D02*
D03*
Y1351280D02*
D03*
X1535430D02*
D03*
D117*
X774850Y2145014D02*
D03*
X713756Y2083920D02*
D03*
D118*
X756854Y2119947D02*
D03*
X750844Y2113937D02*
D03*
X744833Y2107926D02*
D03*
X738823Y2101916D02*
D03*
X717256Y2099441D02*
D03*
X723266Y2105452D02*
D03*
X729277Y2111462D02*
D03*
X735287Y2117472D02*
D03*
X741298Y2123483D02*
D03*
X747308Y2129493D02*
D03*
X753318Y2135504D02*
D03*
X759329Y2141514D02*
D03*
X732812Y2095906D02*
D03*
X762864Y2125958D02*
D03*
X726802Y2089895D02*
D03*
D119*
X745505Y2174359D02*
D03*
X684411Y2113265D02*
D03*
D120*
X768875Y2131968D02*
D03*
D121*
X1228720Y2327910D02*
D03*
X1148720D02*
D03*
X645160Y1978660D02*
D03*
X743294Y1171866D02*
D03*
X686726Y1228434D02*
D03*
X885190Y1681880D02*
D03*
X959020Y1681680D02*
D03*
X960120Y1566310D02*
D03*
D122*
X1208720Y2327910D02*
D03*
X1188720D02*
D03*
X700868Y1214292D02*
D03*
X715010Y1200150D02*
D03*
D123*
X561510Y1853330D02*
D03*
D124*
X648416Y1393744D02*
D03*
X789838Y1252322D02*
D03*
X772160Y1270000D02*
D03*
X754482Y1287678D02*
D03*
X736805Y1305355D02*
D03*
X719127Y1323033D02*
D03*
X701449Y1340711D02*
D03*
X683772Y1358388D02*
D03*
X666094Y1376066D02*
D03*
X561510Y1903330D02*
D03*
Y1878330D02*
D03*
D125*
X729152Y1186008D02*
D03*
D126*
X1614170Y1657350D02*
D03*
D127*
X807515Y1234645D02*
D03*
D128*
X1168720Y2327910D02*
D03*
D129*
X645160Y2003660D02*
D03*
X885190Y1706880D02*
D03*
X959020Y1706680D02*
D03*
X960120Y1591310D02*
D03*
D130*
X541510Y1919330D02*
D03*
D131*
X721950Y1669460D02*
D03*
X1893549Y2004714D02*
D03*
X1819910Y1675130D02*
D03*
X1807513Y1768143D02*
D03*
X1832610Y1755907D02*
D03*
X1529080Y2444750D02*
D03*
X1516380Y2359660D02*
D03*
X1845310Y1718310D02*
D03*
X1671320Y1704340D02*
D03*
X1664015Y1744665D02*
D03*
X1630680Y1717040D02*
D03*
X1350190Y2354580D02*
D03*
X1451610Y2330450D02*
D03*
X1277620Y1968500D02*
D03*
X1188720Y2172970D02*
D03*
X1260727Y1744260D02*
D03*
X1186180Y1816100D02*
D03*
X1623060Y1680210D02*
D03*
X1915160Y1325920D02*
D03*
X1543050Y1024890D02*
D03*
X1488440Y1037590D02*
D03*
X1400810Y1083310D02*
D03*
X1380708Y1032292D02*
D03*
X1510030Y974090D02*
D03*
X1247140Y1673860D02*
D03*
X1267460Y1621790D02*
D03*
X1290320Y1473200D02*
D03*
X1234440Y1409700D02*
D03*
X957580Y2316142D02*
D03*
X1027610Y2147390D02*
D03*
X949960Y2171700D02*
D03*
X865277Y2429917D02*
D03*
X905256Y2154936D02*
D03*
X1137420Y1742088D02*
D03*
X1116766Y2011680D02*
D03*
X1101090D02*
D03*
X999490Y1826260D02*
D03*
X1028700Y1695450D02*
D03*
X940240Y1975290D02*
D03*
X820420Y2338070D02*
D03*
X800100Y1972310D02*
D03*
X787400Y1856740D02*
D03*
X424180Y2019300D02*
D03*
X713740Y1910080D02*
D03*
X628650Y1766570D02*
D03*
X586740Y1762760D02*
D03*
X730250Y1690370D02*
D03*
X715010Y1717040D02*
D03*
X793750Y1668780D02*
D03*
X562610Y1717040D02*
D03*
X621030Y1689100D02*
D03*
X636270Y1688120D02*
D03*
X629920Y1672590D02*
D03*
X1117600Y1634413D02*
D03*
X1134319Y1452878D02*
D03*
X792480Y1452880D02*
D03*
X1120140Y1410480D02*
D03*
X948690Y991870D02*
D03*
X896990Y935620D02*
D03*
X863600Y1405890D02*
D03*
X796290Y1393190D02*
D03*
X734060Y1625600D02*
D03*
X542293Y1635760D02*
D03*
X576580Y1631950D02*
D03*
X690880Y1620520D02*
D03*
X647700Y1567180D02*
D03*
X618490Y1566101D02*
D03*
X774700Y1050290D02*
D03*
X711245Y1426165D02*
D03*
X697837Y1522730D02*
D03*
X515620D02*
D03*
X511804Y1409700D02*
D03*
X421788Y1451400D02*
D03*
X398428Y1262380D02*
D03*
X918063Y2456327D02*
D03*
X521771Y1349811D02*
D03*
X509821Y1338580D02*
D03*
X849630Y2280920D02*
D03*
X690880Y1689100D02*
D03*
X1427480Y1040130D02*
D03*
X1531620Y1065530D02*
D03*
X890270Y2400300D02*
D03*
X810260Y1055370D02*
D03*
X1038860Y974090D02*
D03*
X618490Y1602740D02*
D03*
X558800Y1661160D02*
D03*
X647700Y1602930D02*
D03*
X676910Y1604010D02*
D03*
X679450Y1717040D02*
D03*
X593090Y1731004D02*
D03*
X565150Y1750060D02*
D03*
X685800Y1666939D02*
D03*
X514350Y1393190D02*
D03*
X1107440Y2176780D02*
D03*
X1868170Y1648460D02*
D03*
X628650Y1732280D02*
D03*
X1126490Y2176780D02*
D03*
X959597Y1774190D02*
D03*
X1290320Y1447800D02*
D03*
X1245668Y1734596D02*
D03*
X1878330Y1737360D02*
D03*
X1132419Y1719353D02*
D03*
X1130427Y1652188D02*
D03*
X533865Y1541315D02*
D03*
X814070Y2315210D02*
D03*
X1028700Y1678940D02*
D03*
X1210984Y1661160D02*
D03*
X1567180Y2328360D02*
D03*
X836930Y1643380D02*
D03*
X807720Y1614170D02*
D03*
X1162050Y1643380D02*
D03*
X1151193Y1638042D02*
D03*
X1233170Y1686560D02*
D03*
X1223010Y1694550D02*
D03*
X1219238Y1669806D02*
D03*
X1211624Y1690052D02*
D03*
X1052830Y1678940D02*
D03*
X1126523Y1685313D02*
D03*
X1097503Y1725457D02*
D03*
X1106170Y1734820D02*
D03*
X1149418Y1774121D02*
D03*
X652780Y1751330D02*
D03*
X669290Y1743710D02*
D03*
X871220Y2294890D02*
D03*
X848450Y2289900D02*
D03*
X1504950Y2379980D02*
D03*
X1494835Y2393905D02*
D03*
X903785Y1018540D02*
D03*
X896620Y1007110D02*
D03*
X473710Y1483360D02*
D03*
X453390Y1376680D02*
D03*
X632460Y1615440D02*
D03*
X455930Y1365250D02*
D03*
X654050Y1513840D02*
D03*
X465099Y1352271D02*
D03*
X939800Y2038805D02*
D03*
X902970Y2207260D02*
D03*
X800100Y2038350D02*
D03*
X806450Y2000250D02*
D03*
X748030Y2080688D02*
D03*
X698500Y1988820D02*
D03*
X692150Y1729740D02*
D03*
X689610Y1752600D02*
D03*
X725170Y1639570D02*
D03*
X712470Y1600200D02*
D03*
X718820Y1584960D02*
D03*
X1233170Y1673370D02*
D03*
X1074918Y1685372D02*
D03*
X1040130Y953770D02*
D03*
X1567180Y1085850D02*
D03*
X1529080Y2343150D02*
D03*
X783590Y2311400D02*
D03*
X1499870Y2319020D02*
D03*
X1214120Y2240280D02*
D03*
X858520Y2325370D02*
D03*
X515620Y1656080D02*
D03*
X624840Y1508760D02*
D03*
X515620Y1672590D02*
D03*
X891540Y1032510D02*
D03*
X1122680Y986790D02*
D03*
X844550Y2324100D02*
D03*
X1468120Y2338070D02*
D03*
X1323340Y986790D02*
D03*
X927100Y960120D02*
D03*
X902598Y964828D02*
D03*
X1494590Y1074243D02*
D03*
X1490948Y1059180D02*
D03*
X1103984Y1704354D02*
D03*
X1064988Y1680370D02*
D03*
X1060414Y1654809D02*
D03*
X1049739Y1664204D02*
D03*
X1122874Y1519723D02*
D03*
X1078230Y1560830D02*
D03*
X1093470Y1569904D02*
D03*
X1106170Y1581150D02*
D03*
X1117007Y1591673D02*
D03*
X1178560Y1738996D02*
D03*
X1243330Y1783080D02*
D03*
X1220470Y1490980D02*
D03*
X1205859Y1490758D02*
D03*
X1292860Y1807120D02*
D03*
X1277438Y1800677D02*
D03*
X1263650Y1811020D02*
D03*
X1158240Y1728470D02*
D03*
X1159510Y1741170D02*
D03*
X1233126Y1490218D02*
D03*
X841912Y922118D02*
D03*
X868680Y1473200D02*
D03*
X781050Y1485900D02*
D03*
X833959Y1357199D02*
D03*
X831850Y1525270D02*
D03*
X791210Y1517650D02*
D03*
X864870Y1390650D02*
D03*
X866140Y1421130D02*
D03*
X867410Y1436370D02*
D03*
X585470Y1275080D02*
D03*
X748030Y1717040D02*
D03*
X735330Y1548130D02*
D03*
X735926Y1529676D02*
D03*
X679495Y1573575D02*
D03*
X638810Y1784350D02*
D03*
X623570Y1785620D02*
D03*
X895350Y2020570D02*
D03*
X819150Y2062480D02*
D03*
X791210Y2153920D02*
D03*
X607060Y1545590D02*
D03*
X721360Y1653540D02*
D03*
X706120Y1647825D02*
D03*
X595630Y1781810D02*
D03*
X715010Y1628140D02*
D03*
X701040Y1586230D02*
D03*
X699770Y1600200D02*
D03*
X623570Y1630680D02*
D03*
X812800Y961390D02*
D03*
X944880Y969010D02*
D03*
X875030Y2326640D02*
D03*
X1559560Y1003300D02*
D03*
X1513840Y997536D02*
D03*
X1490149Y1012386D02*
D03*
D132*
X821100Y2540437D02*
D03*
X311983Y2031320D02*
D03*
X2050217D02*
D03*
Y1311320D02*
D03*
X1540510Y2538730D02*
D03*
X311983Y1311320D02*
D03*
X821100Y802203D02*
D03*
X1541100D02*
D03*
D133*
X897194Y2489478D02*
D03*
X803327Y2450597D02*
D03*
X362942Y1955226D02*
D03*
X401823Y2049093D02*
D03*
X1999258Y1955226D02*
D03*
X1960377Y2049093D02*
D03*
X1999258Y1387414D02*
D03*
X1960377Y1293547D02*
D03*
X1464417Y2487771D02*
D03*
X1558283Y2448890D02*
D03*
X401823Y1293547D02*
D03*
X362942Y1387414D02*
D03*
X803327Y892043D02*
D03*
X897194Y853162D02*
D03*
X1558873Y892043D02*
D03*
X1465006Y853162D02*
D03*
D134*
X1733550Y1752600D02*
D03*
Y1676400D02*
D03*
X1828800Y1866900D02*
D03*
X1847850Y1828800D02*
D03*
X1809750D02*
D03*
X1790700Y1790700D02*
D03*
X1752600Y1866900D02*
D03*
X1790700D02*
D03*
X1714500D02*
D03*
X1695450Y1828800D02*
D03*
X1771650D02*
D03*
X1752600Y1790700D02*
D03*
X1733550Y1828800D02*
D03*
X1714500Y1790700D02*
D03*
X1828800D02*
D03*
X1847850Y1752600D02*
D03*
X1771650D02*
D03*
X1600200Y1866900D02*
D03*
X1638300D02*
D03*
X1524000D02*
D03*
X1562100D02*
D03*
X1485900D02*
D03*
X1676400D02*
D03*
X1657350Y1828800D02*
D03*
X1619250D02*
D03*
X1600200Y1790700D02*
D03*
X1638300D02*
D03*
X1676400D02*
D03*
X1581150Y1752600D02*
D03*
X1619250D02*
D03*
X1543050Y1828800D02*
D03*
X1581150D02*
D03*
X1504950D02*
D03*
X1524000Y1790700D02*
D03*
X1562100D02*
D03*
X1543050Y1752600D02*
D03*
X1504950D02*
D03*
X1752600Y1714500D02*
D03*
X1562100D02*
D03*
X1485900D02*
D03*
X1524000D02*
D03*
X1600200D02*
D03*
X1447800Y1866900D02*
D03*
X1409700D02*
D03*
X1466850Y1828800D02*
D03*
X1485900Y1790700D02*
D03*
X1428750Y1828800D02*
D03*
X1409700Y1790700D02*
D03*
X1390650Y1752600D02*
D03*
X1428750D02*
D03*
X1390650Y1828800D02*
D03*
X1371600Y1790700D02*
D03*
Y1866900D02*
D03*
X1466850Y1752600D02*
D03*
X1409700Y1714500D02*
D03*
X1447800D02*
D03*
X1371600D02*
D03*
X1771650Y1676400D02*
D03*
X1714500Y1638300D02*
D03*
X1676400D02*
D03*
X1828800D02*
D03*
X1847850Y1600200D02*
D03*
X1771650D02*
D03*
X1809750D02*
D03*
X1828800Y1562100D02*
D03*
X1847850Y1524000D02*
D03*
X1752600Y1562100D02*
D03*
X1790700D02*
D03*
X1752600Y1638300D02*
D03*
X1733550Y1600200D02*
D03*
X1657350D02*
D03*
X1695450D02*
D03*
X1714500Y1562100D02*
D03*
X1695450Y1524000D02*
D03*
X1676400Y1562100D02*
D03*
X1543050Y1676400D02*
D03*
X1581150D02*
D03*
X1600200Y1638300D02*
D03*
X1638300D02*
D03*
X1524000D02*
D03*
X1562100D02*
D03*
X1466850Y1676400D02*
D03*
X1504950D02*
D03*
X1390650D02*
D03*
X1428750D02*
D03*
X1447800Y1638300D02*
D03*
X1485900D02*
D03*
X1409700D02*
D03*
X1390650Y1600200D02*
D03*
X1581150D02*
D03*
X1619250D02*
D03*
X1543050D02*
D03*
X1600200Y1562100D02*
D03*
X1638300D02*
D03*
X1524000D02*
D03*
X1562100D02*
D03*
X1466850Y1600200D02*
D03*
X1504950D02*
D03*
X1428750D02*
D03*
X1409700Y1562100D02*
D03*
X1447800D02*
D03*
X1485900D02*
D03*
X1390650Y1524000D02*
D03*
X1771650D02*
D03*
X1809750D02*
D03*
X1733550D02*
D03*
X1676400Y1485900D02*
D03*
X1790700D02*
D03*
X1828800D02*
D03*
X1714500D02*
D03*
X1752600D02*
D03*
X1619250Y1524000D02*
D03*
X1657350D02*
D03*
X1543050D02*
D03*
X1581150D02*
D03*
X1600200Y1485900D02*
D03*
X1638300D02*
D03*
X1524000D02*
D03*
X1562100D02*
D03*
X1466850Y1524000D02*
D03*
X1504950D02*
D03*
X1428750D02*
D03*
X1447800Y1485900D02*
D03*
X1485900D02*
D03*
X1409700D02*
D03*
X1371600Y1638300D02*
D03*
Y1562100D02*
D03*
Y1485900D02*
D03*
D135*
X1797050Y1771650D02*
D03*
X1784350D02*
D03*
X1441450Y1785620D02*
D03*
X1452880D02*
D03*
X1480820Y924560D02*
D03*
X1191260Y1610360D02*
D03*
X1181100Y1620520D02*
D03*
Y1610360D02*
D03*
X1188720Y1596390D02*
D03*
X1181100Y1591310D02*
D03*
Y1601470D02*
D03*
X1192530Y1560830D02*
D03*
X1200150Y1430020D02*
D03*
X1215390Y1427480D02*
D03*
X1223010Y1398270D02*
D03*
X1207770Y1423670D02*
D03*
X1202690Y1407160D02*
D03*
X1196340Y1416050D02*
D03*
X1197610Y1403350D02*
D03*
X1212850Y1398270D02*
D03*
X1201420Y1394460D02*
D03*
X1198880Y1385570D02*
D03*
X1191260Y1574800D02*
D03*
X1188720Y1551940D02*
D03*
Y1586230D02*
D03*
X1183640Y1569720D02*
D03*
X1191260Y1512570D02*
D03*
Y1502410D02*
D03*
X1189990Y1537970D02*
D03*
X1188720Y1525270D02*
D03*
X1182370Y1545590D02*
D03*
Y1531620D02*
D03*
Y1578610D02*
D03*
Y1558290D02*
D03*
Y1518920D02*
D03*
Y1504950D02*
D03*
X1165860D02*
D03*
X1181100Y1431290D02*
D03*
X1187450Y1424940D02*
D03*
X1173480Y1413510D02*
D03*
X1179830Y1404620D02*
D03*
Y1385570D02*
D03*
X1188720D02*
D03*
X1179830Y1394460D02*
D03*
X1170940Y1388110D02*
D03*
Y1404620D02*
D03*
X1165860Y1629410D02*
D03*
X1163320Y1596390D02*
D03*
X1159510Y1623060D02*
D03*
X1162050Y1609090D02*
D03*
Y1582420D02*
D03*
Y1562100D02*
D03*
X1155700Y1568450D02*
D03*
X1153160Y1555750D02*
D03*
X1151890Y1626870D02*
D03*
X1150620Y1607820D02*
D03*
X1151890Y1596390D02*
D03*
Y1582420D02*
D03*
X1162050Y1536700D02*
D03*
X1164590Y1525270D02*
D03*
X1159510Y1549400D02*
D03*
X1156970Y1529080D02*
D03*
X1164590Y1515110D02*
D03*
X1159510Y1511300D02*
D03*
X1160780Y1426210D02*
D03*
X1154430Y1540510D02*
D03*
Y1520190D02*
D03*
X1155700Y1441450D02*
D03*
X1151890Y1417320D02*
D03*
X1148080Y1433830D02*
D03*
X1139190Y1626870D02*
D03*
Y1426210D02*
D03*
X1129030Y1422400D02*
D03*
X1151890Y1407160D02*
D03*
Y1398270D02*
D03*
X1130300Y1399540D02*
D03*
X1151890Y1388110D02*
D03*
X1162050D02*
D03*
X1141730Y1397000D02*
D03*
X819150Y2019300D02*
D03*
X810465Y2027985D02*
D03*
M02*
