G04*
G04 #@! TF.GenerationSoftware,Altium Limited,Altium Designer,25.8.1 (18)*
G04*
G04 Layer_Color=128*
%FSLAX44Y44*%
%MOMM*%
G71*
G04*
G04 #@! TF.SameCoordinates,1712F0CB-3B61-41A3-BC14-C9FE2E182D8B*
G04*
G04*
G04 #@! TF.FilePolarity,Positive*
G04*
G01*
G75*
%ADD20R,0.6500X0.9000*%
%ADD21R,0.7154X0.6725*%
%ADD25R,0.2627X0.3541*%
%ADD26R,0.9000X0.6500*%
%ADD48R,0.6725X0.7154*%
%ADD82R,0.5153X0.4725*%
%ADD168R,1.1810X0.7874*%
%ADD169R,0.4541X0.3627*%
%ADD170R,0.5200X0.5600*%
%ADD173R,0.3627X0.4541*%
%ADD174R,0.4100X0.6600*%
%ADD177C,0.1250*%
D20*
X1834410Y1714500D02*
D03*
X1819910D02*
D03*
D21*
X1671909Y1685290D02*
D03*
X1681480D02*
D03*
D25*
X1844040Y1678934D02*
D03*
Y1684020D02*
D03*
D26*
X1657350Y1712700D02*
D03*
X1793240Y1637400D02*
D03*
X1657350Y1727200D02*
D03*
X1793240Y1651900D02*
D03*
D48*
X1600200Y1674449D02*
D03*
Y1684020D02*
D03*
D82*
X1840206Y1697990D02*
D03*
X1832634D02*
D03*
D168*
X1793431Y1762310D02*
D03*
X1699069Y1696310D02*
D03*
Y1674310D02*
D03*
X1793431Y1674310D02*
D03*
Y1685310D02*
D03*
Y1696310D02*
D03*
Y1707310D02*
D03*
Y1718310D02*
D03*
Y1729310D02*
D03*
Y1740310D02*
D03*
Y1751310D02*
D03*
X1699069Y1762310D02*
D03*
Y1751310D02*
D03*
Y1740310D02*
D03*
Y1729310D02*
D03*
Y1718310D02*
D03*
Y1685310D02*
D03*
Y1707310D02*
D03*
D169*
X1828033Y1751330D02*
D03*
X1827530Y1739900D02*
D03*
Y1728470D02*
D03*
X1667830Y1735456D02*
D03*
X1673916D02*
D03*
X1821947Y1751330D02*
D03*
X1821444Y1739900D02*
D03*
Y1728470D02*
D03*
D170*
X1642110Y1715950D02*
D03*
Y1708150D02*
D03*
D173*
X1830070Y1677934D02*
D03*
Y1684020D02*
D03*
D174*
X1614110Y1697990D02*
D03*
X1604010D02*
D03*
D177*
X1631305Y1703260D02*
G03*
X1631305Y1703260I-625J0D01*
G01*
Y1699260D02*
G03*
X1631305Y1699260I-625J0D01*
G01*
Y1695260D02*
G03*
X1631305Y1695260I-625J0D01*
G01*
X1627305D02*
G03*
X1627305Y1695260I-625J0D01*
G01*
Y1699260D02*
G03*
X1627305Y1699260I-625J0D01*
G01*
Y1703260D02*
G03*
X1627305Y1703260I-625J0D01*
G01*
M02*
