G04*
G04 #@! TF.GenerationSoftware,Altium Limited,Altium Designer,25.8.1 (18)*
G04*
G04 Layer_Color=16711935*
%FSLAX44Y44*%
%MOMM*%
G71*
G04*
G04 #@! TF.SameCoordinates,1712F0CB-3B61-41A3-BC14-C9FE2E182D8B*
G04*
G04*
G04 #@! TF.FilePolarity,Negative*
G04*
G01*
G75*
%ADD20R,0.6500X0.9000*%
%ADD21R,0.7154X0.6725*%
%ADD25R,0.2627X0.3541*%
%ADD26R,0.9000X0.6500*%
%ADD48R,0.6725X0.7154*%
%ADD82R,0.5153X0.4725*%
G04:AMPARAMS|DCode=93|XSize=1.3mm|YSize=2.5mm|CornerRadius=0.65mm|HoleSize=0mm|Usage=FLASHONLY|Rotation=225.000|XOffset=0mm|YOffset=0mm|HoleType=Round|Shape=RoundedRectangle|*
%AMROUNDEDRECTD93*
21,1,1.3000,1.2000,0,0,225.0*
21,1,0.0000,2.5000,0,0,225.0*
1,1,1.3000,-0.4243,0.4243*
1,1,1.3000,-0.4243,0.4243*
1,1,1.3000,0.4243,-0.4243*
1,1,1.3000,0.4243,-0.4243*
%
%ADD93ROUNDEDRECTD93*%
%ADD116C,5.2832*%
G04:AMPARAMS|DCode=117|XSize=1.3mm|YSize=3.2mm|CornerRadius=0.65mm|HoleSize=0mm|Usage=FLASHONLY|Rotation=225.000|XOffset=0mm|YOffset=0mm|HoleType=Round|Shape=RoundedRectangle|*
%AMROUNDEDRECTD117*
21,1,1.3000,1.9000,0,0,225.0*
21,1,0.0000,3.2000,0,0,225.0*
1,1,1.3000,-0.6718,0.6718*
1,1,1.3000,-0.6718,0.6718*
1,1,1.3000,0.6718,-0.6718*
1,1,1.3000,0.6718,-0.6718*
%
%ADD117ROUNDEDRECTD117*%
%ADD118C,0.7000*%
G04:AMPARAMS|DCode=119|XSize=0.7mm|YSize=1.6mm|CornerRadius=0.35mm|HoleSize=0mm|Usage=FLASHONLY|Rotation=225.000|XOffset=0mm|YOffset=0mm|HoleType=Round|Shape=RoundedRectangle|*
%AMROUNDEDRECTD119*
21,1,0.7000,0.9000,0,0,225.0*
21,1,0.0000,1.6000,0,0,225.0*
1,1,0.7000,-0.3182,0.3182*
1,1,0.7000,-0.3182,0.3182*
1,1,0.7000,0.3182,-0.3182*
1,1,0.7000,0.3182,-0.3182*
%
%ADD119ROUNDEDRECTD119*%
%ADD120P,0.9900X4X270.0*%
%ADD121C,1.5500*%
%ADD122C,1.3000*%
%ADD123R,1.4000X1.4000*%
%ADD124C,1.4000*%
%ADD125P,1.8385X4X180.0*%
%ADD126C,2.4892*%
%ADD127P,1.9799X4X360.0*%
%ADD128R,1.3000X1.3000*%
%ADD129R,1.5500X1.5500*%
%ADD130C,1.1000*%
%ADD131C,0.9652*%
%ADD132C,11.2032*%
%ADD133C,1.9812*%
%ADD134C,1.4732*%
%ADD135C,0.7112*%
%ADD168R,1.1810X0.7874*%
%ADD169R,0.4541X0.3627*%
%ADD171R,0.2500X0.2500*%
%ADD173R,0.3627X0.4541*%
%ADD174R,0.4100X0.6600*%
%ADD176R,0.5708X0.6108*%
D20*
X1834410Y1714500D02*
D03*
X1819910D02*
D03*
D21*
X1671909Y1685290D02*
D03*
X1681480D02*
D03*
D25*
X1844040Y1678934D02*
D03*
Y1684020D02*
D03*
D26*
X1657350Y1712700D02*
D03*
X1793240Y1637400D02*
D03*
X1657350Y1727200D02*
D03*
X1793240Y1651900D02*
D03*
D48*
X1600200Y1674449D02*
D03*
Y1684020D02*
D03*
D82*
X1840206Y1697990D02*
D03*
X1832634D02*
D03*
D93*
X683350Y2114326D02*
D03*
X744444Y2175420D02*
D03*
D116*
X1535430Y1963420D02*
D03*
X1059180D02*
D03*
Y1351280D02*
D03*
X1535430D02*
D03*
D117*
X774850Y2145014D02*
D03*
X713756Y2083920D02*
D03*
D118*
X756854Y2119947D02*
D03*
X750844Y2113937D02*
D03*
X744833Y2107926D02*
D03*
X738823Y2101916D02*
D03*
X717256Y2099441D02*
D03*
X723266Y2105452D02*
D03*
X729277Y2111462D02*
D03*
X735287Y2117472D02*
D03*
X741298Y2123483D02*
D03*
X747308Y2129493D02*
D03*
X753318Y2135504D02*
D03*
X759329Y2141514D02*
D03*
X732812Y2095906D02*
D03*
X762864Y2125958D02*
D03*
X726802Y2089895D02*
D03*
D119*
X745505Y2174359D02*
D03*
X684411Y2113265D02*
D03*
D120*
X768875Y2131968D02*
D03*
D121*
X1228720Y2327910D02*
D03*
X1148720D02*
D03*
X645160Y1978660D02*
D03*
X743294Y1171866D02*
D03*
X686726Y1228434D02*
D03*
X885190Y1681880D02*
D03*
X959020Y1681680D02*
D03*
X960120Y1566310D02*
D03*
D122*
X1208720Y2327910D02*
D03*
X1188720D02*
D03*
X700868Y1214292D02*
D03*
X715010Y1200150D02*
D03*
D123*
X561510Y1853330D02*
D03*
D124*
X648416Y1393744D02*
D03*
X789838Y1252322D02*
D03*
X772160Y1270000D02*
D03*
X754482Y1287678D02*
D03*
X736805Y1305355D02*
D03*
X719127Y1323033D02*
D03*
X701449Y1340711D02*
D03*
X683772Y1358388D02*
D03*
X666094Y1376066D02*
D03*
X561510Y1903330D02*
D03*
Y1878330D02*
D03*
D125*
X729152Y1186008D02*
D03*
D126*
X1614170Y1657350D02*
D03*
D127*
X807515Y1234645D02*
D03*
D128*
X1168720Y2327910D02*
D03*
D129*
X645160Y2003660D02*
D03*
X885190Y1706880D02*
D03*
X959020Y1706680D02*
D03*
X960120Y1591310D02*
D03*
D130*
X541510Y1919330D02*
D03*
D131*
X721950Y1669460D02*
D03*
X1893549Y2004714D02*
D03*
X1819910Y1675130D02*
D03*
X1807513Y1768143D02*
D03*
X1832610Y1755907D02*
D03*
X1529080Y2444750D02*
D03*
X1516380Y2359660D02*
D03*
X1845310Y1718310D02*
D03*
X1671320Y1704340D02*
D03*
X1664015Y1744665D02*
D03*
X1630680Y1717040D02*
D03*
X1350190Y2354580D02*
D03*
X1451610Y2330450D02*
D03*
X1277620Y1968500D02*
D03*
X1188720Y2172970D02*
D03*
X1260727Y1744260D02*
D03*
X1186180Y1816100D02*
D03*
X1623060Y1680210D02*
D03*
X1915160Y1325920D02*
D03*
X1543050Y1024890D02*
D03*
X1488440Y1037590D02*
D03*
X1400810Y1083310D02*
D03*
X1380708Y1032292D02*
D03*
X1510030Y974090D02*
D03*
X1247140Y1673860D02*
D03*
X1267460Y1621790D02*
D03*
X1290320Y1473200D02*
D03*
X1234440Y1409700D02*
D03*
X957580Y2316142D02*
D03*
X1027610Y2147390D02*
D03*
X949960Y2171700D02*
D03*
X865277Y2429917D02*
D03*
X905256Y2154936D02*
D03*
X1137420Y1742088D02*
D03*
X1116766Y2011680D02*
D03*
X1101090D02*
D03*
X999490Y1826260D02*
D03*
X1028700Y1695450D02*
D03*
X940240Y1975290D02*
D03*
X820420Y2338070D02*
D03*
X800100Y1972310D02*
D03*
X787400Y1856740D02*
D03*
X424180Y2019300D02*
D03*
X713740Y1910080D02*
D03*
X628650Y1766570D02*
D03*
X586740Y1762760D02*
D03*
X730250Y1690370D02*
D03*
X715010Y1717040D02*
D03*
X793750Y1668780D02*
D03*
X562610Y1717040D02*
D03*
X621030Y1689100D02*
D03*
X636270Y1688120D02*
D03*
X629920Y1672590D02*
D03*
X1117600Y1634413D02*
D03*
X1134319Y1452878D02*
D03*
X792480Y1452880D02*
D03*
X1120140Y1410480D02*
D03*
X948690Y991870D02*
D03*
X896990Y935620D02*
D03*
X863600Y1405890D02*
D03*
X796290Y1393190D02*
D03*
X734060Y1625600D02*
D03*
X542293Y1635760D02*
D03*
X576580Y1631950D02*
D03*
X690880Y1620520D02*
D03*
X647700Y1567180D02*
D03*
X618490Y1566101D02*
D03*
X774700Y1050290D02*
D03*
X711245Y1426165D02*
D03*
X697837Y1522730D02*
D03*
X515620D02*
D03*
X511804Y1409700D02*
D03*
X421788Y1451400D02*
D03*
X398428Y1262380D02*
D03*
X918063Y2456327D02*
D03*
X521771Y1349811D02*
D03*
X509821Y1338580D02*
D03*
X849630Y2280920D02*
D03*
X690880Y1689100D02*
D03*
X1427480Y1040130D02*
D03*
X1531620Y1065530D02*
D03*
X890270Y2400300D02*
D03*
X810260Y1055370D02*
D03*
X1038860Y974090D02*
D03*
X618490Y1602740D02*
D03*
X558800Y1661160D02*
D03*
X647700Y1602930D02*
D03*
X676910Y1604010D02*
D03*
X679450Y1717040D02*
D03*
X593090Y1731004D02*
D03*
X565150Y1750060D02*
D03*
X685800Y1666939D02*
D03*
X514350Y1393190D02*
D03*
X1107440Y2176780D02*
D03*
X1868170Y1648460D02*
D03*
X628650Y1732280D02*
D03*
X1126490Y2176780D02*
D03*
X959597Y1774190D02*
D03*
X1290320Y1447800D02*
D03*
X1245668Y1734596D02*
D03*
X1878330Y1737360D02*
D03*
X1132419Y1719353D02*
D03*
X1130427Y1652188D02*
D03*
X533865Y1541315D02*
D03*
X814070Y2315210D02*
D03*
X1028700Y1678940D02*
D03*
X1210984Y1661160D02*
D03*
X1567180Y2328360D02*
D03*
X836930Y1643380D02*
D03*
X807720Y1614170D02*
D03*
X1162050Y1643380D02*
D03*
X1151193Y1638042D02*
D03*
X1233170Y1686560D02*
D03*
X1223010Y1694550D02*
D03*
X1219238Y1669806D02*
D03*
X1211624Y1690052D02*
D03*
X1052830Y1678940D02*
D03*
X1126523Y1685313D02*
D03*
X1097503Y1725457D02*
D03*
X1106170Y1734820D02*
D03*
X1149418Y1774121D02*
D03*
X652780Y1751330D02*
D03*
X669290Y1743710D02*
D03*
X871220Y2294890D02*
D03*
X848450Y2289900D02*
D03*
X1504950Y2379980D02*
D03*
X1494835Y2393905D02*
D03*
X903785Y1018540D02*
D03*
X896620Y1007110D02*
D03*
X473710Y1483360D02*
D03*
X453390Y1376680D02*
D03*
X632460Y1615440D02*
D03*
X455930Y1365250D02*
D03*
X654050Y1513840D02*
D03*
X465099Y1352271D02*
D03*
X939800Y2038805D02*
D03*
X902970Y2207260D02*
D03*
X800100Y2038350D02*
D03*
X806450Y2000250D02*
D03*
X748030Y2080688D02*
D03*
X698500Y1988820D02*
D03*
X692150Y1729740D02*
D03*
X689610Y1752600D02*
D03*
X725170Y1639570D02*
D03*
X712470Y1600200D02*
D03*
X718820Y1584960D02*
D03*
X1233170Y1673370D02*
D03*
X1074918Y1685372D02*
D03*
X1040130Y953770D02*
D03*
X1567180Y1085850D02*
D03*
X1529080Y2343150D02*
D03*
X783590Y2311400D02*
D03*
X1499870Y2319020D02*
D03*
X1214120Y2240280D02*
D03*
X858520Y2325370D02*
D03*
X515620Y1656080D02*
D03*
X624840Y1508760D02*
D03*
X515620Y1672590D02*
D03*
X891540Y1032510D02*
D03*
X1122680Y986790D02*
D03*
X844550Y2324100D02*
D03*
X1468120Y2338070D02*
D03*
X1323340Y986790D02*
D03*
X927100Y960120D02*
D03*
X902598Y964828D02*
D03*
X1494590Y1074243D02*
D03*
X1490948Y1059180D02*
D03*
X1103984Y1704354D02*
D03*
X1064988Y1680370D02*
D03*
X1060414Y1654809D02*
D03*
X1049739Y1664204D02*
D03*
X1122874Y1519723D02*
D03*
X1078230Y1560830D02*
D03*
X1093470Y1569904D02*
D03*
X1106170Y1581150D02*
D03*
X1117007Y1591673D02*
D03*
X1178560Y1738996D02*
D03*
X1243330Y1783080D02*
D03*
X1220470Y1490980D02*
D03*
X1205859Y1490758D02*
D03*
X1292860Y1807120D02*
D03*
X1277438Y1800677D02*
D03*
X1263650Y1811020D02*
D03*
X1158240Y1728470D02*
D03*
X1159510Y1741170D02*
D03*
X1233126Y1490218D02*
D03*
X841912Y922118D02*
D03*
X868680Y1473200D02*
D03*
X781050Y1485900D02*
D03*
X833959Y1357199D02*
D03*
X831850Y1525270D02*
D03*
X791210Y1517650D02*
D03*
X864870Y1390650D02*
D03*
X866140Y1421130D02*
D03*
X867410Y1436370D02*
D03*
X585470Y1275080D02*
D03*
X748030Y1717040D02*
D03*
X735330Y1548130D02*
D03*
X735926Y1529676D02*
D03*
X679495Y1573575D02*
D03*
X638810Y1784350D02*
D03*
X623570Y1785620D02*
D03*
X895350Y2020570D02*
D03*
X819150Y2062480D02*
D03*
X791210Y2153920D02*
D03*
X607060Y1545590D02*
D03*
X721360Y1653540D02*
D03*
X706120Y1647825D02*
D03*
X595630Y1781810D02*
D03*
X715010Y1628140D02*
D03*
X701040Y1586230D02*
D03*
X699770Y1600200D02*
D03*
X623570Y1630680D02*
D03*
X812800Y961390D02*
D03*
X944880Y969010D02*
D03*
X875030Y2326640D02*
D03*
X1559560Y1003300D02*
D03*
X1513840Y997536D02*
D03*
X1490149Y1012386D02*
D03*
D132*
X821100Y2540437D02*
D03*
X311983Y2031320D02*
D03*
X2050217D02*
D03*
Y1311320D02*
D03*
X1540510Y2538730D02*
D03*
X311983Y1311320D02*
D03*
X821100Y802203D02*
D03*
X1541100D02*
D03*
D133*
X897194Y2489478D02*
D03*
X803327Y2450597D02*
D03*
X362942Y1955226D02*
D03*
X401823Y2049093D02*
D03*
X1999258Y1955226D02*
D03*
X1960377Y2049093D02*
D03*
X1999258Y1387414D02*
D03*
X1960377Y1293547D02*
D03*
X1464417Y2487771D02*
D03*
X1558283Y2448890D02*
D03*
X401823Y1293547D02*
D03*
X362942Y1387414D02*
D03*
X803327Y892043D02*
D03*
X897194Y853162D02*
D03*
X1558873Y892043D02*
D03*
X1465006Y853162D02*
D03*
D134*
X1733550Y1752600D02*
D03*
Y1676400D02*
D03*
X1828800Y1866900D02*
D03*
X1847850Y1828800D02*
D03*
X1809750D02*
D03*
X1790700Y1790700D02*
D03*
X1752600Y1866900D02*
D03*
X1790700D02*
D03*
X1714500D02*
D03*
X1695450Y1828800D02*
D03*
X1771650D02*
D03*
X1752600Y1790700D02*
D03*
X1733550Y1828800D02*
D03*
X1714500Y1790700D02*
D03*
X1828800D02*
D03*
X1847850Y1752600D02*
D03*
X1771650D02*
D03*
X1600200Y1866900D02*
D03*
X1638300D02*
D03*
X1524000D02*
D03*
X1562100D02*
D03*
X1485900D02*
D03*
X1676400D02*
D03*
X1657350Y1828800D02*
D03*
X1619250D02*
D03*
X1600200Y1790700D02*
D03*
X1638300D02*
D03*
X1676400D02*
D03*
X1581150Y1752600D02*
D03*
X1619250D02*
D03*
X1543050Y1828800D02*
D03*
X1581150D02*
D03*
X1504950D02*
D03*
X1524000Y1790700D02*
D03*
X1562100D02*
D03*
X1543050Y1752600D02*
D03*
X1504950D02*
D03*
X1752600Y1714500D02*
D03*
X1562100D02*
D03*
X1485900D02*
D03*
X1524000D02*
D03*
X1600200D02*
D03*
X1447800Y1866900D02*
D03*
X1409700D02*
D03*
X1466850Y1828800D02*
D03*
X1485900Y1790700D02*
D03*
X1428750Y1828800D02*
D03*
X1409700Y1790700D02*
D03*
X1390650Y1752600D02*
D03*
X1428750D02*
D03*
X1390650Y1828800D02*
D03*
X1371600Y1790700D02*
D03*
Y1866900D02*
D03*
X1466850Y1752600D02*
D03*
X1409700Y1714500D02*
D03*
X1447800D02*
D03*
X1371600D02*
D03*
X1771650Y1676400D02*
D03*
X1714500Y1638300D02*
D03*
X1676400D02*
D03*
X1828800D02*
D03*
X1847850Y1600200D02*
D03*
X1771650D02*
D03*
X1809750D02*
D03*
X1828800Y1562100D02*
D03*
X1847850Y1524000D02*
D03*
X1752600Y1562100D02*
D03*
X1790700D02*
D03*
X1752600Y1638300D02*
D03*
X1733550Y1600200D02*
D03*
X1657350D02*
D03*
X1695450D02*
D03*
X1714500Y1562100D02*
D03*
X1695450Y1524000D02*
D03*
X1676400Y1562100D02*
D03*
X1543050Y1676400D02*
D03*
X1581150D02*
D03*
X1600200Y1638300D02*
D03*
X1638300D02*
D03*
X1524000D02*
D03*
X1562100D02*
D03*
X1466850Y1676400D02*
D03*
X1504950D02*
D03*
X1390650D02*
D03*
X1428750D02*
D03*
X1447800Y1638300D02*
D03*
X1485900D02*
D03*
X1409700D02*
D03*
X1390650Y1600200D02*
D03*
X1581150D02*
D03*
X1619250D02*
D03*
X1543050D02*
D03*
X1600200Y1562100D02*
D03*
X1638300D02*
D03*
X1524000D02*
D03*
X1562100D02*
D03*
X1466850Y1600200D02*
D03*
X1504950D02*
D03*
X1428750D02*
D03*
X1409700Y1562100D02*
D03*
X1447800D02*
D03*
X1485900D02*
D03*
X1390650Y1524000D02*
D03*
X1771650D02*
D03*
X1809750D02*
D03*
X1733550D02*
D03*
X1676400Y1485900D02*
D03*
X1790700D02*
D03*
X1828800D02*
D03*
X1714500D02*
D03*
X1752600D02*
D03*
X1619250Y1524000D02*
D03*
X1657350D02*
D03*
X1543050D02*
D03*
X1581150D02*
D03*
X1600200Y1485900D02*
D03*
X1638300D02*
D03*
X1524000D02*
D03*
X1562100D02*
D03*
X1466850Y1524000D02*
D03*
X1504950D02*
D03*
X1428750D02*
D03*
X1447800Y1485900D02*
D03*
X1485900D02*
D03*
X1409700D02*
D03*
X1371600Y1638300D02*
D03*
Y1562100D02*
D03*
Y1485900D02*
D03*
D135*
X1797050Y1771650D02*
D03*
X1784350D02*
D03*
X1441450Y1785620D02*
D03*
X1452880D02*
D03*
X1480820Y924560D02*
D03*
X1191260Y1610360D02*
D03*
X1181100Y1620520D02*
D03*
Y1610360D02*
D03*
X1188720Y1596390D02*
D03*
X1181100Y1591310D02*
D03*
Y1601470D02*
D03*
X1192530Y1560830D02*
D03*
X1200150Y1430020D02*
D03*
X1215390Y1427480D02*
D03*
X1223010Y1398270D02*
D03*
X1207770Y1423670D02*
D03*
X1202690Y1407160D02*
D03*
X1196340Y1416050D02*
D03*
X1197610Y1403350D02*
D03*
X1212850Y1398270D02*
D03*
X1201420Y1394460D02*
D03*
X1198880Y1385570D02*
D03*
X1191260Y1574800D02*
D03*
X1188720Y1551940D02*
D03*
Y1586230D02*
D03*
X1183640Y1569720D02*
D03*
X1191260Y1512570D02*
D03*
Y1502410D02*
D03*
X1189990Y1537970D02*
D03*
X1188720Y1525270D02*
D03*
X1182370Y1545590D02*
D03*
Y1531620D02*
D03*
Y1578610D02*
D03*
Y1558290D02*
D03*
Y1518920D02*
D03*
Y1504950D02*
D03*
X1165860D02*
D03*
X1181100Y1431290D02*
D03*
X1187450Y1424940D02*
D03*
X1173480Y1413510D02*
D03*
X1179830Y1404620D02*
D03*
Y1385570D02*
D03*
X1188720D02*
D03*
X1179830Y1394460D02*
D03*
X1170940Y1388110D02*
D03*
Y1404620D02*
D03*
X1165860Y1629410D02*
D03*
X1163320Y1596390D02*
D03*
X1159510Y1623060D02*
D03*
X1162050Y1609090D02*
D03*
Y1582420D02*
D03*
Y1562100D02*
D03*
X1155700Y1568450D02*
D03*
X1153160Y1555750D02*
D03*
X1151890Y1626870D02*
D03*
X1150620Y1607820D02*
D03*
X1151890Y1596390D02*
D03*
Y1582420D02*
D03*
X1162050Y1536700D02*
D03*
X1164590Y1525270D02*
D03*
X1159510Y1549400D02*
D03*
X1156970Y1529080D02*
D03*
X1164590Y1515110D02*
D03*
X1159510Y1511300D02*
D03*
X1160780Y1426210D02*
D03*
X1154430Y1540510D02*
D03*
Y1520190D02*
D03*
X1155700Y1441450D02*
D03*
X1151890Y1417320D02*
D03*
X1148080Y1433830D02*
D03*
X1139190Y1626870D02*
D03*
Y1426210D02*
D03*
X1129030Y1422400D02*
D03*
X1151890Y1407160D02*
D03*
Y1398270D02*
D03*
X1130300Y1399540D02*
D03*
X1151890Y1388110D02*
D03*
X1162050D02*
D03*
X1141730Y1397000D02*
D03*
X819150Y2019300D02*
D03*
X810465Y2027985D02*
D03*
D168*
X1793431Y1762310D02*
D03*
X1699069Y1696310D02*
D03*
Y1674310D02*
D03*
X1793431Y1674310D02*
D03*
Y1685310D02*
D03*
Y1696310D02*
D03*
Y1707310D02*
D03*
Y1718310D02*
D03*
Y1729310D02*
D03*
Y1740310D02*
D03*
Y1751310D02*
D03*
X1699069Y1762310D02*
D03*
Y1751310D02*
D03*
Y1740310D02*
D03*
Y1729310D02*
D03*
Y1718310D02*
D03*
Y1685310D02*
D03*
Y1707310D02*
D03*
D169*
X1828033Y1751330D02*
D03*
X1827530Y1739900D02*
D03*
Y1728470D02*
D03*
X1667830Y1735456D02*
D03*
X1673916D02*
D03*
X1821947Y1751330D02*
D03*
X1821444Y1739900D02*
D03*
Y1728470D02*
D03*
D171*
X1630680Y1703260D02*
D03*
X1626680Y1695260D02*
D03*
Y1703260D02*
D03*
X1630680Y1699260D02*
D03*
Y1695260D02*
D03*
X1626680Y1699260D02*
D03*
D173*
X1830070Y1677934D02*
D03*
Y1684020D02*
D03*
D174*
X1614110Y1697990D02*
D03*
X1604010D02*
D03*
D176*
X1642110Y1715950D02*
D03*
Y1708150D02*
D03*
M02*
