M48
;Layer_Color=9474304
;FILE_FORMAT=4:4
METRIC,LZ
;TYPE=PLATED
T01F00S00C0.3810
T02F00S00C0.4000
T03F00S00C0.5080
T05F00S00C0.7112
T06F00S00C0.8000
T07F00S00C0.9000
T08F00S00C1.0000
T09F00S00C1.1938
T10F00S00C3.8100
T11F00S00C8.8000
;TYPE=NON_PLATED
T12F00S00C1.1000
%
T01
X0158877Y0073279
X0150241Y0073025
X0146431Y0078994
X0088773Y0076581
X0083566Y0072136
X007747Y0073533
X0074168Y0079248
X0074549Y0083439
X0077343Y0088011
X0077216Y0093091
X0076962Y010922
X0073787Y0111887
X007747Y0116332
X0080518Y0113792
X0107442Y010668
X0099949Y0093218
X009779Y0091567
X0093091Y0090297
X0090678Y0081407
X0121666Y0109728
X0151638Y0096012
X0156464
X0148082Y0092456
X0160655Y0084455
X0161925Y008001
X0200279Y0124587
X0205994Y0122682
X0211709Y0127127
X0212217Y0134239
X0207391Y0138938
X0201295Y0141351
X0159131Y0137287
X0144907Y0141097
X0139446Y0137414
X0131318Y0135255
X0122301Y0139827
X0121285
X0120142Y0139446
X0119888Y0138557
X0119761Y0140335
X0120269Y0140716
X0119634Y0141605
X0120015Y0143002
X0120777Y0142367
X0121539Y0142748
X0122301Y0144653
X0120142
X0119126Y0150241
Y0151257
X0119253Y0156083
X0119126Y015748
X011938Y0131445
X0137795Y0125222
X0154432Y0123952
X0118999Y0122809
X0118872Y0138557
X0117983
Y0139446
Y0140462
X0117094
X0117348Y0141351
X011811Y0143129
X0118745Y0142494
X0116078Y0142621
X0115189Y0141732
Y0140716
Y0139827
Y0138811
X0116205
X0117094
X0114173Y01397
X011303Y0139954
X0112903Y014224
X0113919Y0142621
X0114808Y0143383
X011557Y0144145
X0116205Y0146177
Y0147828
X01170813Y0146995
X0117856Y0146177
X0117983Y0147828
X0118237Y0150495
Y0151892
X0118872Y0152527
X0118237Y0153162
X0118999Y0153797
X0118872Y0155194
X0118237Y0155829
X0118364Y0156972
X0118237Y0157861
X0118872Y0158623
X0116205Y0158242
X0115189
X011557Y0156845
X0116205Y015621
X0115951Y015494
X0115316Y0155575
X0115443Y0154051
X0116205Y015367
X0115697Y0152908
X0116459Y0152527
Y0151511
X0115951Y015113
X0116586Y0150495
X0115443Y0152019
X0118237Y0154559
X0087376Y0135382
X008255Y0130937
X0086614Y0126619
X0086233Y0119761
X0067691Y0126238
X006223Y0123063
X00635Y013208
X0057658Y0135636
X0052451Y0133223
X0053975Y0131572
X0055499Y0129921
X0050292
X0042672Y0129286
X0048006Y0143637
X0049022Y0152908
X006477Y0153924
X0067437Y0149225
X0067183Y0146431
X0065151Y0141605
X0062992Y0143002
X0060071Y0142113
X0075565Y0136271
X0075438Y0156337
X0033655Y0140589
X0026289Y0137541
X0023495Y0130556
X0026035Y0125095
X0031877Y0122428
X0036576Y0125095
X0037846Y0191643
X0032004Y0194056
X0025146Y0197612
X0043815Y019685
X0047371Y0187833
X0047879Y0179832
Y0174498
X0048006Y0161036
X0061976Y0166878
X0064135
X0083947Y0167894
X0115062Y0168402
X0115189Y0170053
X011684
X0116967Y0168402
X0118745Y0168275
Y0169926
X0118872Y016637
X0117094
X0115189
Y0162687
X0115951Y0162306
X0116586Y0162941
X011811Y0162052
Y0161036
Y0160147
Y0159131
X0118872Y0159639
X0116332
X0115189
X0115062Y0160782
X0116205Y0160909
X0113919Y0162687
X0119126Y0161036
X0144145Y0178562
X0145288
X0178435Y0177165
X0179705
X0202692Y0194183
X021209Y0199517
X0212598Y0205613
X020701Y0210566
X0201549
X0160655Y022479
X0155067Y021971
X0154813Y020955
X0136525
Y0219329
X0090297Y0230378
X0081915Y020193
X00810465Y02027985
X0058039Y0207137
X0048387
X004318Y0207264
X0047879Y0199898
X0077597Y022987
X0031496Y0211328
X0024257Y0207645
X007493Y024892
X00785199Y0247306
X0073533Y0254127
X0089535
X0088392Y0260223
X0081915Y0263144
X0099314Y0242824
X0144145Y0250571
X0146177Y0257175
X0150749Y0261112
X0158242Y0260604
X0162179Y0252857
T02
X00726802Y02089895
X00732812Y02095906
X00738823Y02101916
X00744833Y02107926
X00750844Y02113937
X00756854Y02119947
X00762864Y02125958
X00768875Y02131968
X00759329Y02141514
X00753318Y02135504
X00747308Y02129493
X00741298Y02123483
X00735287Y02117472
X00729277Y02111462
X00723266Y02105452
X00717256Y02099441
T03
X007747Y0105029
X0081026Y0105537
X008128Y0096139
X00841912Y00922118
X0089699Y0093562
X00902598Y00964828
X009271Y0096012
X0094488Y0096901
X0094869Y0099187
X0089662Y0100711
X00903785Y0101854
X0089154Y0103251
X0094234Y0107315
X0090424Y0111633
X0103886Y0097409
X0104013Y0095377
X0112268Y0098679
X0132334
X01380708Y01032292
X0142748Y0104013
X0148844Y0103759
X01490948Y0105918
X0149459Y01074243
X0153162Y0106553
X0154305Y0102489
X0155956Y010033
X0151384Y00997536
X0151003Y0097409
X01490149Y01012386
X0156718Y0108585
X0140081Y0108331
X0142367Y0087884
X0171069Y0144018
X0182372Y0141097
X0191516Y0132592
X0129032Y014478
Y014732
X01233126Y01490218
X0122047Y0149098
X01205859Y01490758
X0123444Y014097
X0112014Y0141048
X01134319Y01452878
X01122874Y01519723
X0110617Y0158115
X0109347Y01569904
X0107823Y0156083
X0083185Y0152527
X0086868Y014732
X0086741Y0143637
X0086614Y0142113
X008636Y0140589
X0086487Y0139065
X00833959Y01357199
X0079629Y0139319
X0079248Y0145288
X0078105Y014859
X0079121Y0151765
X00735926Y01529676
X0073533Y0154813
X0071882Y0158496
X0070104Y0158623
X00679495Y01573575
X006477Y0156718
X0061849Y01566101
X0060706Y0154559
X0062484Y0150876
X0065405Y0151384
X00697837Y0152273
X00711245Y01426165
X00511804Y014097
X0051435Y0139319
X00521771Y01349811
X00509821Y0133858
X00465099Y01352271
X0045593Y0136525
X0045339Y0137668
X00421788Y014514
X0047371Y0148336
X0051562Y0152273
X00533865Y01541315
X0058547Y0127508
X00398428Y0126238
X0051562Y0165608
Y0167259
X005588Y0166116
X00542293Y0163576
X0057658Y0163195
X0062357Y0163068
X0063246Y0161544
X0061849Y0160274
X006477Y0160293
X0067691Y0160401
X0069977Y016002
X0071247
X0071501Y0162814
X0073406Y016256
X0072517Y0163957
X0072136Y0165354
X0072195Y0166946
X0073025Y0169037
X0069088Y016891
X006858Y01666939
X0070612Y01647825
X0069088Y0162052
X0067945Y0171704
X0069215Y0172974
X0068961Y017526
X0066929Y0174371
X0065278Y0175133
X0062865Y0176657
X0062357Y0178562
X0063881Y0178435
X0059563Y0178181
X0058674Y0176276
X0056515Y0175006
X0056261Y0171704
X0059309Y01731004
X0062865Y0173228
X0061976Y0169037
X0062992Y0168021
X0064008Y0169037
X0071501Y0171704
X0074803
X007874Y0185674
X0071374Y0191008
X008001Y0197231
X0094024Y0197529
X0099949Y0182626
X00959597Y0177419
X010287Y0169545
Y0167894
X0105283
X01064988Y0168037
X01074918Y01685372
X01060414Y01654809
X01049739Y01664204
X01130427Y01652188
X011176Y01634413
X01151193Y01638042
X0116205Y0164338
X01126523Y01685313
X01132419Y01719353
X0113742Y01742088
X0115951Y0174117
X0115824Y0172847
X0117856Y01738996
X01149418Y01774121
X0118618Y018161
X0110617Y0173482
X01097503Y01725457
X01103984Y01704354
X01117007Y01591673
X0083693Y0164338
X0080772Y0161417
X0079375Y0166878
X01210984Y0166116
X01219238Y01669806
X0123317Y0167337
Y0168656
X0122301Y0169455
X01211624Y01690052
X0124714Y0167386
X01245668Y01734596
X01260727Y0174426
X0124333Y0178308
X0126365Y0181102
X01277438Y01800677
X0129286Y0180712
X0127762Y019685
X0126746Y0162179
X0162306Y0168021
X0163068Y0171704
X0167132Y0170434
X0166116Y0174371
X01807513Y01768143
X0183261Y01755907
X0184531Y0171831
X0187833Y0173736
X0186817Y0164846
X0181991Y0167513
X01893549Y02004714
X0156464Y02293659
X0156718Y0232836
X0152908Y0234315
X0151638Y0235966
X0150495Y0237998
X0149987Y0231902
X01501636Y02298204
X0146812Y0233807
X0145161Y0233045
X0135019Y0235458
X01301396Y02272384
X0121412Y0224028
X0118872Y0217297
X0112649Y0217678
X0110744
X0102761Y0214739
X0094996Y021717
X00905256Y02154936
X0090297Y0220726
X00852355Y02222315
X0084963Y0228092
X0084845Y022899
X0087122Y0229489
X0087503Y0232664
X0085852Y0232537
X0084455Y023241
X0082042Y0233807
X0080264Y0231013
X0095758Y02316142
X009398Y02038805
X0089535Y0202057
X0080645Y0200025
X008001Y0203835
X0081915Y0206248
X0110109Y0201168
X01116766
X0074803Y02080688
X0079121Y0215392
X0078359Y023114
X006985Y0198882
X0042418Y020193
X0089027Y024003
X00865277Y02429917
X00918063Y02456327
X0152908Y0244475
X01530701Y02389816
X01494835Y02393905
T05
X016002Y014859
X016383
X016764
X017145
X017526
X017907
X018288
X0184785Y01524
X0180975
X0177165
X0173355
X0169545
X0165735
X0161925
X016383Y015621
X016764
X017145
X017526
X017907
X018288
X016002
X015621
X01524
X014859
X014478
X014097
X013716
X0139065Y01524
X0142875
X0146685
X0150495
X0154305
X0158115
X015621Y014859
X01524
X014859
X014478
X014097
X013716
X0139065Y016002
X0142875
X0146685
X0150495
X0154305
X0158115
X015621Y016383
X01524
X014859
X014478
X014097
X013716
X0139065Y016764
X0142875
X0146685
X0150495
X0154305
X0158115
X015621Y017145
X01524
X014859
X014478
X014097
X013716
X0139065Y017526
X0142875
X0146685
X0150495
X0154305
X0158115
X015621Y017907
X01524
X014859
X0150495Y018288
X0154305
X0158115
X015621Y018669
X01524
X014859
X014478
X014097
X013716
X0139065Y018288
X0142875
X0146685
X014097Y017907
X013716
X016002
X016383
X016764
X017145
X017526
X017907
X018288
X0184785Y018288
X0180975
X0177165
X0173355
X0169545
X0165735
X0161925
X016002Y018669
X016383
X016764
X017145
X017526
X017907
X018288
X0184785Y017526
X0177165
X0173355
X017526Y017145
X0173355Y016764
X0177165
X017526Y016383
X017145
X016764
X016383
X016002
X0161925Y016002
X0165735
X0169545
X0173355
X0177165
X0180975
X0184785
X018288Y016383
X016002Y017145
X0161925Y017526
T06
X00729152Y01186008
X0071501Y0120015
X00700868Y01214292
X0120872Y0232791
X0118872
X0116872
T07
X00803327Y00892043
X00897194Y00853162
X01465006
X01558873Y00892043
X01999258Y01387414
X01960377Y01293547
X00807515Y01234645
X00789838Y01252322
X0077216Y0127
X00754482Y01287678
X00736805Y01305355
X00719127Y01323033
X00701449Y01340711
X00683772Y01358388
X00666094Y01376066
X00648416Y01393744
X00401823Y01293547
X00362942Y01387414
Y01955226
X0056151Y0190333
Y0187833
Y0185333
X01999258Y01955226
X01960377Y02049093
X00401823
X00803327Y02450597
X00897194Y02489478
X01464417Y02487771
X01558283Y0244889
T08
X00743294Y01171866
X0096012Y0156631
X00686726Y01228434
X0064516Y0197866
X0088519Y0170688
Y0168188
X0095902Y0168168
Y0170668
X0096012Y0159131
X0122872Y0232791
X0114872
X0064516Y0200366
T09
X0161417Y0165735
T10
X0095631Y0114554
X0111506
X0118364Y0116205
Y0105664
X0125095
Y0116205
X0162179Y0120269
Y0128143
X0148844
Y0120269
X0142621Y0120777
X0142494Y0129794
X0131699
X0131953Y0120777
X0153543Y0135128
X0105918
X0111506Y0127635
X0095631
X0105918Y0196342
X0153543
X016002Y0204978
Y0214757
X0149098
X014351Y021463
Y0205359
X0149098Y0204978
X0130556Y0205359
Y021463
T11
X008211Y00802203
X015411
X02050217Y0131132
X00311983
X02050217Y0203132
X00311983
X008211Y02540437
X0154051Y0253873
T12
X0054151Y0191933
M30
