G04*
G04 #@! TF.GenerationSoftware,Altium Limited,Altium Designer,25.8.1 (18)*
G04*
G04 Layer_Color=8421504*
%FSLAX44Y44*%
%MOMM*%
G71*
G04*
G04 #@! TF.SameCoordinates,535EF8B2-0DBE-4100-A7A0-3C18341BF710*
G04*
G04*
G04 #@! TF.FilePolarity,Positive*
G04*
G01*
G75*
%ADD16R,1.9000X1.2000*%
%ADD17C,2.0320*%
%ADD18R,0.6000X0.6000*%
%ADD19R,0.6500X0.9000*%
%ADD20R,0.2794X0.7112*%
%ADD21R,1.7018X0.9906*%
%ADD22R,0.9000X0.6500*%
%ADD23R,0.2627X0.3541*%
%ADD24R,1.2500X1.5500*%
%ADD25R,0.5588X1.4605*%
%ADD26R,1.2062X0.9562*%
%ADD27R,1.0000X0.6600*%
%ADD28R,1.0000X2.8000*%
%ADD29R,0.9562X1.2062*%
%ADD30R,0.4500X0.5000*%
%ADD31R,1.3500X0.9500*%
%ADD32R,0.7548X0.2032*%
%ADD33R,0.3541X0.2627*%
%ADD34R,0.5682X0.5725*%
%ADD35R,1.3000X1.0500*%
%ADD36R,0.5725X0.5682*%
%ADD37R,0.2032X0.7548*%
%ADD38R,0.8500X0.7500*%
%ADD39R,2.2000X1.0500*%
%ADD40R,1.5500X1.2500*%
%ADD41R,0.3048X0.7620*%
%ADD42R,0.7500X0.8500*%
%ADD43R,1.5000X2.0000*%
%ADD44R,0.7366X0.2540*%
%ADD45R,0.7112X1.2954*%
%ADD46R,0.6725X0.7154*%
%ADD47R,0.6811X0.5725*%
%ADD48R,1.4000X1.5000*%
%ADD49R,0.1778X0.7620*%
%ADD50R,0.7620X0.1778*%
%ADD51R,0.2750X0.3000*%
%ADD52R,0.7620X0.3048*%
%ADD53R,0.6153X0.5725*%
%ADD54R,0.2500X0.4750*%
%ADD55R,0.4750X0.3500*%
%ADD56R,1.0500X1.3000*%
%ADD57R,0.2500X0.2750*%
%ADD58R,1.5240X0.5334*%
%ADD59R,0.9500X1.3500*%
%ADD60R,0.2750X0.2500*%
%ADD61R,1.5000X1.4000*%
%ADD62R,0.7154X0.6725*%
G04:AMPARAMS|DCode=63|XSize=1.5mm|YSize=0.45mm|CornerRadius=0.0495mm|HoleSize=0mm|Usage=FLASHONLY|Rotation=270.000|XOffset=0mm|YOffset=0mm|HoleType=Round|Shape=RoundedRectangle|*
%AMROUNDEDRECTD63*
21,1,1.5000,0.3510,0,0,270.0*
21,1,1.4010,0.4500,0,0,270.0*
1,1,0.0990,-0.1755,-0.7005*
1,1,0.0990,-0.1755,0.7005*
1,1,0.0990,0.1755,0.7005*
1,1,0.0990,0.1755,-0.7005*
%
%ADD63ROUNDEDRECTD63*%
G04:AMPARAMS|DCode=64|XSize=1.3587mm|YSize=0.5868mm|CornerRadius=0.2934mm|HoleSize=0mm|Usage=FLASHONLY|Rotation=0.000|XOffset=0mm|YOffset=0mm|HoleType=Round|Shape=RoundedRectangle|*
%AMROUNDEDRECTD64*
21,1,1.3587,0.0000,0,0,0.0*
21,1,0.7719,0.5868,0,0,0.0*
1,1,0.5868,0.3859,0.0000*
1,1,0.5868,-0.3859,0.0000*
1,1,0.5868,-0.3859,0.0000*
1,1,0.5868,0.3859,0.0000*
%
%ADD64ROUNDEDRECTD64*%
%ADD65R,1.3587X0.5868*%
%ADD66R,0.5868X1.3587*%
G04:AMPARAMS|DCode=67|XSize=1.3587mm|YSize=0.5868mm|CornerRadius=0.2934mm|HoleSize=0mm|Usage=FLASHONLY|Rotation=90.000|XOffset=0mm|YOffset=0mm|HoleType=Round|Shape=RoundedRectangle|*
%AMROUNDEDRECTD67*
21,1,1.3587,0.0000,0,0,90.0*
21,1,0.7719,0.5868,0,0,90.0*
1,1,0.5868,0.0000,0.3859*
1,1,0.5868,0.0000,-0.3859*
1,1,0.5868,0.0000,-0.3859*
1,1,0.5868,0.0000,0.3859*
%
%ADD67ROUNDEDRECTD67*%
%ADD68C,2.5400*%
%ADD69C,12.7000*%
%ADD70R,1.3500X1.5500*%
%ADD71R,0.7000X0.8500*%
%ADD72R,3.8000X2.0000*%
%ADD73R,0.8000X0.6000*%
%ADD74R,0.9500X0.8000*%
%ADD75R,0.5500X0.6000*%
%ADD76R,1.1000X1.9000*%
%ADD77R,2.0062X1.2549*%
%ADD78R,0.6000X1.4500*%
%ADD79R,1.0500X1.0000*%
%ADD80R,0.5725X0.6153*%
%ADD81R,1.5000X4.0000*%
%ADD82R,1.5500X1.3500*%
%ADD83R,0.5725X0.6811*%
%ADD84R,0.5153X0.4725*%
%ADD85R,1.3562X1.1544*%
%ADD86R,0.8500X0.7000*%
%ADD87R,1.9000X1.1000*%
G36*
X1192165Y1692852D02*
X1178502D01*
Y1706515D01*
X1192165D01*
Y1692852D01*
D02*
G37*
G36*
X1176502D02*
X1162838D01*
Y1706515D01*
X1176502D01*
Y1692852D01*
D02*
G37*
G36*
X1160838D02*
X1147175D01*
Y1706515D01*
X1160838D01*
Y1692852D01*
D02*
G37*
G36*
X646192Y1681210D02*
X630920D01*
Y1696482D01*
X646192D01*
Y1681210D01*
D02*
G37*
G36*
X628920D02*
X613648D01*
Y1696482D01*
X628920D01*
Y1681210D01*
D02*
G37*
G36*
X1192165Y1677188D02*
X1178502D01*
Y1690852D01*
X1192165D01*
Y1677188D01*
D02*
G37*
G36*
X1176502D02*
X1162838D01*
Y1690852D01*
X1176502D01*
Y1677188D01*
D02*
G37*
G36*
X1160838D02*
X1147175D01*
Y1690852D01*
X1160838D01*
Y1677188D01*
D02*
G37*
G36*
X646192Y1663938D02*
X630920D01*
Y1679210D01*
X646192D01*
Y1663938D01*
D02*
G37*
G36*
X628920D02*
X613648D01*
Y1679210D01*
X628920D01*
Y1663938D01*
D02*
G37*
G36*
X1192165Y1661525D02*
X1178502D01*
Y1675188D01*
X1192165D01*
Y1661525D01*
D02*
G37*
G36*
X1176502D02*
X1162838D01*
Y1675188D01*
X1176502D01*
Y1661525D01*
D02*
G37*
G36*
X1160838D02*
X1147175D01*
Y1675188D01*
X1160838D01*
Y1661525D01*
D02*
G37*
G36*
X1183021Y1470950D02*
X1171813D01*
Y1482158D01*
X1183021D01*
Y1470950D01*
D02*
G37*
G36*
X1169813D02*
X1158605D01*
Y1482158D01*
X1169813D01*
Y1470950D01*
D02*
G37*
G36*
X1183021Y1457742D02*
X1171813D01*
Y1468950D01*
X1183021D01*
Y1457742D01*
D02*
G37*
G36*
X1169813D02*
X1158605D01*
Y1468950D01*
X1169813D01*
Y1457742D01*
D02*
G37*
D16*
X962660Y1960020D02*
D03*
Y1916020D02*
D03*
X861060Y2017620D02*
D03*
X861060Y2061620D02*
D03*
D17*
X932180Y1101090D02*
D03*
X1767840Y1381760D02*
D03*
X1041400Y1615440D02*
D03*
X1070610Y1456690D02*
D03*
X880110Y1372870D02*
D03*
X736600Y1570990D02*
D03*
X810260Y1358900D02*
D03*
X1294130Y1432560D02*
D03*
X760730Y1522730D02*
D03*
X1088390Y1791970D02*
D03*
X1695450Y1383030D02*
D03*
X1024890Y2259330D02*
D03*
Y2232660D02*
D03*
X1299210Y2200910D02*
D03*
X853440Y1882140D02*
D03*
X882650Y2094230D02*
D03*
X1073150Y2179320D02*
D03*
X1183640Y2080260D02*
D03*
X960120Y2051050D02*
D03*
X1569720Y2261870D02*
D03*
X1506220Y2239010D02*
D03*
X1584960Y2423160D02*
D03*
X1403350Y881380D02*
D03*
X1466850Y1088390D02*
D03*
X1432560Y858520D02*
D03*
X850900Y2242820D02*
D03*
X364490Y1419860D02*
D03*
X795020Y2393950D02*
D03*
X806450Y2287270D02*
D03*
X831850Y2302510D02*
D03*
X781050Y2279650D02*
D03*
X966470Y1066800D02*
D03*
X976630Y991870D02*
D03*
X1046480Y999490D02*
D03*
X1410110Y2239010D02*
D03*
X1958340Y1906270D02*
D03*
X1535430Y1115060D02*
D03*
X1488440Y1116330D02*
D03*
D18*
X1172210Y1556180D02*
D03*
Y1567180D02*
D03*
D19*
X1915530Y2004060D02*
D03*
X1518550Y2430780D02*
D03*
X1465210Y924560D02*
D03*
X867410Y2456180D02*
D03*
X784860Y1972310D02*
D03*
X779410Y2065020D02*
D03*
X449950Y2019300D02*
D03*
X990600Y1755140D02*
D03*
X976100D02*
D03*
X852910Y2456180D02*
D03*
X464450Y2019300D02*
D03*
X554090Y1551940D02*
D03*
X811000Y1484630D02*
D03*
X848360Y1377950D02*
D03*
X825500Y1504950D02*
D03*
X811000D02*
D03*
X825500Y1484630D02*
D03*
X847990Y1398270D02*
D03*
X833490D02*
D03*
X833860Y1377950D02*
D03*
X770360Y1972310D02*
D03*
X764910Y2065020D02*
D03*
X568590Y1551940D02*
D03*
X1450710Y924560D02*
D03*
X1504050Y2430780D02*
D03*
X1930030Y2004060D02*
D03*
D20*
X1499752Y2343277D02*
D03*
X1522612Y1027557D02*
D03*
X873642Y2342007D02*
D03*
X932062Y980567D02*
D03*
X917058D02*
D03*
X922059D02*
D03*
X927061D02*
D03*
X932062Y1000633D02*
D03*
X927061D02*
D03*
X922059D02*
D03*
X917058D02*
D03*
X858638Y2342007D02*
D03*
X863639D02*
D03*
X868641D02*
D03*
X873642Y2362073D02*
D03*
X868641D02*
D03*
X863639D02*
D03*
X858638D02*
D03*
X1507608Y1047623D02*
D03*
X1512609D02*
D03*
X1517611D02*
D03*
X1522612D02*
D03*
X1517611Y1027557D02*
D03*
X1512609D02*
D03*
X1507608D02*
D03*
X1484748Y2363343D02*
D03*
X1489749D02*
D03*
X1494751D02*
D03*
X1499752D02*
D03*
X1494751Y2343277D02*
D03*
X1489749D02*
D03*
X1484748D02*
D03*
D21*
X1492250Y2353310D02*
D03*
X1515110Y1037590D02*
D03*
X866140Y2352040D02*
D03*
X924560Y990600D02*
D03*
D22*
X1454150Y2365110D02*
D03*
X1915160Y1305560D02*
D03*
X1536700Y978270D02*
D03*
X815340Y2354050D02*
D03*
X957580Y936360D02*
D03*
X861060Y935620D02*
D03*
X447040Y1274180D02*
D03*
X1915160Y1291060D02*
D03*
X815340Y2368550D02*
D03*
X861060Y921120D02*
D03*
X447040Y1288680D02*
D03*
X1536700Y992770D02*
D03*
X1454150Y2379610D02*
D03*
X957580Y950860D02*
D03*
D23*
X1470660Y2357114D02*
D03*
X1375410Y2406653D02*
D03*
X1483360Y2324094D02*
D03*
X1202690Y1743710D02*
D03*
X1578610Y977894D02*
D03*
X1408430Y1041406D02*
D03*
X1497330Y989324D02*
D03*
X1186180Y1631950D02*
D03*
X1216660Y1466850D02*
D03*
X1141730Y1737366D02*
D03*
X833120Y2354574D02*
D03*
X642614Y1751330D02*
D03*
X628650Y1752603D02*
D03*
X604520Y1747520D02*
D03*
X574040Y1667507D02*
D03*
X901700Y993140D02*
D03*
X647700Y1582420D02*
D03*
X618490Y1582414D02*
D03*
X795020Y1408430D02*
D03*
X500380Y1398276D02*
D03*
X1408430Y1036320D02*
D03*
X1375410Y2401567D02*
D03*
X1216660Y1461764D02*
D03*
X500380Y1393190D02*
D03*
X574040Y1672593D02*
D03*
X618490Y1587500D02*
D03*
X647700Y1587506D02*
D03*
X642614Y1746244D02*
D03*
X604520Y1742434D02*
D03*
X628650Y1747517D02*
D03*
X1141730Y1732280D02*
D03*
X1186180Y1637036D02*
D03*
X1202690Y1738624D02*
D03*
X795020Y1413516D02*
D03*
X901712Y998186D02*
D03*
X833120Y2359660D02*
D03*
X1497330Y994410D02*
D03*
X1578610Y982980D02*
D03*
X1483360Y2329180D02*
D03*
X1470660Y2362200D02*
D03*
D24*
X1350190Y2391410D02*
D03*
X1351100Y2316480D02*
D03*
X1419680Y1083310D02*
D03*
X942520Y2287270D02*
D03*
X976450Y2179320D02*
D03*
X1027610Y2128520D02*
D03*
X796290Y1083310D02*
D03*
X1440180D02*
D03*
X922020Y2287270D02*
D03*
X1371600Y2316480D02*
D03*
X997130Y2207260D02*
D03*
X976630D02*
D03*
X948780D02*
D03*
X928280D02*
D03*
X996950Y2179320D02*
D03*
X1007110Y2128520D02*
D03*
X789940Y2000250D02*
D03*
X1329690Y2391410D02*
D03*
X769440Y2000250D02*
D03*
X1009740Y2018030D02*
D03*
X989240D02*
D03*
X816790Y1083310D02*
D03*
D25*
X1428750Y2341308D02*
D03*
X1461770Y954469D02*
D03*
X956310Y2349500D02*
D03*
X864870Y978598D02*
D03*
X918210Y2403983D02*
D03*
X930910D02*
D03*
X943610D02*
D03*
X956310D02*
D03*
X943610Y2349500D02*
D03*
X930910D02*
D03*
X918210D02*
D03*
X1390650Y2395791D02*
D03*
X826770Y1033082D02*
D03*
X1423670Y1008951D02*
D03*
Y954469D02*
D03*
X1436370D02*
D03*
X1461770Y1008951D02*
D03*
X1449070D02*
D03*
X1436370D02*
D03*
X1449070Y954469D02*
D03*
X826770Y978598D02*
D03*
X839470D02*
D03*
X852170D02*
D03*
X864870Y1033082D02*
D03*
X852170D02*
D03*
X839470D02*
D03*
X1403350Y2395791D02*
D03*
X1416050D02*
D03*
X1428750D02*
D03*
X1416050Y2341308D02*
D03*
X1403350D02*
D03*
X1390650D02*
D03*
D26*
X1236980Y2196920D02*
D03*
X1221740Y1760400D02*
D03*
X1151890Y2197100D02*
D03*
X886460Y1419860D02*
D03*
X1151890Y2217600D02*
D03*
X1221740Y1739900D02*
D03*
X886460Y1440360D02*
D03*
X1236980Y2217420D02*
D03*
D27*
X1211580Y2199640D02*
D03*
X1185280Y2209140D02*
D03*
X922470Y1986280D02*
D03*
X1185280Y2199640D02*
D03*
Y2218640D02*
D03*
X1211580D02*
D03*
X896170Y1976780D02*
D03*
Y1995780D02*
D03*
X922470D02*
D03*
Y1976780D02*
D03*
D28*
X1292380Y1905820D02*
D03*
X1277380D02*
D03*
X1262380D02*
D03*
X728740Y1881280D02*
D03*
X713740D02*
D03*
X698740D02*
D03*
X1262380Y1861820D02*
D03*
X1277380D02*
D03*
X1292380D02*
D03*
X698740Y1837280D02*
D03*
X713740D02*
D03*
X728740D02*
D03*
D29*
X1244420Y1708150D02*
D03*
X1264920D02*
D03*
D30*
X1244930Y1687830D02*
D03*
X1254430D02*
D03*
D31*
X1198880Y1798080D02*
D03*
X1173480D02*
D03*
X1198880Y1783080D02*
D03*
X1173480D02*
D03*
D32*
X1199424Y1694020D02*
D03*
X1139916Y1690020D02*
D03*
X1199424Y1662020D02*
D03*
Y1706020D02*
D03*
Y1702020D02*
D03*
Y1698020D02*
D03*
Y1690020D02*
D03*
Y1686020D02*
D03*
Y1682020D02*
D03*
Y1678020D02*
D03*
Y1674020D02*
D03*
Y1670020D02*
D03*
Y1666020D02*
D03*
X1139916Y1662020D02*
D03*
Y1666020D02*
D03*
Y1670020D02*
D03*
Y1674020D02*
D03*
Y1678020D02*
D03*
Y1682020D02*
D03*
Y1686020D02*
D03*
Y1694020D02*
D03*
Y1698020D02*
D03*
Y1702020D02*
D03*
Y1706020D02*
D03*
D33*
X1245864Y1661160D02*
D03*
X1225553D02*
D03*
X908047Y2424430D02*
D03*
X842004Y2336800D02*
D03*
X1112514Y1690370D02*
D03*
X699770Y1717040D02*
D03*
X706126Y1668780D02*
D03*
X1127757Y1644650D02*
D03*
X899160Y980440D02*
D03*
X812797Y1402080D02*
D03*
X797557Y1040130D02*
D03*
X673103Y1621790D02*
D03*
X712470Y1525270D02*
D03*
X913133Y2424430D02*
D03*
X802643Y1040130D02*
D03*
X668017Y1621790D02*
D03*
X701040Y1668780D02*
D03*
X694684Y1717040D02*
D03*
X1117600Y1690370D02*
D03*
X1132843Y1644650D02*
D03*
X1220467Y1661160D02*
D03*
X1250950D02*
D03*
X817883Y1402080D02*
D03*
X717556Y1525270D02*
D03*
X904246Y980440D02*
D03*
X847090Y2336800D02*
D03*
D34*
X1227378Y1649730D02*
D03*
X760018Y1615440D02*
D03*
X1236422Y1649730D02*
D03*
X769062Y1615440D02*
D03*
D35*
X1244670Y1615580D02*
D03*
X1221670Y1633080D02*
D03*
Y1615580D02*
D03*
X1244670Y1633080D02*
D03*
D36*
X1202690Y1638453D02*
D03*
X737870Y1646478D02*
D03*
X1202690Y1629410D02*
D03*
X737870Y1655522D02*
D03*
D37*
X1175670Y1654266D02*
D03*
X1147670Y1713774D02*
D03*
Y1654266D02*
D03*
X1191670D02*
D03*
X1187670D02*
D03*
X1183670D02*
D03*
X1179670D02*
D03*
X1171670D02*
D03*
X1167670D02*
D03*
X1163670D02*
D03*
X1159670D02*
D03*
X1155670D02*
D03*
X1151670D02*
D03*
Y1713774D02*
D03*
X1155670D02*
D03*
X1159670D02*
D03*
X1163670D02*
D03*
X1167670D02*
D03*
X1171670D02*
D03*
X1175670D02*
D03*
X1179670D02*
D03*
X1183670D02*
D03*
X1187670D02*
D03*
X1191670D02*
D03*
D38*
X1277620Y1470560D02*
D03*
X1257300Y1470460D02*
D03*
X1018540Y1997710D02*
D03*
X993140Y1997610D02*
D03*
X1005840D02*
D03*
X979170Y1997510D02*
D03*
X577850Y1702970D02*
D03*
X563880D02*
D03*
X515620Y1541880D02*
D03*
X1257300Y1457960D02*
D03*
X1277620Y1458060D02*
D03*
X577850Y1690470D02*
D03*
X515620Y1554380D02*
D03*
X1018540Y1985210D02*
D03*
X1005840Y1985110D02*
D03*
X993140D02*
D03*
X979170Y1985010D02*
D03*
X563880Y1690470D02*
D03*
D39*
X1234440Y1424450D02*
D03*
Y1394950D02*
D03*
X1120140Y1425230D02*
D03*
Y1395730D02*
D03*
D40*
X1379438Y1009522D02*
D03*
X922020Y2128340D02*
D03*
X894080Y2424250D02*
D03*
X783590Y1002210D02*
D03*
X894080Y2444750D02*
D03*
X922020Y2148840D02*
D03*
X783590Y981710D02*
D03*
X1379438Y989022D02*
D03*
D41*
X1161063Y1450773D02*
D03*
X1167563D02*
D03*
X1174063D02*
D03*
X1180563D02*
D03*
Y1489127D02*
D03*
X1174063D02*
D03*
X1167563D02*
D03*
X1161063D02*
D03*
D42*
X940970Y2189480D02*
D03*
X1126590Y2056130D02*
D03*
Y2039620D02*
D03*
X1094840Y2054860D02*
D03*
Y2038350D02*
D03*
X953770Y1983740D02*
D03*
X777140Y2086610D02*
D03*
X714810Y1690370D02*
D03*
X553720Y1736090D02*
D03*
X566220D02*
D03*
X702310Y1690370D02*
D03*
X1107340Y2038350D02*
D03*
Y2054860D02*
D03*
X1139090Y2039620D02*
D03*
Y2056130D02*
D03*
X966270Y1983740D02*
D03*
X764640Y2086610D02*
D03*
X928470Y2189480D02*
D03*
D43*
X1093330Y2080260D02*
D03*
X1116330D02*
D03*
X1139330D02*
D03*
D44*
X905256Y2175630D02*
D03*
Y2190630D02*
D03*
Y2185630D02*
D03*
Y2180630D02*
D03*
X885444Y2175630D02*
D03*
Y2180630D02*
D03*
Y2185630D02*
D03*
Y2190630D02*
D03*
D45*
X895350Y2183130D02*
D03*
D46*
X885190Y2146594D02*
D03*
X793750Y2415540D02*
D03*
X1953260Y1341414D02*
D03*
Y1350986D02*
D03*
X793750Y2425111D02*
D03*
X1172210Y1616416D02*
D03*
Y1606844D02*
D03*
X885190Y2156166D02*
D03*
X623570Y1547836D02*
D03*
Y1538264D02*
D03*
X862330Y879134D02*
D03*
Y888706D02*
D03*
X932180Y879134D02*
D03*
Y888706D02*
D03*
X1557020Y924854D02*
D03*
Y934426D02*
D03*
X1503680Y898866D02*
D03*
Y889294D02*
D03*
X1488440Y2451394D02*
D03*
Y2460966D02*
D03*
X1464310Y2451394D02*
D03*
Y2460966D02*
D03*
D47*
X949035Y2000250D02*
D03*
X940725D02*
D03*
X972129Y2127250D02*
D03*
X980440D02*
D03*
X772160Y1713230D02*
D03*
X780471D02*
D03*
X791210Y1645920D02*
D03*
X799521D02*
D03*
D48*
X1036320Y1815580D02*
D03*
X783590Y1833360D02*
D03*
Y1768360D02*
D03*
X1036320Y1750580D02*
D03*
D49*
X657920Y1714500D02*
D03*
X601920D02*
D03*
X625920D02*
D03*
X629920D02*
D03*
X601920Y1645920D02*
D03*
X641920D02*
D03*
X621920D02*
D03*
X605920Y1714500D02*
D03*
X609920Y1645920D02*
D03*
X649920Y1714500D02*
D03*
X617920D02*
D03*
X605920Y1645920D02*
D03*
X613920D02*
D03*
X617920D02*
D03*
X625920D02*
D03*
X629920D02*
D03*
X633920D02*
D03*
X637920D02*
D03*
X645920D02*
D03*
X649920D02*
D03*
X653920D02*
D03*
X657920D02*
D03*
X653920Y1714500D02*
D03*
X645920D02*
D03*
X641920D02*
D03*
X633920D02*
D03*
X621920D02*
D03*
X613920D02*
D03*
X609920D02*
D03*
X637920D02*
D03*
D50*
X664210Y1704210D02*
D03*
X595630D02*
D03*
Y1696210D02*
D03*
X664210Y1680210D02*
D03*
Y1708210D02*
D03*
X595630Y1680210D02*
D03*
Y1676210D02*
D03*
X664210Y1668210D02*
D03*
Y1652210D02*
D03*
Y1664210D02*
D03*
Y1672210D02*
D03*
Y1676210D02*
D03*
Y1684210D02*
D03*
Y1688210D02*
D03*
Y1692210D02*
D03*
Y1696210D02*
D03*
Y1700210D02*
D03*
X595630Y1708210D02*
D03*
Y1700210D02*
D03*
Y1692210D02*
D03*
Y1688210D02*
D03*
Y1684210D02*
D03*
Y1672210D02*
D03*
Y1668210D02*
D03*
Y1664210D02*
D03*
Y1660210D02*
D03*
Y1656210D02*
D03*
Y1652210D02*
D03*
X664210Y1656210D02*
D03*
Y1660210D02*
D03*
D51*
X1144185Y1590040D02*
D03*
X1149435D02*
D03*
D52*
X1151636Y1460200D02*
D03*
X1189990Y1466700D02*
D03*
Y1460200D02*
D03*
Y1473200D02*
D03*
Y1479700D02*
D03*
X1151636D02*
D03*
Y1473200D02*
D03*
Y1466700D02*
D03*
D53*
X1138239Y1616710D02*
D03*
X1146810D02*
D03*
D54*
X825540Y1464575D02*
D03*
X835540Y1418325D02*
D03*
X820540D02*
D03*
Y1464575D02*
D03*
X825540Y1418325D02*
D03*
X830540D02*
D03*
X835540Y1464575D02*
D03*
X830540D02*
D03*
D55*
X812415Y1438950D02*
D03*
X843665Y1418950D02*
D03*
Y1458950D02*
D03*
Y1443950D02*
D03*
Y1423950D02*
D03*
Y1428950D02*
D03*
Y1433950D02*
D03*
Y1438950D02*
D03*
Y1448950D02*
D03*
Y1453950D02*
D03*
Y1463950D02*
D03*
X812415D02*
D03*
Y1458950D02*
D03*
Y1453950D02*
D03*
Y1448950D02*
D03*
Y1443950D02*
D03*
Y1433950D02*
D03*
Y1428950D02*
D03*
Y1423950D02*
D03*
Y1418950D02*
D03*
D56*
X770610Y1657490D02*
D03*
X753110Y1634490D02*
D03*
X770610D02*
D03*
X753110Y1657490D02*
D03*
D57*
X716195Y1553255D02*
D03*
X706195D02*
D03*
X711195Y1538005D02*
D03*
X706195D02*
D03*
X716195D02*
D03*
X711195Y1553255D02*
D03*
D58*
X593979Y1611630D02*
D03*
X521081Y1573530D02*
D03*
X593979D02*
D03*
Y1586230D02*
D03*
Y1598930D02*
D03*
X521081Y1611630D02*
D03*
Y1598930D02*
D03*
Y1586230D02*
D03*
D59*
X729220Y1438910D02*
D03*
X730370Y1412240D02*
D03*
X744220Y1438910D02*
D03*
X745370Y1412240D02*
D03*
D60*
X718820Y1543130D02*
D03*
X703570D02*
D03*
Y1548130D02*
D03*
X718820D02*
D03*
D61*
X537730Y1485900D02*
D03*
X602730D02*
D03*
D62*
X442254Y1474470D02*
D03*
X407376Y1951990D02*
D03*
X397804D02*
D03*
X840151Y2419350D02*
D03*
X420076Y1995170D02*
D03*
X1965960Y1393190D02*
D03*
X1956389D02*
D03*
X1265214Y1436370D02*
D03*
X1274786D02*
D03*
X593090Y1545590D02*
D03*
X583519D02*
D03*
X442254Y1353820D02*
D03*
X451826D02*
D03*
X409529Y1350010D02*
D03*
X419100D02*
D03*
X411774Y1322070D02*
D03*
X421346D02*
D03*
X830580Y2419350D02*
D03*
X410504Y1995170D02*
D03*
X1915454Y2053590D02*
D03*
X1925026D02*
D03*
X1947204Y1962150D02*
D03*
X1956776D02*
D03*
X451826Y1474470D02*
D03*
D63*
X447300Y1451400D02*
D03*
X440800D02*
D03*
X473300Y1393400D02*
D03*
X466800D02*
D03*
X486300D02*
D03*
Y1451400D02*
D03*
X479800D02*
D03*
X473300D02*
D03*
X466800D02*
D03*
X453800D02*
D03*
X440800Y1393400D02*
D03*
X447300D02*
D03*
X453800D02*
D03*
X460300D02*
D03*
X479800D02*
D03*
X460300Y1451400D02*
D03*
D64*
X920234Y2052060D02*
D03*
X901700Y2042910D02*
D03*
X1018917Y974350D02*
D03*
X1000383Y965200D02*
D03*
D65*
X901700Y2061210D02*
D03*
X1018917Y956050D02*
D03*
D66*
X778250Y2332613D02*
D03*
X1572520Y1065014D02*
D03*
X1549140Y2349123D02*
D03*
D67*
X787400Y2351147D02*
D03*
X796550Y2332613D02*
D03*
X1567440Y2349123D02*
D03*
X1554220Y1065014D02*
D03*
X1563370Y1046480D02*
D03*
X1558290Y2367657D02*
D03*
D68*
X803327Y2450597D02*
D03*
X897194Y2489478D02*
D03*
X401823Y2049093D02*
D03*
X362942Y1955226D02*
D03*
X1960377Y2049093D02*
D03*
X1999258Y1955226D02*
D03*
X1960377Y1293547D02*
D03*
X1999258Y1387414D02*
D03*
X1558283Y2448890D02*
D03*
X1464417Y2487771D02*
D03*
X362942Y1387414D02*
D03*
X401823Y1293547D02*
D03*
X897194Y853162D02*
D03*
X803327Y892043D02*
D03*
X1465006Y853162D02*
D03*
X1558873Y892043D02*
D03*
D69*
X821100Y2540437D02*
D03*
X311983Y2031320D02*
D03*
X2050217D02*
D03*
Y1311320D02*
D03*
X1540510Y2538730D02*
D03*
X311983Y1311320D02*
D03*
X821100Y802203D02*
D03*
X1541100D02*
D03*
D70*
X745080Y2000250D02*
D03*
X725580D02*
D03*
X745080Y1973580D02*
D03*
X725580D02*
D03*
D71*
X933350Y2315210D02*
D03*
X932180Y2454910D02*
D03*
X944680D02*
D03*
X920850Y2315210D02*
D03*
X836930Y955040D02*
D03*
X824430D02*
D03*
X1444190Y1038860D02*
D03*
X1456690D02*
D03*
X1403450Y2421890D02*
D03*
X1415950D02*
D03*
X1390850Y2316480D02*
D03*
X1403350D02*
D03*
X839470Y1060450D02*
D03*
X851970D02*
D03*
D72*
X1116330Y2143260D02*
D03*
D73*
X580390Y1730040D02*
D03*
Y1717040D02*
D03*
D74*
X1277620Y1829200D02*
D03*
Y1815700D02*
D03*
X712470Y1797850D02*
D03*
Y1784350D02*
D03*
D75*
X1263650Y1830510D02*
D03*
Y1822010D02*
D03*
X1292860Y1829240D02*
D03*
Y1820740D02*
D03*
X731520Y1796660D02*
D03*
Y1788160D02*
D03*
X690880Y1797930D02*
D03*
Y1789430D02*
D03*
D76*
X1198680Y1762760D02*
D03*
X1173680D02*
D03*
D77*
X1289050Y1714423D02*
D03*
Y1692910D02*
D03*
D78*
X1211580Y1718310D02*
D03*
X1227580D02*
D03*
D79*
X1219190Y1409700D02*
D03*
X1135390Y1410480D02*
D03*
D80*
X1173480Y1514159D02*
D03*
Y1522730D02*
D03*
D81*
X887510Y1931670D02*
D03*
X923510D02*
D03*
D82*
X949960Y2128070D02*
D03*
Y2147570D02*
D03*
D83*
X624840Y1492250D02*
D03*
Y1483939D02*
D03*
D84*
X544806Y1672590D02*
D03*
X537234D02*
D03*
X544806Y1656080D02*
D03*
X537234D02*
D03*
D85*
X544830Y1702618D02*
D03*
Y1689100D02*
D03*
D86*
X1371600Y938530D02*
D03*
Y926030D02*
D03*
D87*
X770890Y1441250D02*
D03*
Y1416250D02*
D03*
M02*
